<svg width="302" height="757" viewBox="0 0 302 757" fill="none" xmlns="http://www.w3.org/2000/svg">
<path d="M98.0849 707.163C87.8271 709.415 76.9854 711.751 67.9786 717.258C61.3902 721.263 55.8026 726.936 51.883 733.528C50.1316 736.448 48.7139 740.119 50.1317 743.206C51.1324 745.375 53.3841 746.71 55.5525 747.628C58.1378 748.713 60.9732 749.297 63.7253 749.881C82.9066 753.719 102.505 755.304 122.02 754.636C124.605 754.553 127.274 754.386 129.776 753.552C134.863 751.8 138.532 747.044 140.034 741.871C140.784 739.285 141.034 736.531 141.201 733.778C141.535 729.69 141.701 725.601 140.867 721.597C140.034 717.592 138.115 713.67 134.863 711.251C130.61 707.997 124.855 707.747 119.518 707.58C111.011 707.413 106.675 707.413 98.0849 707.163Z" fill="white"/>
<path d="M112.929 756.055C96.3335 756.055 79.8209 754.386 63.5585 751.132C60.8064 750.548 57.8875 749.964 55.1354 748.796C52.0497 747.545 50.0482 745.876 49.0475 743.79C47.7131 740.87 48.2968 737.199 50.8821 732.944C54.9686 726.102 60.6396 720.345 67.3948 716.257C76.485 710.667 87.2432 708.331 97.5844 706.078L98.0014 705.994H98.1682C102.421 706.078 105.674 706.161 108.926 706.245C112.179 706.328 115.348 706.328 119.601 706.495C125.773 706.662 131.277 707.079 135.697 710.416C138.949 712.836 141.201 716.757 142.202 721.513C143.119 725.768 142.869 730.023 142.535 734.028C142.369 736.698 142.118 739.618 141.284 742.372C139.616 748.295 135.363 753.051 130.276 754.887C127.691 755.805 124.939 755.971 122.186 756.055C119.101 756.055 116.015 756.055 112.929 756.055ZM98.2516 708.414H98.1682C87.9938 710.667 77.4024 713.003 68.7291 718.343C62.3075 722.264 56.8868 727.771 53.0505 734.195C50.9656 737.783 50.3818 740.62 51.3826 742.705C52.1331 744.207 53.6343 745.459 56.1362 746.46C58.7215 747.461 61.4736 748.129 64.1423 748.629C83.2401 752.467 102.755 754.052 122.103 753.302C124.772 753.218 127.19 753.051 129.442 752.3C133.779 750.799 137.365 746.627 138.866 741.454C139.616 738.951 139.867 736.198 140.033 733.611C140.284 729.773 140.534 725.685 139.7 721.763C138.866 717.592 136.864 714.254 134.112 712.169C130.276 709.332 125.272 708.915 119.518 708.831C115.265 708.748 112.012 708.664 108.843 708.581C105.674 708.581 102.421 708.497 98.2516 708.414Z" fill="black"/>
<path d="M251.118 698.402C261.376 700.654 272.217 702.99 281.224 708.497C287.813 712.502 293.4 718.175 297.32 724.767C299.071 727.687 300.489 731.358 299.071 734.445C298.07 736.614 295.819 737.949 293.65 738.867C291.065 739.952 288.23 740.536 285.478 741.12C266.296 744.958 246.698 746.543 227.183 745.875C224.598 745.792 221.929 745.625 219.427 744.791C214.34 743.039 210.671 738.283 209.169 733.11C208.419 730.524 208.169 727.77 208.002 725.017C207.668 720.929 207.501 716.84 208.335 712.836C209.169 708.831 211.087 704.909 214.34 702.49C218.593 699.236 224.348 698.986 229.685 698.819C238.275 698.652 242.611 698.568 251.118 698.402Z" fill="white"/>
<path d="M236.357 747.294C233.271 747.294 230.186 747.211 227.1 747.127C224.264 747.044 221.596 746.877 219.01 745.959C213.923 744.207 209.67 739.368 208.002 733.444C207.251 730.691 206.918 727.854 206.751 725.101C206.417 721.096 206.251 716.841 207.085 712.586C208.085 707.83 210.337 703.908 213.59 701.489C218.01 698.152 223.43 697.734 229.685 697.568C233.938 697.484 237.191 697.401 240.443 697.317C243.696 697.234 246.865 697.234 251.118 697.067H251.285L251.702 697.15C262.127 699.403 272.801 701.823 281.892 707.329C288.647 711.501 294.401 717.258 298.404 724.016C300.99 728.355 301.573 732.026 300.239 734.862C299.238 737.032 297.237 738.617 294.151 739.868C291.399 740.953 288.48 741.621 285.728 742.205C269.465 745.625 252.87 747.294 236.357 747.294ZM251.035 699.653C246.865 699.737 243.613 699.82 240.443 699.904C237.191 699.987 234.022 699.987 229.769 700.154C224.014 700.321 218.927 700.655 215.174 703.491C212.422 705.577 210.504 708.915 209.587 713.086C208.753 717.008 209.003 721.096 209.253 724.934C209.42 727.52 209.67 730.19 210.421 732.777C211.922 737.949 215.508 742.121 219.844 743.623C222.096 744.374 224.515 744.541 227.183 744.624C246.615 745.375 266.13 743.79 285.144 739.952C287.813 739.451 290.565 738.784 293.15 737.783C295.652 736.781 297.237 735.53 297.904 734.028C298.905 731.942 298.321 729.022 296.236 725.518C292.4 719.093 286.979 713.587 280.557 709.665C271.801 704.326 261.293 701.99 251.118 699.737L251.035 699.653Z" fill="black"/>
<path d="M50.8821 454.441C67.7283 537.124 93.2477 624.98 100.503 709.081C110.344 709.915 120.185 710.833 130.026 711.668C131.61 711.834 133.278 711.918 134.696 711.25C137.698 709.915 138.365 705.994 138.699 702.74C145.204 632.489 163.051 563.822 180.814 495.573C191.489 563.906 200.329 632.489 207.335 701.238C207.501 702.824 207.752 704.576 209.003 705.577C210.253 706.578 212.088 706.244 213.673 705.994C227.934 703.241 242.278 700.487 256.539 697.734C257.623 697.484 258.874 697.233 259.624 696.399C260.458 695.481 260.542 694.146 260.625 692.895C263.461 635.075 259.208 577.005 262.877 519.185C264.795 488.565 268.881 457.945 266.129 427.408C260.542 424.905 254.287 424.571 248.199 424.404C191.239 423.403 135.613 442.092 78.6533 444.512C73.8997 444.679 68.8125 444.929 64.8094 447.599C60.8064 450.269 47.6297 450.936 50.8821 454.441Z" fill="black"/>
<path d="M132.027 713.002C131.277 713.002 130.61 712.919 129.942 712.919L99.3357 710.249L99.2523 709.164C94.1651 650.594 80.1544 589.77 66.5607 530.949C60.8063 505.836 54.8017 479.971 49.7145 455.024C49.0474 454.107 49.0473 453.356 49.2141 452.772C49.7979 450.853 52.7168 450.018 57.3871 448.85C59.9724 448.183 62.8078 447.515 64.1422 446.598C68.3954 443.761 73.4826 443.594 78.403 443.344H78.6533C104.34 442.259 130.193 437.754 155.212 433.415C185.568 428.159 216.925 422.735 248.283 423.236C254.12 423.319 260.792 423.653 266.713 426.323L267.38 426.657L267.464 427.408C269.632 450.686 267.714 474.381 265.879 497.242C265.296 504.501 264.712 512.01 264.211 519.352C262.293 549.639 262.543 580.593 262.877 610.462C263.127 637.495 263.377 665.528 261.96 693.062C261.876 694.23 261.793 696.065 260.625 697.317C259.541 698.485 257.873 698.819 256.872 698.985L214.006 707.245C212.172 707.579 210.003 707.913 208.335 706.578C206.668 705.327 206.334 703.241 206.167 701.405C199.412 634.992 190.822 567.827 180.648 501.747C163.635 567.076 146.455 634.574 140.117 702.907C139.783 706.745 138.949 710.917 135.363 712.502C134.196 712.919 133.028 713.002 132.027 713.002ZM101.671 707.913L130.193 710.416C131.527 710.499 133.028 710.666 134.196 710.166C136.531 709.081 137.198 705.744 137.448 702.657C143.953 632.155 162.05 562.571 179.564 495.24L181.065 489.399L181.982 495.323C192.573 563.322 201.497 632.572 208.502 701.071C208.669 702.49 208.836 703.825 209.67 704.492C210.504 705.16 211.922 704.909 213.339 704.659L256.205 696.399C257.206 696.232 258.123 695.982 258.624 695.481C259.124 694.897 259.208 693.896 259.291 692.811C260.625 665.362 260.375 637.411 260.208 610.379C259.958 580.426 259.708 549.472 261.543 519.102C262.043 511.676 262.627 504.167 263.211 496.908C265.045 474.381 266.88 451.02 264.879 428.242C259.541 426.073 253.453 425.739 248.116 425.656C217.009 425.155 185.818 430.578 155.545 435.835C130.443 440.173 104.506 444.679 78.6533 445.847H78.403C73.8162 446.014 69.0626 446.264 65.3931 448.683C63.7252 449.852 60.7229 450.602 57.8874 451.27C55.7191 451.771 52.2164 452.688 51.5493 453.439C51.5493 453.439 51.6326 453.523 51.716 453.606L51.9663 453.856L52.0496 454.19C57.1368 479.22 63.1414 505.252 68.9792 530.365C82.5729 589.019 96.5002 649.509 101.671 707.913Z" fill="black"/>
<path d="M103.172 148.989C72.0651 154.495 44.1271 175.687 30.4501 204.138C22.027 221.743 18.8579 241.433 16.8564 260.874C9.93444 328.121 14.9382 395.953 20.0255 463.285C20.1922 465.12 20.3591 467.206 21.7768 468.457C23.9451 470.376 27.281 469.208 29.9497 467.957C54.5518 456.86 82.1561 454.691 109.177 453.272C170.056 450.102 231.186 449.852 292.066 452.522C292.316 388.861 292.483 325.118 292.733 261.458C292.733 250.611 292.817 239.765 290.481 229.169C286.478 211.063 275.804 195.211 265.462 179.859C258.874 170.097 251.785 160.002 241.361 154.579C231.603 149.573 220.178 149.322 209.17 149.155C172.809 148.655 136.447 148.238 100.086 147.737L103.172 148.989Z" fill="white"/>
<path d="M24.6123 470.794C23.278 470.794 22.027 470.46 20.8594 469.459C19.1915 467.957 18.8579 465.704 18.6911 463.451C13.6873 397.038 8.60013 328.372 15.5221 260.79C17.4402 241.851 20.5259 221.743 29.1991 203.638C42.4592 176.021 68.7293 155.246 98.5853 148.655L92.9144 146.486L209.003 147.987C219.594 148.154 231.52 148.238 241.778 153.577C252.786 159.251 259.958 169.847 266.296 179.275C276.221 193.876 287.396 210.396 291.566 229.002C293.901 239.765 293.901 250.862 293.901 261.541L293.234 453.94L291.899 453.857C231.27 451.187 169.723 451.437 109.093 454.607C81.4056 456.026 54.4684 458.279 30.2833 469.208C29.1992 469.792 26.9474 470.794 24.6123 470.794ZM107.092 149.155L107.842 149.489L103.339 150.24C72.5655 155.663 45.0446 176.522 31.5343 204.723C22.9444 222.577 20.0255 242.351 18.1074 261.041C11.1854 328.372 16.2726 396.955 21.2764 463.285C21.4432 465.037 21.61 466.705 22.6108 467.623C24.1953 469.042 27.1142 468.04 29.4494 466.956C54.0514 455.859 81.1554 453.606 109.093 452.188C169.389 449.017 230.519 448.767 290.815 451.354L291.399 261.541C291.399 250.945 291.482 240.015 289.147 229.586C285.144 211.481 274.052 195.128 264.295 180.694C258.124 171.599 251.118 161.253 240.694 155.83C231.02 150.824 219.344 150.657 209.086 150.574L107.092 149.155Z" fill="black"/>
<path d="M112.346 398.457C105.424 404.714 105.675 414.643 106.258 423.987C107.843 449.768 118.851 474.632 118.351 500.413C118.268 502.999 118.101 505.669 116.933 507.922C115.933 509.841 114.265 511.593 114.348 513.679C114.431 516.182 117.017 518.017 119.519 518.518C123.438 519.269 127.608 517.851 130.193 514.847C132.195 512.511 133.196 509.424 133.946 506.42C136.115 497.91 137.366 489.149 137.532 480.389C137.699 470.961 136.698 461.533 135.614 452.188C134.196 439.172 132.779 426.24 130.527 413.391C129.61 408.051 128.025 402.128 123.355 399.541C120.353 397.873 116.183 398.123 112.847 398.29L112.346 398.457Z" fill="#FDCE22"/>
<path d="M121.604 520.02C120.853 520.02 120.019 519.936 119.268 519.769C116.35 519.185 113.18 517.099 113.097 513.762C113.014 511.843 114.014 510.258 114.932 508.923C115.265 508.422 115.599 507.922 115.849 507.421C116.933 505.252 117.1 502.665 117.1 500.413C117.35 486.396 114.181 472.295 111.012 458.696C108.427 447.432 105.758 435.751 105.008 423.987C104.34 413.725 104.424 403.963 111.513 397.455L111.679 397.288L112.43 396.954H113.097C116.516 396.788 120.686 396.621 123.855 398.373C128.942 401.21 130.694 407.384 131.695 413.141C133.946 426.073 135.447 439.255 136.782 452.021C137.782 461.282 138.867 470.877 138.7 480.388C138.533 489.232 137.366 498.16 135.114 506.754C134.363 509.674 133.362 513.011 131.111 515.681C128.776 518.434 125.19 520.02 121.604 520.02ZM113.097 399.457C106.926 405.214 106.926 414.225 107.509 423.82C108.177 435.334 110.845 446.931 113.431 458.112C116.6 471.878 119.852 486.062 119.602 500.413C119.519 502.916 119.352 505.836 118.017 508.506C117.684 509.09 117.35 509.674 117.017 510.174C116.266 511.342 115.516 512.511 115.599 513.595C115.682 515.431 117.767 516.849 119.769 517.266C123.188 517.934 127.024 516.599 129.276 514.012C131.194 511.843 132.028 508.756 132.779 506.086C134.947 497.659 136.115 488.982 136.281 480.305C136.448 470.96 135.447 461.449 134.447 452.271C133.029 439.506 131.611 426.323 129.359 413.558C128.442 408.135 126.941 402.878 122.771 400.542C120.269 399.124 116.516 399.291 113.347 399.374L113.097 399.457Z" fill="black"/>
<path d="M190.322 398.457C197.244 404.714 197.327 414.643 196.743 423.987C195.159 449.768 184.15 474.632 184.651 500.413C184.734 502.999 184.901 505.669 186.069 507.922C187.069 509.841 188.737 511.593 188.654 513.679C188.571 516.182 185.985 518.017 183.483 518.518C179.564 519.269 175.394 517.851 172.809 514.847C170.807 512.511 169.806 509.424 169.056 506.42C166.887 497.91 165.636 489.149 165.47 480.389C165.303 470.961 166.304 461.533 167.388 452.188C168.805 439.172 170.223 426.24 172.475 413.391C173.392 408.051 174.977 402.128 179.647 399.541C182.649 397.873 186.819 398.123 190.155 398.29L190.322 398.457Z" fill="#FDCE22"/>
<path d="M181.399 520.02C177.813 520.02 174.226 518.434 171.891 515.681C169.64 513.095 168.639 509.757 167.888 506.754C165.637 498.16 164.469 489.316 164.302 480.388C164.135 470.877 165.136 461.282 166.22 452.021C167.638 439.255 169.056 425.989 171.308 413.141C172.308 407.467 174.06 401.21 179.147 398.373C182.316 396.621 186.486 396.788 189.905 396.954L191.073 397.038L191.406 397.705C198.578 404.463 198.662 414.809 198.078 424.07C197.327 435.835 194.659 447.432 192.073 458.779C188.904 472.379 185.735 486.396 185.985 500.496C186.069 502.749 186.152 505.335 187.236 507.504C187.487 508.005 187.82 508.506 188.154 509.006C189.071 510.425 190.072 512.01 189.989 513.845C189.905 517.183 186.736 519.269 183.817 519.853C182.983 519.936 182.233 520.02 181.399 520.02ZM186.819 399.374C184.484 399.374 182.149 399.624 180.314 400.625C176.145 402.962 174.727 408.218 173.726 413.641C171.474 426.407 170.057 439.589 168.639 452.355C167.638 461.532 166.637 471.044 166.804 480.388C166.971 489.066 168.138 497.743 170.307 506.17C170.974 508.839 171.891 511.843 173.809 514.096C176.061 516.766 179.897 518.101 183.317 517.35C185.318 516.933 187.403 515.514 187.487 513.679C187.487 512.511 186.819 511.426 186.069 510.258C185.735 509.674 185.402 509.173 185.068 508.589C183.734 506.003 183.567 503.083 183.484 500.496C183.233 486.145 186.486 471.962 189.655 458.195C192.24 447.015 194.909 435.418 195.576 423.904C196.076 415.226 196.16 405.465 189.738 399.541C188.738 399.457 187.737 399.374 186.819 399.374Z" fill="black"/>
<path d="M118.768 306.762C116.099 298.085 113.43 287.823 112.013 278.812C111.262 273.806 110.678 268.8 110.094 263.71C109.177 255.701 108.26 247.608 107.509 239.598C106.759 230.921 106.175 222.16 105.674 213.483C105.591 211.898 105.508 210.146 106.508 208.811C107.259 207.81 108.51 207.309 109.677 207.059C112.346 206.642 115.182 207.726 116.85 209.812C118.434 211.814 118.935 214.484 119.351 216.987C121.77 233.925 120.436 251.195 121.853 268.299C122.854 279.73 125.106 291.077 125.189 302.591C125.189 303.675 125.189 304.843 124.605 305.845C123.605 307.847 120.185 308.348 118.768 306.762Z" fill="#FDCE22"/>
<path d="M121.186 308.932C119.852 308.932 118.601 308.431 117.85 307.597L117.684 307.347L117.517 307.18C114.431 297.168 112.013 287.155 110.762 279.062C110.011 274.056 109.344 268.883 108.844 263.961C107.926 256.035 107.009 247.858 106.258 239.765C105.508 231.004 104.924 222.16 104.423 213.567C104.34 212.065 104.173 209.812 105.508 208.06C106.342 206.892 107.759 206.141 109.511 205.807C112.596 205.307 115.849 206.558 117.85 208.978C119.685 211.23 120.269 214.234 120.603 216.821C122.02 226.582 122.104 236.511 122.27 246.189C122.354 253.448 122.521 260.957 123.104 268.216C123.438 272.388 124.022 276.643 124.522 280.814C125.44 287.906 126.357 295.332 126.44 302.591C126.44 303.842 126.44 305.261 125.773 306.429C125.106 307.68 123.688 308.598 121.937 308.765C121.687 308.932 121.437 308.932 121.186 308.932ZM119.852 306.095C120.269 306.429 120.936 306.512 121.603 306.429C122.437 306.345 123.271 305.928 123.521 305.344C123.938 304.677 123.938 303.675 123.938 302.674C123.855 295.499 122.938 288.24 122.02 281.148C121.52 276.977 120.936 272.721 120.519 268.466C119.852 261.041 119.769 253.532 119.685 246.273C119.518 236.678 119.352 226.833 118.017 217.238C117.684 214.902 117.267 212.399 115.766 210.646C114.348 208.894 111.929 207.977 109.761 208.31C109.177 208.394 108.01 208.727 107.426 209.562C106.759 210.48 106.759 211.898 106.842 213.4C107.342 221.993 107.926 230.837 108.677 239.515C109.427 247.524 110.345 255.701 111.262 263.627C111.846 268.55 112.43 273.639 113.18 278.645C114.515 286.571 116.85 296.333 119.852 306.095Z" fill="black"/>
<path d="M182.566 306.762C185.235 298.085 187.904 287.823 189.322 278.812C190.072 273.806 190.656 268.8 191.24 263.71C192.157 255.701 193.074 247.608 193.825 239.598C194.576 230.921 195.159 222.16 195.66 213.483C195.743 211.898 195.827 210.146 194.826 208.811C194.075 207.81 192.824 207.309 191.657 207.059C188.988 206.642 186.153 207.726 184.485 209.812C182.9 211.814 182.4 214.484 181.983 216.987C179.564 233.925 180.899 251.195 179.481 268.299C178.48 279.73 176.228 291.077 176.145 302.591C176.145 303.675 176.145 304.843 176.729 305.845C177.729 307.847 181.065 308.348 182.566 306.762Z" fill="#FDCE22"/>
<path d="M180.065 308.932C179.815 308.932 179.564 308.932 179.314 308.848C177.646 308.598 176.229 307.764 175.478 306.512C174.811 305.261 174.727 303.926 174.811 302.674C174.894 295.332 175.812 287.99 176.729 280.898C177.229 276.81 177.813 272.471 178.147 268.299C178.814 260.957 178.897 253.532 178.981 246.273C179.147 236.594 179.314 226.666 180.649 216.904C180.982 214.318 181.566 211.314 183.401 209.061C185.402 206.642 188.655 205.39 191.74 205.891C193.492 206.141 194.909 206.975 195.743 208.143C196.994 209.896 196.911 212.148 196.828 213.65C196.327 222.244 195.743 231.088 194.993 239.848C194.242 247.942 193.325 256.118 192.408 264.044C191.824 269.05 191.24 274.14 190.489 279.146C189.238 287.239 186.82 297.251 183.734 307.263L183.651 307.513L183.484 307.764C182.65 308.515 181.483 308.932 180.065 308.932ZM190.489 208.31C188.571 208.31 186.653 209.228 185.402 210.647C183.985 212.399 183.484 214.902 183.151 217.238C181.816 226.833 181.649 236.678 181.483 246.273C181.399 253.532 181.232 261.124 180.649 268.466C180.315 272.721 179.731 276.977 179.148 281.148C178.23 288.157 177.313 295.499 177.229 302.674C177.229 303.675 177.229 304.593 177.646 305.344C177.98 305.928 178.731 306.345 179.564 306.429C180.232 306.512 180.899 306.345 181.316 306.095C184.318 296.333 186.653 286.571 187.904 278.645C188.655 273.639 189.238 268.55 189.822 263.627C190.74 255.701 191.657 247.608 192.408 239.515C193.158 230.838 193.742 221.994 194.242 213.4C194.326 211.898 194.326 210.48 193.658 209.562C192.991 208.728 191.907 208.394 191.323 208.31C191.157 208.31 190.823 208.31 190.489 208.31Z" fill="black"/>
<path d="M154.211 273.723C144.788 275.141 120.269 267.799 115.515 276.476C110.762 285.153 118.267 311.101 118.267 320.779C118.267 331.376 120.519 341.137 120.352 351.817C120.102 364.833 121.77 377.765 123.355 390.614C125.189 405.131 126.941 419.565 128.775 434.083C129.443 439.756 130.277 445.68 133.529 450.269C139.2 458.362 150.542 459.614 159.632 456.61C164.803 454.941 169.723 451.938 172.892 447.349C175.644 443.511 176.895 438.755 177.98 434.083C185.735 400.292 182.817 364.916 183.734 330.207C184.068 318.11 190.072 287.74 186.069 276.393C182.066 265.212 165.637 272.555 154.211 273.723Z" fill="#FDCE22"/>
<path d="M150.459 459.363C143.62 459.363 136.615 457.027 132.445 451.02C128.942 446.014 128.192 439.506 127.525 434.25L122.104 390.78C120.519 378.015 118.851 364.916 119.101 351.817C119.185 346.394 118.601 341.054 118.101 335.881C117.6 331.042 117.017 326.036 117.017 320.863C117.017 317.692 116.183 312.519 115.182 306.929C113.264 295.248 111.012 282.066 114.348 275.975C117.934 269.467 130.11 270.802 140.951 271.97C146.122 272.554 150.959 273.055 154.045 272.638H154.128C156.88 272.388 159.883 271.72 162.968 271.053C172.726 268.967 183.817 266.631 187.237 276.226C190.072 284.319 188.071 301.339 186.403 315.022C185.652 321.363 184.985 326.787 184.902 330.458C184.651 339.719 184.651 349.147 184.735 358.241C184.818 383.522 184.902 409.637 179.147 434.583C178.146 439.005 176.812 444.095 173.81 448.266C170.724 452.605 165.971 455.942 159.883 457.945C157.047 458.779 153.795 459.363 150.459 459.363ZM127.942 273.472C122.604 273.472 118.184 274.307 116.6 277.143C113.681 282.483 115.932 295.833 117.684 306.512C118.684 312.352 119.518 317.442 119.518 320.863C119.518 325.869 120.019 330.875 120.603 335.631C121.186 340.887 121.77 346.31 121.687 351.9C121.437 364.832 123.104 377.932 124.689 390.53L130.11 433.999C130.777 439.256 131.528 445.179 134.613 449.685C140.117 457.528 151.209 458.279 159.299 455.609C163.135 454.357 168.472 451.771 171.975 446.848C174.394 443.427 175.728 439.256 176.896 434.083C182.567 409.386 182.483 383.438 182.4 358.325C182.4 349.147 182.316 339.719 182.567 330.458C182.65 326.62 183.317 321.113 184.068 314.772C185.652 301.339 187.654 284.652 184.985 277.143C182.567 270.135 174.977 271.219 163.635 273.556C160.55 274.223 157.381 274.891 154.545 275.141C151.209 275.641 146.205 275.057 140.868 274.557C136.615 273.889 132.028 273.472 127.942 273.472Z" fill="black"/>
<path d="M127.775 223.746C126.607 227.5 125.356 233.674 124.605 237.512C124.188 239.932 123.772 242.435 124.105 244.938C124.105 245.105 124.188 245.272 124.272 245.438C124.355 245.522 124.522 245.605 124.689 245.605C125.523 245.772 126.44 245.438 127.191 245.188C131.861 243.353 136.531 241.434 141.118 239.598C141.368 239.515 141.535 239.431 141.619 239.181C141.702 238.931 141.618 238.68 141.535 238.43C139.367 233.007 135.28 228.668 130.944 224.663C130.276 224.079 128.692 223.912 127.775 223.746Z" fill="white"/>
<path d="M125.106 246.94C124.856 246.94 124.606 246.94 124.272 246.857C124.105 246.857 123.605 246.69 123.188 246.273C122.854 245.856 122.771 245.355 122.771 245.105C122.521 242.435 122.854 239.765 123.355 237.345C123.855 234.508 125.189 227.583 126.524 223.412L126.857 222.327L127.941 222.494C128.108 222.494 128.275 222.577 128.442 222.577C129.526 222.744 130.944 222.995 131.778 223.746C135.864 227.5 140.368 232.172 142.619 237.929C142.703 238.18 143.036 238.931 142.619 239.681C142.286 240.349 141.702 240.599 141.452 240.683L127.524 246.273C126.941 246.606 126.107 246.94 125.106 246.94ZM128.609 225.164C127.441 229.252 126.274 235.259 125.857 237.762C125.44 239.932 125.106 242.184 125.273 244.437C125.69 244.437 126.19 244.187 126.691 244.02L140.284 238.597C138.116 233.424 133.946 229.169 130.193 225.665C129.943 225.414 129.192 225.247 128.609 225.164Z" fill="black"/>
<path d="M170.558 223.746C171.725 227.5 173.56 233.674 174.227 237.512C174.644 239.932 175.061 242.435 174.728 244.938C174.728 245.105 174.644 245.272 174.561 245.438C174.477 245.522 174.311 245.605 174.144 245.605C173.31 245.772 172.392 245.438 171.642 245.188C166.972 243.353 162.301 241.434 157.715 239.598C157.464 239.515 157.298 239.431 157.214 239.181C157.131 238.931 157.214 238.68 157.298 238.43C159.466 233.007 163.552 228.668 167.889 224.663C168.556 224.079 169.64 223.912 170.558 223.746Z" fill="white"/>
<path d="M173.726 246.94C172.809 246.94 171.892 246.606 171.308 246.356L157.381 240.766C157.13 240.683 156.463 240.432 156.213 239.765C155.88 239.014 156.13 238.263 156.213 238.013C158.465 232.256 162.968 227.583 167.055 223.829C167.972 222.995 169.223 222.744 170.14 222.577L171.475 222.327L171.808 223.412C173.143 227.5 174.894 233.591 175.561 237.345C175.978 239.848 176.395 242.435 176.145 245.105C176.145 245.355 176.062 245.856 175.728 246.273C175.311 246.69 174.811 246.857 174.644 246.857C174.227 246.94 173.977 246.94 173.726 246.94ZM158.632 238.597L172.225 244.02C172.726 244.187 173.226 244.437 173.643 244.437C173.81 242.184 173.476 239.848 173.059 237.762C172.475 234.425 170.974 229.169 169.723 225.247C169.306 225.331 168.973 225.498 168.723 225.748C164.886 229.169 160.717 233.424 158.632 238.597Z" fill="black"/>
<path d="M152.543 280.647C157.13 280.814 161.8 279.479 166.137 277.894C169.556 276.559 172.892 274.557 174.894 271.47C175.894 269.801 176.478 267.966 176.895 266.047C178.647 257.787 177.062 248.776 172.142 242.018C171.141 240.599 169.973 239.348 168.639 238.346C166.22 236.678 163.218 236.094 160.299 235.593C154.795 234.675 149.124 233.758 143.62 234.759C140.784 235.259 138.032 236.344 135.28 237.512C132.528 238.68 129.859 240.015 127.608 242.018C123.688 245.438 121.52 250.778 121.353 256.034C121.269 261.291 123.021 266.464 125.94 270.802C127.107 272.471 128.358 274.056 130.11 275.224C131.777 276.392 133.779 277.06 135.781 277.644C141.618 279.479 146.455 280.898 152.543 280.647Z" fill="#FDCE22"/>
<path d="M151.293 281.899C145.705 281.899 141.118 280.564 135.447 278.728C133.446 278.061 131.361 277.393 129.443 276.142C127.858 275.057 126.44 273.555 124.939 271.386C121.687 266.547 120.019 261.04 120.102 255.867C120.269 250.111 122.687 244.52 126.774 241.016C129.192 238.93 132.028 237.512 134.78 236.344C137.198 235.259 140.201 234.091 143.37 233.507C149.208 232.423 155.212 233.424 160.466 234.341C163.385 234.842 166.638 235.426 169.306 237.262C170.641 238.179 171.892 239.431 173.143 241.266C178.146 248.192 179.981 257.536 178.063 266.297C177.563 268.716 176.895 270.552 175.895 272.054C174.06 274.974 170.891 277.31 166.554 278.979C163.051 280.314 157.797 282.066 152.543 281.815C152.127 281.899 151.71 281.899 151.293 281.899ZM148.791 235.593C147.123 235.593 145.455 235.676 143.87 236.01C140.951 236.511 138.199 237.679 135.864 238.68C133.279 239.765 130.694 241.1 128.525 242.935C125.023 246.022 122.854 250.861 122.771 256.034C122.687 260.707 124.189 265.713 127.191 270.135C128.442 272.054 129.693 273.305 131.027 274.223C132.612 275.308 134.53 275.892 136.364 276.476C142.286 278.395 146.873 279.73 152.71 279.479H152.794H152.877C157.714 279.646 162.634 278.061 165.97 276.809C169.807 275.308 172.559 273.305 174.06 270.886C174.894 269.634 175.478 268.049 175.895 265.88C177.646 257.786 175.978 249.193 171.391 242.768C170.307 241.266 169.223 240.182 168.139 239.431C165.887 237.846 162.885 237.345 160.299 236.928C156.463 236.26 152.627 235.593 148.791 235.593Z" fill="black"/>
<path d="M105.909 202.359L103.597 203.315L105.86 208.79L108.172 207.833L105.909 202.359Z" fill="black"/>
<path d="M110.052 200.657L110.017 206.998L112.519 207.012L112.554 200.671L110.052 200.657Z" fill="black"/>
<path d="M116.679 202.397L114.48 207.897L116.803 208.827L119.002 203.327L116.679 202.397Z" fill="black"/>
<path d="M186.072 203.647L183.634 204.208L184.682 208.761L187.12 208.2L186.072 203.647Z" fill="black"/>
<path d="M189.073 201.791L189.039 207.048L191.541 207.064L191.575 201.808L189.073 201.791Z" fill="black"/>
<path d="M195.978 203.245L193.098 207.339L195.144 208.78L198.024 204.686L195.978 203.245Z" fill="black"/>
<path d="M114.352 513.819L109.858 514.74L110.361 517.192L114.854 516.271L114.352 513.819Z" fill="black"/>
<path d="M116.727 517.319L113.482 521.87L115.519 523.323L118.764 518.772L116.727 517.319Z" fill="black"/>
<path d="M123.249 518.324L123.166 522.578L125.667 522.627L125.75 518.373L123.249 518.324Z" fill="black"/>
<path d="M178.345 518.288L177.035 523.379L179.458 524.003L180.768 518.912L178.345 518.288Z" fill="black"/>
<path d="M186.196 517.349L184.099 518.714L187.055 523.26L189.152 521.895L186.196 517.349Z" fill="black"/>
<path d="M188.877 511.89L188.46 514.358L192.324 515.013L192.742 512.545L188.877 511.89Z" fill="black"/>
<path d="M142.452 443.594C142.619 449.935 142.703 456.276 142.703 462.534C142.703 467.79 142.619 473.046 142.035 478.303C141.618 482.224 140.868 486.229 140.451 490.15C139.784 495.907 139.784 501.748 139.784 507.588C139.784 512.845 139.867 518.518 142.869 522.773C143.203 523.19 143.537 523.691 144.12 523.858C145.204 524.275 146.372 523.524 147.206 522.773C151.042 519.436 153.794 514.847 155.546 510.008C157.297 505.169 158.214 500.079 158.965 495.073C160.716 482.641 161.3 470.126 160.8 457.611C160.55 452.105 160.049 446.431 157.881 441.342" fill="#FDCE22"/>
<path d="M144.788 525.276C144.371 525.276 144.037 525.193 143.62 525.026C142.786 524.692 142.286 524.025 141.869 523.441C138.783 519.019 138.533 513.595 138.533 507.505C138.533 501.748 138.533 495.824 139.2 489.984C139.45 487.981 139.7 485.979 140.034 484.06C140.284 482.141 140.618 480.138 140.868 478.136C141.452 472.88 141.452 467.54 141.452 462.534C141.452 456.276 141.368 449.852 141.202 443.594L143.703 443.511C143.87 449.852 143.954 456.193 143.954 462.534C143.954 467.623 143.954 473.046 143.286 478.47C143.036 480.472 142.786 482.475 142.453 484.477C142.202 486.396 141.869 488.398 141.619 490.317C140.951 495.991 140.951 501.915 140.951 507.588C140.951 513.262 141.118 518.268 143.87 522.106C144.037 522.356 144.287 522.69 144.537 522.773C144.871 522.94 145.538 522.606 146.372 521.939C149.791 518.935 152.46 514.847 154.378 509.674C156.213 504.751 157.047 499.495 157.714 494.99C159.465 482.725 160.049 470.126 159.549 457.778C159.299 452.772 158.965 447.015 156.713 442.009L158.965 441.008C161.384 446.431 161.801 452.522 162.051 457.695C162.551 470.293 161.967 482.975 160.216 495.407C159.549 500.079 158.631 505.502 156.713 510.675C154.628 516.182 151.71 520.687 148.04 523.941C146.956 524.776 145.788 525.276 144.788 525.276Z" fill="black"/>
<path d="M114.347 338.717C115.348 335.63 116.849 332.293 119.852 331.125C121.019 330.708 122.52 330.708 123.271 331.709C124.355 332.96 123.604 334.963 122.687 336.298C121.52 337.883 120.102 339.218 118.434 340.303C120.435 340.219 122.52 340.219 124.522 340.136C127.024 340.052 129.609 340.052 132.028 340.72C134.446 341.387 136.781 342.889 137.865 345.142C138.532 346.56 138.699 348.312 138.449 349.898C138.115 352.234 137.115 354.486 135.614 356.322C133.445 358.908 130.276 360.41 127.024 361.245C123.771 361.996 120.352 362.079 117.016 361.996C114.931 361.996 112.846 361.912 110.845 361.495C110.511 361.411 110.178 361.328 109.927 361.078C109.677 360.827 109.677 360.494 109.594 360.16C108.76 353.235 109.844 346.143 112.763 339.802" fill="white"/>
<path d="M118.851 363.164C118.267 363.164 117.6 363.164 117.016 363.164C115.098 363.164 112.846 363.08 110.594 362.663C110.261 362.58 109.51 362.496 109.01 361.912C108.509 361.328 108.426 360.661 108.343 360.327C107.425 353.235 108.676 345.726 111.678 339.301L113.93 340.386C111.095 346.477 110.01 353.402 110.844 360.077C110.844 360.077 110.844 360.16 110.844 360.243C110.928 360.243 110.928 360.243 111.011 360.243C113.013 360.577 115.181 360.661 117.016 360.744C120.018 360.827 123.437 360.744 126.69 359.993C129.025 359.409 132.277 358.158 134.613 355.488C136.03 353.902 136.864 351.817 137.198 349.731C137.365 348.229 137.198 346.811 136.698 345.726C135.864 343.974 134.029 342.639 131.694 341.971C129.442 341.387 126.94 341.387 124.522 341.471L113.93 341.721L117.683 339.301C119.184 338.3 120.519 337.049 121.603 335.63C122.353 334.629 122.854 333.294 122.27 332.627C121.853 332.126 120.935 332.21 120.185 332.46C117.6 333.378 116.265 336.548 115.431 339.218L113.013 338.467C114.014 335.297 115.681 331.459 119.268 330.124C121.102 329.456 123.02 329.79 124.105 331.042C125.689 332.877 124.855 335.38 123.604 337.132C123.104 337.8 122.52 338.467 121.936 339.051L124.438 338.968C127.023 338.884 129.692 338.884 132.277 339.552C135.363 340.386 137.782 342.222 138.949 344.641C139.7 346.143 139.95 348.062 139.7 350.064C139.366 352.651 138.282 355.154 136.614 357.156C133.862 360.327 130.109 361.829 127.357 362.496C124.522 362.997 121.519 363.164 118.851 363.164Z" fill="black"/>
<path d="M25.6131 179.776C7.51593 198.882 -2.65848 230.253 2.42873 256.035C7.59934 281.816 22.1104 304.927 39.2902 324.868C43.7936 330.124 48.6306 335.213 53.968 339.552C67.1447 350.232 96.6673 357.157 112.679 362.747C113.93 356.322 114.681 349.898 114.931 343.39C115.015 342.305 115.015 341.137 114.431 340.219C113.68 338.968 112.262 338.384 110.845 337.883C93.3314 331.209 66.8945 314.856 58.805 297.918C50.7155 280.981 47.1295 262.292 43.9604 243.77C42.626 236.261 41.3751 228.668 42.0423 221.076C42.6261 213.483 45.2948 205.807 50.7156 200.468C52.3835 198.882 54.385 196.963 53.8847 194.794C53.5511 193.292 52.0499 192.291 50.7156 191.54C42.7095 186.868 34.3697 183.113 25.6131 179.776Z" fill="white"/>
<path d="M113.763 364.499L112.429 363.998C108.51 362.58 103.672 361.161 98.5853 359.576C82.99 354.737 63.4752 348.73 53.3841 340.553C47.463 335.797 42.2924 330.124 38.5395 325.702C18.1073 302.174 6.01475 279.479 1.34453 256.285C-3.74268 230.671 5.93136 198.882 24.8625 178.941L25.4462 178.357L26.1968 178.691C35.8708 182.362 44.1271 186.284 51.5495 190.622C52.717 191.29 54.8019 192.541 55.3023 194.71C55.9695 197.547 53.6344 199.8 51.9664 201.385L51.7996 201.552C47.1294 206.141 44.1271 213.149 43.5433 221.326C42.9595 229.002 44.2939 236.761 45.4614 243.686C48.7139 262.626 52.3 280.981 60.2227 297.501C68.6458 315.106 96.2502 330.958 111.595 336.799C113.096 337.383 114.848 338.05 115.765 339.635C116.516 340.97 116.432 342.472 116.432 343.473C116.182 349.981 115.431 356.572 114.18 362.997L113.763 364.499ZM25.9466 181.278C7.93288 200.718 -1.24079 231.255 3.67963 255.868C8.18306 278.562 20.1922 300.922 40.2909 324.117C44.0437 328.455 49.0475 333.962 54.8019 338.634C64.5593 346.477 83.7406 352.401 99.169 357.157C103.756 358.575 108.092 359.91 111.762 361.161C112.846 355.321 113.43 349.314 113.68 343.39C113.68 342.389 113.763 341.471 113.347 340.887C112.846 340.053 111.679 339.552 110.511 339.135C94.749 333.128 66.4775 316.858 57.7208 298.586C49.7147 281.816 46.0453 263.21 42.7928 244.103C41.5418 237.095 40.2075 229.085 40.7912 221.159C41.4584 212.398 44.7109 204.806 49.7981 199.8L49.9649 199.633C51.3826 198.298 52.9672 196.796 52.6336 195.295C52.3834 194.293 51.2158 193.459 50.0483 192.791C43.0429 188.536 35.2871 184.865 25.9466 181.278Z" fill="black"/>
<path d="M188.57 338.718C187.569 335.631 186.068 332.293 183.066 331.125C181.898 330.708 180.397 330.708 179.647 331.709C178.562 332.961 179.313 334.963 180.23 336.298C181.398 337.884 182.816 339.219 184.484 340.303C182.482 340.22 180.397 340.22 178.396 340.136C175.894 340.053 173.308 340.053 170.89 340.72C168.471 341.388 166.136 342.89 165.052 345.142C164.385 346.561 164.218 348.313 164.468 349.898C164.802 352.234 165.803 354.487 167.304 356.322C169.472 358.909 172.641 360.411 175.894 361.245C179.146 361.996 182.565 362.079 185.901 361.996C187.986 361.996 190.071 361.913 192.073 361.495C192.406 361.412 192.74 361.329 192.99 361.078C193.24 360.828 193.24 360.494 193.324 360.16C194.158 353.235 193.073 346.144 190.154 339.803" fill="white"/>
<path d="M183.983 363.164C181.315 363.164 178.396 362.997 175.477 362.33C172.808 361.662 168.972 360.244 166.22 356.99C164.552 354.987 163.384 352.484 163.051 349.898C162.801 347.896 163.051 345.977 163.801 344.475C164.969 342.055 167.387 340.22 170.473 339.385C173.058 338.634 175.727 338.718 178.312 338.801L180.814 338.885C180.231 338.301 179.647 337.633 179.146 336.966C177.895 335.214 177.061 332.627 178.646 330.875C179.73 329.624 181.565 329.29 183.483 329.957C187.069 331.292 188.737 335.13 189.738 338.301L187.319 339.052C186.485 336.382 185.151 333.211 182.566 332.293C181.815 332.043 180.898 332.043 180.481 332.46C179.897 333.128 180.397 334.463 181.148 335.464C182.232 336.882 183.566 338.217 185.068 339.135L188.82 341.555L178.229 341.304C175.81 341.221 173.392 341.221 171.057 341.805C168.722 342.472 166.887 343.807 166.053 345.559C165.553 346.644 165.386 348.062 165.553 349.564C165.803 351.65 166.72 353.736 168.138 355.321C170.473 357.991 173.726 359.243 176.061 359.827C179.313 360.578 182.732 360.661 185.735 360.578C187.569 360.578 189.738 360.494 191.739 360.077C191.823 360.077 191.906 360.077 191.906 360.077C191.906 359.994 191.906 359.91 191.906 359.91C192.74 353.235 191.656 346.31 188.82 340.22L191.072 339.135C194.074 345.643 195.242 353.068 194.408 360.16C194.325 360.494 194.241 361.245 193.741 361.746C193.24 362.33 192.49 362.413 192.156 362.497C189.905 362.914 187.653 362.997 185.735 362.997C185.234 363.164 184.567 363.164 183.983 363.164Z" fill="black"/>
<path d="M276.137 179.776C294.234 198.882 304.409 230.253 299.322 256.035C294.151 281.816 279.64 304.927 262.46 324.868C257.957 330.124 253.12 335.213 247.782 339.552C234.605 350.232 205.083 357.157 189.071 362.747C187.82 356.322 187.069 349.898 186.819 343.39C186.736 342.305 186.736 341.137 187.319 340.22C188.07 338.968 189.488 338.384 190.905 337.883C208.419 331.209 234.856 314.856 242.945 297.918C251.035 280.981 254.621 262.292 257.79 243.77C259.124 236.261 260.375 228.668 259.708 221.076C259.041 213.483 256.455 205.807 251.035 200.468C249.367 198.882 247.365 196.963 247.866 194.794C248.199 193.292 249.7 192.291 251.035 191.54C259.041 186.868 267.38 183.113 276.137 179.776Z" fill="white"/>
<path d="M187.986 364.499L187.736 363.08C186.485 356.656 185.735 350.065 185.484 343.557C185.484 342.556 185.401 340.97 186.152 339.719C187.069 338.134 188.904 337.383 190.321 336.882C205.75 331.042 233.354 315.189 241.777 297.585C249.7 281.065 253.286 262.709 256.539 243.77C257.706 236.845 259.041 229.085 258.457 221.409C257.79 213.233 254.871 206.224 250.2 201.636L250.034 201.469C248.366 199.883 246.031 197.631 246.698 194.794C247.198 192.625 249.283 191.373 250.451 190.706C257.79 186.367 266.129 182.446 275.803 178.775L276.554 178.441L277.138 179.025C296.069 198.966 305.743 230.837 300.656 256.368C296.069 279.479 283.893 302.174 263.461 325.785C259.624 330.207 254.537 335.881 248.616 340.637C238.525 348.813 219.01 354.82 203.415 359.66C198.328 361.245 193.491 362.747 189.571 364.082L187.986 364.499ZM275.803 181.278C266.463 184.865 258.79 188.536 251.618 192.708C250.534 193.376 249.283 194.126 249.033 195.211C248.699 196.63 250.284 198.215 251.702 199.55L251.868 199.717C257.039 204.723 260.208 212.315 260.875 221.076C261.459 229.085 260.125 237.012 258.874 244.02C255.538 263.126 251.952 281.732 243.946 298.502C235.189 316.774 206.917 333.128 191.155 339.051C189.904 339.552 188.737 339.969 188.237 340.803C187.903 341.471 187.903 342.305 187.903 343.306C188.153 349.23 188.82 355.238 189.821 361.078C193.491 359.826 197.827 358.491 202.414 357.073C217.842 352.317 237.024 346.394 246.781 338.551C252.536 333.878 257.623 328.372 261.292 324.033C281.391 300.839 293.4 278.478 297.904 255.784C302.991 231.255 293.817 200.718 275.803 181.278Z" fill="black"/>
<path d="M45.3779 101.765C49.4644 120.12 60.1392 139.06 69.8967 155.079C71.9816 158.5 74.0665 161.837 76.6518 164.841C79.4873 168.011 82.8232 170.681 86.4092 173.101C114.347 191.957 151.876 192.791 183.316 180.693C190.238 178.023 196.994 174.686 202.748 169.93C210.42 163.506 208.085 167.344 218.01 150.657C223.347 141.73 227.934 132.302 230.185 122.123C231.687 115.281 232.104 108.273 232.437 101.348C233.104 89.8337 233.688 78.3198 234.355 66.8059C234.606 62.3839 234.772 57.6281 232.437 53.8736C229.852 49.7019 224.848 47.7829 220.094 46.6149C209.67 44.0284 198.912 43.5278 188.237 43.1106C177.562 42.6935 166.804 42.1929 156.296 43.7781C145.371 45.3634 134.863 49.1179 124.605 53.0393C109.01 58.8797 93.4979 65.2206 78.1529 71.8119C70.4804 75.1493 62.7245 78.6535 56.3863 84.2436C50.0482 89.8337 45.0444 93.4214 45.3779 101.765Z" fill="white"/>
<path d="M140.784 190.038C120.602 190.038 101.254 184.698 85.742 174.186C81.4887 171.349 78.3196 168.596 75.7343 165.676C73.0656 162.588 70.8973 159.084 68.8124 155.747C58.8881 139.561 48.2134 120.538 44.1269 102.015V101.765C43.7933 93.4217 48.2967 89.5003 53.9677 84.5777C54.4681 84.1605 54.9685 83.7433 55.4689 83.3262C61.7236 77.8195 69.1459 74.3153 77.569 70.7276C92.8307 64.0529 108.426 57.7119 124.021 51.8716C134.612 47.9502 144.954 44.1956 156.046 42.6104C166.72 41.0251 177.645 41.5257 188.237 41.9429C198.828 42.3601 209.837 42.8607 220.345 45.5306C224.514 46.6152 230.435 48.5342 233.438 53.3734C235.856 57.2948 235.856 61.8836 235.523 67.0565L233.605 101.598C233.188 108.523 232.854 115.699 231.269 122.624C229.351 131.468 225.432 140.645 218.927 151.492L218.426 152.41C210.921 165.091 210.754 165.342 206.834 168.429C206 169.096 204.916 169.931 203.498 171.099C198.494 175.354 192.24 178.775 183.733 182.029C169.723 187.368 155.045 190.038 140.784 190.038ZM46.6288 101.598C50.7153 119.787 61.2233 138.476 70.9807 154.495C72.9822 157.749 75.0672 161.17 77.6525 164.09C80.071 166.844 83.0732 169.43 87.1597 172.1C113.013 189.538 149.624 192.374 182.899 179.526C191.072 176.355 197.16 173.018 201.914 169.013C203.332 167.845 204.416 166.927 205.333 166.26C208.919 163.423 208.919 163.423 216.341 150.991L216.842 150.073C223.18 139.477 227.016 130.466 228.851 121.956C230.352 115.198 230.769 108.19 231.103 101.348L233.021 66.8062C233.271 62.0505 233.354 57.8788 231.269 54.5414C228.768 50.5366 223.764 48.8679 219.677 47.8667C209.336 45.2803 198.494 44.8631 188.07 44.3625C177.645 43.9453 166.804 43.4447 156.379 45.03C145.537 46.6152 135.363 50.2863 124.938 54.2077C109.427 60.0481 93.8314 66.3891 78.5698 72.9804C70.3969 76.568 63.1414 79.9054 57.1368 85.1617C56.6364 85.5789 56.136 85.9961 55.6357 86.4967C50.1315 91.4193 46.3786 94.5898 46.6288 101.598Z" fill="black"/>
<path d="M93.4144 123.291C89.8284 123.291 86.3257 123.208 82.7396 122.957L82.9064 120.454C96.6669 121.289 110.511 120.454 124.105 118.202L124.522 120.705C114.264 122.373 103.839 123.291 93.4144 123.291Z" fill="black"/>
<path d="M170.723 114.28V111.777C183.9 111.61 197.327 110.943 210.42 109.775L210.67 112.278C197.41 113.446 183.983 114.113 170.723 114.28Z" fill="black"/>
<path d="M154.211 144.233L147.706 144.15V142.898C147.622 134.722 147.038 126.462 145.954 118.369L148.456 118.035C149.457 125.794 150.041 133.721 150.208 141.647H154.211V144.233Z" fill="black"/>
<path d="M155.378 167.928C153.21 167.928 150.875 167.761 148.373 167.428L148.707 164.925C154.378 165.759 159.048 165.592 163.385 164.424L164.052 166.844C161.383 167.511 158.548 167.928 155.378 167.928Z" fill="black"/>
<path d="M70.4802 111.11C68.6455 126.211 71.6478 140.979 73.3157 156.164C74.9836 171.349 75.7342 187.035 70.5636 201.302C65.393 215.569 52.8835 228.084 38.0388 228.668C34.703 228.835 31.2837 228.335 28.4482 226.582C25.3625 224.663 23.361 221.493 21.6097 218.239C4.01291 186.284 5.09709 147.32 8.18278 110.859C9.35033 97.3432 10.7681 83.7434 15.5217 71.1449C24.7787 46.5319 46.2117 28.1764 69.8965 17.7471C93.6646 7.40129 119.684 4.14736 145.454 2.39525C182.983 -0.191206 222.679 0.810008 255.288 19.9998C262.126 24.0047 268.715 28.9273 273.301 35.4351C276.471 39.9406 278.722 45.03 280.557 50.2864C288.73 72.8136 290.815 97.1763 290.731 121.289C290.648 134.722 289.814 148.405 285.311 161.003C281.808 170.682 277.054 193.626 268.965 199.633C266.463 201.469 263.794 202.971 260.959 204.139C258.123 205.307 255.121 206.141 252.035 205.891C247.949 205.641 244.196 203.555 241.194 200.718C240.86 200.384 240.443 200.05 240.109 199.633C231.269 190.122 219.51 163.339 219.927 150.157C220.761 125.711 226.099 105.687 232.02 82.0747C186.152 107.606 140.45 107.606 88.4939 113.029C81.989 113.696 76.8184 113.112 70.4802 111.11Z" fill="black"/>
<path d="M37.0382 229.92C33.3687 229.92 30.283 229.169 27.8645 227.583C24.612 225.498 22.4437 222.16 20.609 218.823C2.34505 185.7 4.013 145.651 7.01529 110.692C8.18284 96.7589 9.68401 83.2426 14.4376 70.6441C23.0275 47.7832 43.1262 28.0927 69.4796 16.5788C94.0817 5.81585 121.686 2.72879 145.454 1.06011C181.065 -1.35948 222.096 -1.19261 256.038 18.8316C264.462 23.7542 270.299 28.8436 274.469 34.684C278.055 39.6901 280.307 45.447 281.891 49.7856C289.064 69.5594 292.316 92.2535 292.149 121.205C292.066 134.304 291.315 148.321 286.645 161.337C285.811 163.673 284.894 166.677 283.893 170.181C280.557 181.528 276.387 195.712 269.882 200.467C267.297 202.386 264.462 203.972 261.626 205.14C258.123 206.558 255.038 207.142 252.119 206.975C248.116 206.725 243.946 204.723 240.443 201.469C240.026 201.135 239.693 200.718 239.359 200.384C230.436 190.789 218.426 163.673 218.843 150.073C219.594 126.795 224.431 107.605 230.019 85.4119L230.269 84.4941C192.407 104.852 154.044 108.273 113.43 111.86C105.424 112.611 97.1673 113.362 88.7443 114.197C82.4895 114.864 77.4023 114.447 71.6479 112.695C70.5637 123.875 71.9815 134.721 73.4826 146.152C73.8996 149.322 74.3166 152.66 74.7336 155.997C76.4015 171.099 77.2355 187.118 71.8981 201.719C66.9776 215.235 54.6349 229.252 38.2057 229.92C37.7888 229.92 37.3718 229.92 37.0382 229.92ZM173.225 2.56193C163.801 2.56193 154.544 2.97909 145.538 3.64656C122.02 5.23181 94.6654 8.31887 70.3969 18.915C44.6273 30.1786 25.029 49.3684 16.6893 71.5619C12.0191 83.8267 10.6014 97.2595 9.43382 110.943C6.51493 145.484 4.84696 185.116 22.6939 217.655C24.3618 220.658 26.28 223.745 29.1155 225.498C31.3672 226.916 34.3695 227.583 37.9555 227.417C53.2172 226.749 64.7259 213.65 69.3962 200.885C74.5668 186.701 73.7328 171.099 72.0649 156.247C71.7313 152.993 71.2309 149.656 70.8139 146.486C69.3128 134.888 67.7282 122.957 69.146 110.943L69.3128 109.441L70.7305 109.941C76.9019 111.944 81.8223 112.445 88.2439 111.777C96.667 110.859 104.923 110.192 112.929 109.441C154.127 105.77 193.074 102.266 231.27 80.9899L233.771 79.5715L232.104 86.0794C226.516 108.189 221.762 127.212 221.012 150.24C220.595 163.006 232.27 189.621 240.86 198.799C241.194 199.132 241.527 199.466 241.861 199.8C244.947 202.72 248.533 204.389 251.952 204.639C254.454 204.806 257.206 204.222 260.292 202.97C262.96 201.886 265.546 200.384 268.048 198.632C273.802 194.377 278.055 180.109 281.141 169.597C282.225 166.009 283.059 162.922 283.976 160.586C288.563 147.821 289.314 134.137 289.397 121.289C289.564 92.6706 286.395 70.3103 279.306 50.7868C277.805 46.5316 275.553 41.025 272.217 36.2693C268.298 30.7626 262.627 25.9234 254.537 21.1677C229.852 6.31645 200.996 2.56193 173.225 2.56193Z" fill="black"/>
</svg>
