<svg xmlns="http://www.w3.org/2000/svg" viewBox="0 0 572 572"><defs><style>.cls-1{fill:#1c4a9f;}.cls-2{fill:#fbcd27;}</style></defs><title>cat-back</title><g id="Layer_4" data-name="Layer 4"><circle class="cls-1" cx="286" cy="286" r="286"/></g><g id="Layer_3" data-name="Layer 3"><path class="cls-2" d="M227.14,79.08c-11.21,1.37-19.28,11.71-23.23,22.29s-5.12,22.08-9.64,32.43c-3.84,8.8-10,16.42-14.36,24.95-5.78,11.2-8.52,23.68-11,36q-8.25,41.6-13.17,83.76c-2.38,20.5-4.34,41.64-13.79,60-4.7,9.14-11.17,17.38-14.88,27-5.48,14.18-4.43,29.94-3.13,45.09,1.23,14.25,2.8,29.1,10.5,41.16,5.2,8.14,12.87,14.42,20.91,19.78,40.11,26.73,90.82,33,138.88,29.28,34.53-2.64,71.48-11.6,93.43-38.38,3.85-4.7,7.31-10,12.58-13,4.84-2.77,10.59-3.27,16.13-3.88,29.23-3.19,59.94-12.26,78.4-35.14,7.12-8.81,12-21.57,6.15-31.26-5.33-8.8-17.55-11.09-27.48-8.4s-18.29,9.17-26.94,14.73-18.52,10.48-28.75,9.4q-8.08-129.39-5.3-259.13c.19-8.88.36-18.07-3.1-26.24s-11.66-15.06-20.48-14c-16.14,1.88-19.57,25-33.29,33.72-8.46,5.36-19.37,4.28-29.21,2.47a273.43,273.43,0,0,1-72.86-24.38c-7.62-3.82-15.74-8.82-18-17C234.33,86,233.43,78.36,229,78.77Z" transform="translate(-14 -14)"/><path d="M226.34,76.19c-13,2-21.41,13.56-25.62,25.22-2.93,8.12-4.26,16.7-6.87,24.92-2.56,8.07-6.94,15-11.4,22.13C173.23,163.19,169,179,165.67,195.93q-5.43,27.57-9.38,55.41c-2.49,17.58-3.88,35.35-6.86,52.85A129.92,129.92,0,0,1,143,328.9c-3.05,7.91-7.54,14.94-11.89,22.17-8.57,14.27-11.7,28.84-11.11,45.42.56,15.56,1.4,32.67,7.13,47.31,5.49,14,16.43,23.73,28.82,31.69a171.46,171.46,0,0,0,42.3,19.38c30.37,9.36,62.75,11.31,94.31,9.06,27.79-2,57.18-7.44,80.36-23.85a86.91,86.91,0,0,0,15.42-13.81c5.16-5.95,9.32-13.43,17.28-15.92,7.06-2.21,14.89-2.19,22.18-3.36a165.56,165.56,0,0,0,21.79-5c13.27-4,26-10,36.74-18.88,10.2-8.39,20.54-20.84,20.19-34.82-.32-13.06-11.3-21.07-23.63-21.64-15.77-.73-28.13,10.39-40.82,18-7.48,4.48-15.44,7.81-24.31,7.16l3,3q-7.48-120.44-5.63-241.19c.25-15.95,3.87-36.7-6-50.62-7.14-10.12-20.46-14.3-30.78-6.31-9.22,7.14-12.56,19.24-20.93,27.14-12.76,12-35.25,4.34-50,.48-19.46-5.09-39.39-12-56.89-22.07-3.81-2.2-7.7-4.83-10.18-8.56-2.08-3.13-2.41-6.68-3.51-10.18-1.76-5.59-4.66-8.32-10.57-7.35-3.8.62-2.19,6.4,1.59,5.78s4.75,10.06,6.28,13c3,5.74,8.48,9.75,14,12.85,14.69,8.26,31,14.41,47.09,19.32q12.29,3.75,24.89,6.33c7.48,1.54,15.24,3.1,22.91,2.52,13.24-1,20.9-9.11,27.65-19.69,6-9.4,14.61-23.91,27.72-15.47,15.23,9.78,11,33.58,10.74,48.84q-1,57.83.2,115.67,1.33,64.8,5.37,129.51a3.1,3.1,0,0,0,3,3c15.22,1.12,27.49-8.16,39.61-16C468,375,484.8,367,495.94,377.68c12.15,11.59-1.26,29.76-10.46,38.27-10.16,9.42-22.87,15.7-36,19.84s-26.27,5.49-39.72,7.55c-6.84,1-12.62,3.63-17.41,8.7-4.51,4.77-8.11,10.26-12.84,14.85-19.73,19.22-48,26.82-74.68,29.91-29.12,3.37-59.25,2.89-88-3.29A182.18,182.18,0,0,1,174.27,479c-12.84-6.37-26.68-14.39-35.39-26.08-9.21-12.37-10.72-28.29-12-43.17-1.35-15.92-2.34-32.61,4.85-47.39,3.25-6.68,7.57-12.77,11.2-19.25A97.89,97.89,0,0,0,151.32,323c4.37-14.77,5.78-30.21,7.57-45.44Q162,251,166.48,224.68c2.74-16.16,5.27-32.65,9.84-48.41a92,92,0,0,1,10-22.62c3.76-6.13,7.86-12.07,10.73-18.69,5.93-13.69,6-29.78,14.77-42.26C215.71,87.11,221.1,83,227.93,82,231.74,81.37,230.12,75.59,226.34,76.19Z" transform="translate(-14 -14)"/><path class="cls-2" d="M286.42,196.19c-2.5-.4-4.19-1.06-6.69-.61s-5,1.92-5.9,4.27a3.7,3.7,0,0,0-.11,2.77,5.32,5.32,0,0,0,2.43,2.25c2.38,1.41,4.87,2.81,7.62,3.17s5.84-.57,7.28-2.93a3.53,3.53,0,0,0,.55-2.53,4.38,4.38,0,0,0-1.46-2.17,15.32,15.32,0,0,0-2.73-2Z" transform="translate(-14 -14)"/><path d="M287.22,193.3c-5.76-1-12.54-1.42-15.77,4.62-3.34,6.26,3.08,10.09,8.12,12.05s12,1.4,14.46-4.15a6.33,6.33,0,0,0-1.46-7.21,15.07,15.07,0,0,0-1.47-1.29c-.29-.23-1.75-1.24-1.17-.59a8.45,8.45,0,0,1-.92-2c-1.58-3.52-6.75-.47-5.18,3A8.09,8.09,0,0,0,285.9,201c1.29,1.12,3.53,1.67,1.72,3.41-.86.81-2.51.74-3.57.61-1.74-.22-7.8-2.1-7.2-4.49.8-3.21,6.79-1.8,8.77-1.45C289.4,199.77,291,194,287.22,193.3Z" transform="translate(-14 -14)"/><path class="cls-2" d="M281.78,209.1c-1.46,3.94-4.66,7-8.27,9.17A55,55,0,0,1,261.84,223" transform="translate(-14 -14)"/><path d="M278.89,208.31c-3,7.11-11.14,9.62-17.84,11.75-3.67,1.16-2.1,7,1.59,5.79,9.15-2.91,18.1-6.54,22-15.95,1.49-3.56-4.31-5.11-5.78-1.59Z" transform="translate(-14 -14)"/><path class="cls-2" d="M284.13,211.12c1,5.38,2.28,11.13,6.26,14.9,2.32,2.18,5.33,3.46,8.27,4.68" transform="translate(-14 -14)"/><path d="M281.23,211.91c.95,4.84,2.06,9.84,5,13.89s7.18,5.94,11.61,7.79c3.55,1.5,5.1-4.31,1.59-5.78-3.74-1.57-7.21-3.31-9.28-7-1.8-3.19-2.46-7-3.16-10.52-.74-3.79-6.53-2.18-5.79,1.59Z" transform="translate(-14 -14)"/><path class="cls-2" d="M327.25,198.2a88.39,88.39,0,0,1,22.28,3.23" transform="translate(-14 -14)"/><path d="M327.25,201.2a90.76,90.76,0,0,1,21.49,3.12c3.73,1,5.32-4.78,1.59-5.78a97.83,97.83,0,0,0-23.08-3.34c-3.87-.1-3.86,5.9,0,6Z" transform="translate(-14 -14)"/><path class="cls-2" d="M255.66,188.87a57.1,57.1,0,0,0-30.32-8.28" transform="translate(-14 -14)"/><path d="M257.17,186.28a62.51,62.51,0,0,0-31.83-8.69c-3.86,0-3.86,6,0,6a56.26,56.26,0,0,1,28.81,7.87c3.33,2,6.36-3.22,3-5.18Z" transform="translate(-14 -14)"/><path class="cls-2" d="M181.45,412.08c1.74,13.29,6.3,26.06,11.68,38.33,1.33,3,2.91,6.26,5.85,7.8a10.09,10.09,0,0,0,6.09.82c6.69-1,11.78-6.4,15.77-11.86a107.1,107.1,0,0,0,16.42-33.35" transform="translate(-14 -14)"/><path d="M178.56,412.88c1.66,11.82,5.31,23.13,9.88,34.13,3.32,8,7.14,16.66,17.43,14.91,9.36-1.59,15.58-10,20.47-17.41a113,113,0,0,0,13.82-29.89c1.11-3.71-4.68-5.29-5.79-1.6a106.77,106.77,0,0,1-10.5,24.14c-4,6.63-9,15.35-16.62,18.22-10.33,3.88-13.4-10.47-16.05-17.63a128,128,0,0,1-6.86-26.47c-.53-3.8-6.32-2.18-5.78,1.6Z" transform="translate(-14 -14)"/><path class="cls-2" d="M286.31,414.6a198.75,198.75,0,0,0,1.18,45.86,7.91,7.91,0,0,0,1.32,3.94A5.36,5.36,0,0,0,291.3,466c4.44,1.51,9.17-1,13-3.79,4.71-3.41,9.09-7.24,13.44-11.09,6-5.31,12.24-11,14.6-18.7" transform="translate(-14 -14)"/><path d="M283.31,414.6a204.15,204.15,0,0,0,0,35.4c.7,7.83.28,19.61,11,19.47,8.77-.12,16.79-8.55,22.92-13.91,7.35-6.41,14.71-12.86,18-22.32,1.27-3.65-4.53-5.22-5.79-1.59-2.52,7.25-8.23,12.4-13.83,17.36s-11.88,12-19.1,14.06c-6.54,1.87-6.49-5.92-6.93-10.21q-.69-6.67-.93-13.38a206.64,206.64,0,0,1,.68-24.88c.33-3.84-5.67-3.82-6,0Z" transform="translate(-14 -14)"/></g></svg>