<svg width="461" height="461" viewBox="0 0 461 461" fill="none" xmlns="http://www.w3.org/2000/svg">
<circle cx="230.5" cy="230.5" r="230.5" fill="#1C4A9F"/>
<path d="M117.988 290.907C117.49 301.456 117.615 327.831 122.964 337.002C131.796 352.167 145.169 365.714 162.336 370.809C179.566 375.904 209.048 351.448 218.129 336.462" fill="black"/>
<path d="M117.055 290.907C116.557 301.576 116.744 312.486 118.237 323.095C118.859 327.531 119.605 332.087 121.533 336.163C124.146 341.737 128.313 347.012 132.356 351.688C136.772 356.723 141.873 361.338 147.595 364.995C152.509 368.172 158.48 371.289 164.451 372.248C174.59 373.806 185.226 367.872 193.187 362.477C203.139 355.764 212.78 347.132 219.063 337.002C219.685 335.983 218.067 335.084 217.445 336.103C212.158 344.734 204.259 352.107 196.111 358.221C188.087 364.216 177.7 370.929 167.126 370.689C161.466 370.569 155.743 367.692 150.954 364.935C145.356 361.698 140.318 357.562 135.902 352.887C131.299 348.031 127.069 342.457 123.835 336.642C121.782 332.926 120.974 328.55 120.289 324.414C118.61 313.445 118.423 302.056 118.921 291.026C118.983 289.768 117.117 289.768 117.055 290.907Z" fill="black"/>
<path d="M277.655 275.741C278.277 291.446 280.578 325.313 277.406 340.539C276.037 347.192 270.128 353.426 266.023 358.102C260.363 364.515 255.76 366.613 248.048 367.572C238.718 368.771 235.297 369.371 226.215 366.493C217.134 363.616 202.269 356.663 198.537 346.173" fill="black"/>
<path d="M276.97 275.741C277.717 294.923 279.521 314.344 277.717 333.525C277.219 338.8 276.286 343.536 273.301 348.091C270.066 353.066 265.712 358.341 260.923 362.058C256.196 365.714 250.598 366.553 244.813 367.273C238.78 367.992 233.368 367.872 227.522 366.134C216.823 362.957 203.388 356.783 199.221 345.933C198.91 345.154 197.541 345.454 197.852 346.293C201.584 355.944 212.034 361.758 221.426 365.414C232.062 369.61 243.756 370.39 254.765 366.733C260.176 364.935 264.033 361.279 267.64 357.142C271.746 352.527 276.224 347.552 277.841 341.498C280.391 332.027 279.832 321.357 279.707 311.646C279.521 299.658 278.836 287.67 278.339 275.621C278.277 274.902 276.908 274.842 276.97 275.741Z" fill="black"/>
<path d="M163.344 329.86C156.123 328.722 148.721 327.525 142.342 323.931C137.888 321.415 134.217 317.822 130.847 313.929C110.747 290.63 104.188 258.228 105.572 227.563C106.414 208.936 118.21 178.151 130.065 163.657L174.959 160.962L211.729 170.784L246.753 144.012L274.75 163.657C284.499 176.175 289.36 171.988 289.12 187.86C295.668 212.23 294.054 240.2 289.12 257.809C284.185 275.418 275.76 292.307 263.122 305.604C259.692 309.197 255.72 312.671 250.845 313.809C246.934 314.707 241.879 313.33 240.916 309.437C240.194 306.502 242.119 303.567 243.865 301.052C253.072 288.115 263.85 276.628 268.544 261.475C273.238 246.322 271.607 227.503 267.455 212.23C267.455 212.23 284.486 264.577 250.424 283.323" fill="white"/>
<path d="M163.344 329.86C156.123 328.722 148.721 327.525 142.342 323.931C137.888 321.415 134.217 317.822 130.847 313.929C110.747 290.63 104.188 258.228 105.572 227.563C106.414 208.936 118.21 178.151 130.065 163.657L174.959 160.962L211.729 170.784L246.753 144.012L274.75 163.657C284.499 176.175 289.36 171.988 289.12 187.86C295.668 212.23 294.054 240.2 289.12 257.809C284.185 275.418 275.76 292.307 263.122 305.604C259.692 309.197 255.72 312.671 250.845 313.809C246.934 314.707 241.879 313.33 240.916 309.437C240.194 306.502 242.119 303.567 243.865 301.052C253.072 288.115 263.85 276.628 268.544 261.475C273.238 246.322 271.607 227.503 267.455 212.23C267.455 212.23 284.486 264.577 250.424 283.323" stroke="black" stroke-miterlimit="10"/>
<path d="M204.508 187.207C195.675 187.207 186.968 186.008 178.633 183.73C173.843 182.411 169.987 180.913 166.69 179.115C163.705 177.496 160.906 175.398 158.107 172.821C145.045 160.652 139.323 142.25 142.495 122.349L142.619 121.57C142.868 121.33 143.055 121.091 143.303 120.791C144.112 119.892 145.107 118.813 146.04 118.513C162.399 112.819 179.566 108.263 196.982 105.086C204.197 103.767 212.718 102.389 221.364 102.389C223.168 102.389 224.909 102.449 226.651 102.569C237.536 103.288 246.928 106.585 253.024 111.86C254.89 113.478 256.134 114.977 256.756 116.475C257.44 117.974 257.564 119.652 257.689 121.27C258.622 134.458 257.004 159.214 235.421 176.837C230.259 181.093 224.847 183.97 219.374 185.528C215.268 186.667 210.479 187.207 204.632 187.267L204.508 187.207Z" fill="white"/>
<path d="M221.364 103.228C223.168 103.228 224.909 103.288 226.589 103.408C237.287 104.127 246.431 107.364 252.402 112.459C254.143 113.958 255.325 115.396 255.947 116.775C256.569 118.154 256.693 119.712 256.818 121.271C257.564 131.581 256.196 141.831 252.899 150.822C249.167 160.892 243.134 169.404 234.924 176.117C229.823 180.253 224.536 183.131 219.249 184.629C215.268 185.768 210.479 186.308 204.819 186.308H204.632C195.862 186.308 187.279 185.169 179.006 182.831C174.279 181.512 170.485 180.014 167.312 178.275C164.389 176.657 161.652 174.679 158.916 172.101C152.136 165.748 147.346 157.955 144.796 148.844C142.495 140.692 142.122 131.581 143.552 122.409L143.614 121.93C143.801 121.75 143.925 121.57 144.112 121.39C144.858 120.611 145.729 119.592 146.476 119.352C162.772 113.658 179.877 109.162 197.293 105.925C204.321 104.607 212.78 103.228 221.364 103.228ZM221.364 101.43C213.091 101.43 204.881 102.629 196.795 104.127C179.255 107.364 162.15 111.86 145.729 117.614C144.112 118.154 142.806 120.012 141.686 121.091L141.562 122.17C138.701 140.092 142.557 159.573 157.423 173.42C160.035 175.818 162.896 178.036 166.193 179.834C169.925 181.872 174.03 183.37 178.322 184.509C186.719 186.847 195.613 188.046 204.446 188.046C204.508 188.046 204.57 188.046 204.632 188.046C209.733 188.046 214.833 187.626 219.622 186.308C225.905 184.569 231.378 181.213 235.981 177.436C253.894 162.81 260.052 141.351 258.559 121.091C258.435 119.352 258.248 117.614 257.564 115.996C256.756 114.137 255.263 112.519 253.583 111.08C246.804 105.266 236.727 102.269 226.651 101.55C224.909 101.49 223.168 101.43 221.364 101.43Z" fill="black"/>
<path d="M133.414 212.742C124.084 212.742 117.864 203.151 116.185 200.214C102.563 176.417 105.237 150.522 109.84 133.019C114.381 115.636 126.199 93.877 142.246 84.3462C147.844 80.9895 154.562 78.412 163.332 76.0742C175.958 72.7774 189.145 71.099 202.58 71.099C216.202 71.099 229.637 72.8373 242.512 76.254C249.416 78.1122 255.201 80.1503 260.115 82.6079C274.483 89.741 285.057 105.686 292.521 131.401C296.999 146.866 297.061 164.129 292.769 185.648C291.588 191.583 289.535 197.936 283.44 200.514C281.885 201.173 280.205 201.473 278.339 201.473C274.918 201.473 271.311 200.334 268.325 198.356C264.033 195.479 261.234 191.223 258.808 187.087C245.995 165.088 240.522 139.493 243.321 115.037L243.383 114.437L242.823 114.797C228.517 123.608 208.862 126.905 189.767 129.123C187.279 129.423 184.853 129.543 182.427 129.543C171.045 129.543 161.093 126.306 152.945 120.012L152.696 119.832L151.887 120.911L151.265 172.041C151.141 180.373 151.079 189.005 149.026 197.277C148.217 200.574 144.796 211.483 135.031 212.682C134.533 212.682 133.974 212.742 133.414 212.742Z" fill="black"/>
<path d="M202.58 71.3987C216.202 71.3987 229.574 73.1371 242.45 76.5538C249.354 78.412 255.076 80.45 259.99 82.9076C274.234 89.9808 284.808 105.865 292.21 131.521C296.688 146.986 296.75 164.129 292.458 185.648C291.277 191.463 289.286 197.817 283.315 200.274C281.822 200.934 280.143 201.233 278.339 201.233C274.98 201.233 271.435 200.094 268.511 198.176C264.282 195.299 261.483 191.103 259.057 187.027C252.651 176.058 248.11 164.249 245.435 152.021C242.823 139.793 242.201 127.385 243.569 115.156L243.694 113.898L242.574 114.557C228.33 123.368 208.738 126.605 189.642 128.883C187.154 129.183 184.728 129.303 182.365 129.303C171.045 129.303 161.155 126.126 153.069 119.832L152.571 119.412L152.198 119.952L151.638 120.671L151.514 120.851V121.031L151.203 146.566L150.892 172.101C150.767 180.433 150.705 189.005 148.653 197.277C147.844 200.514 144.485 211.244 134.969 212.442C134.409 212.502 133.849 212.562 133.352 212.562C124.208 212.562 118.05 203.091 116.371 200.154C110.773 190.444 107.539 179.414 106.606 167.366C105.797 156.457 106.917 144.948 110.027 133.199C114.692 115.756 126.447 94.0568 142.433 84.586C148.031 81.2892 154.686 78.6517 163.456 76.3739C176.021 73.0771 189.207 71.3987 202.58 71.3987ZM202.58 70.7993C189.269 70.7993 176.021 72.4777 163.27 75.7745C155.806 77.6927 148.528 80.2702 142.059 84.0465C125.639 93.8171 113.883 116.175 109.467 132.899C103.558 155.318 104.055 179.654 115.811 200.274C119.357 206.508 125.577 212.982 133.289 212.982C133.849 212.982 134.409 212.922 135.031 212.862C143.179 211.843 147.595 204.17 149.275 197.217C151.327 188.945 151.389 180.373 151.514 171.922C151.7 154.898 151.949 137.874 152.136 120.851L152.696 120.132C161.155 126.725 171.356 129.722 182.365 129.722C184.791 129.722 187.216 129.602 189.704 129.303C207.867 127.145 228.268 123.908 242.885 114.917C240.024 139.613 245.498 164.968 258.373 187.147C260.861 191.403 263.66 195.599 268.014 198.536C270.875 200.454 274.607 201.713 278.215 201.713C280.018 201.713 281.822 201.413 283.439 200.694C289.659 198.116 291.774 191.463 292.894 185.648C296.501 167.666 297.808 148.964 292.645 131.281C287.545 113.538 278.526 91.4194 260.115 82.3082C254.579 79.5509 248.608 77.5728 242.45 75.9543C229.637 72.5376 216.139 70.7993 202.58 70.7993Z" fill="black"/>
<path d="M124.228 222C122.825 246.16 127.925 270.611 138.952 292.685C142.904 300.623 147.876 308.503 155.589 313.717C158.011 315.339 160.752 316.73 162.218 319.105C163.684 321.481 163.111 325.131 160.306 326" fill="white"/>
<path d="M124.228 222C122.825 246.16 127.925 270.611 138.952 292.685C142.904 300.623 147.876 308.503 155.589 313.717C158.011 315.339 160.752 316.73 162.218 319.105C163.684 321.481 163.111 325.131 160.306 326" stroke="black" stroke-miterlimit="10"/>
<path d="M158.853 335.503C157.982 335.503 157.174 335.443 156.489 335.024C156.116 334.604 155.494 332.446 155.059 324.414C154.997 323.815 154.997 323.335 154.997 323.035C154.126 312.546 153.193 302.176 152.26 291.746C151.389 281.675 150.518 271.605 149.647 261.475C182.613 262.674 208.302 263.153 232.871 263.153C245.062 263.153 256.631 263.033 268.262 262.734C267.889 272.444 266.707 282.275 265.588 291.806L260.923 331.667C260.861 332.326 260.736 332.926 260.425 333.286C260.114 333.585 259.554 333.705 258.995 333.825C255.574 334.484 251.966 334.844 247.799 334.844C242.823 334.844 237.66 334.365 232.684 333.885C228.268 333.465 223.665 333.046 219.125 332.926C217.881 332.926 216.512 332.866 215.206 332.866C205.814 332.866 195.737 333.525 185.91 334.185C177.14 334.724 168.121 335.324 159.351 335.503C159.164 335.503 158.977 335.503 158.853 335.503Z" fill="#FDCE22"/>
<path d="M150.643 262.434C183.111 263.573 208.551 264.112 232.808 264.112C244.626 264.112 255.947 263.993 267.267 263.753C266.832 273.164 265.712 282.635 264.655 291.806L259.99 331.667C259.99 331.907 259.865 332.626 259.741 332.746C259.679 332.806 259.368 332.926 258.808 333.046C255.449 333.705 251.842 334.005 247.799 334.005C242.823 334.005 237.722 333.525 232.808 333.046C228.33 332.626 223.727 332.207 219.187 332.087C217.943 332.087 216.574 332.027 215.206 332.027C205.814 332.027 195.675 332.686 185.848 333.345C177.078 333.885 168.059 334.484 159.351 334.664C159.164 334.664 158.977 334.664 158.853 334.664C158.293 334.664 157.671 334.664 157.236 334.484C156.863 333.705 156.427 331.307 156.054 324.474C155.992 323.815 155.992 323.335 155.992 323.095C155.121 312.606 154.188 302.056 153.255 291.806C152.322 282.095 151.451 272.205 150.643 262.434ZM148.59 260.516C150.394 281.436 152.26 302.176 154.001 323.095C154.126 324.834 154.437 334.844 155.93 335.743C156.738 336.283 157.796 336.343 158.791 336.343C158.977 336.343 159.164 336.343 159.351 336.343C177.948 336.043 197.541 333.765 215.144 333.765C216.45 333.765 217.756 333.765 219.062 333.825C228.641 334.005 238.282 335.683 247.736 335.683C251.531 335.683 255.325 335.384 259.119 334.664C259.803 334.544 260.55 334.365 260.985 333.885C261.545 333.345 261.669 332.506 261.731 331.727C263.286 318.42 264.841 305.173 266.396 291.866C267.578 281.855 268.76 271.845 269.071 261.775C256.818 262.074 244.689 262.194 232.684 262.194C204.819 262.254 177.202 261.595 148.59 260.516Z" fill="black"/>
<path d="M207.493 302.296C208.488 301.516 210.043 300.257 211.287 299.838C211.661 299.718 212.034 299.598 212.407 299.658C213.278 299.778 213.775 300.677 213.9 301.456C214.086 302.715 213.651 304.034 212.967 305.173C212.283 306.252 211.287 307.211 210.23 308.05C209.359 308.769 208.551 309.429 207.618 310.028C207.369 310.208 207.12 310.388 206.809 310.388C206.498 310.388 206.187 310.148 206 309.968C204.508 308.589 202.953 307.271 201.771 305.652C200.589 304.034 199.718 302.116 199.78 300.078C199.78 299.838 199.78 299.658 199.905 299.478C200.029 299.179 200.34 299.059 200.651 298.939C201.833 298.399 203.264 297.86 204.383 298.519C204.756 298.759 205.005 299.119 205.316 299.418C206 300.257 206.685 301.157 207.369 301.996L207.493 302.296Z" fill="white" stroke="black" stroke-width="3" stroke-miterlimit="10"/>
<path d="M163.394 137.095C171.044 138.234 178.757 139.073 186.532 139.553C187.714 139.613 187.714 137.815 186.532 137.755C178.944 137.275 171.418 136.496 163.891 135.357C162.71 135.237 162.212 136.915 163.394 137.095Z" fill="black"/>
<path d="M208.426 139.133C212.656 139.253 216.761 138.414 220.929 137.994C225.158 137.515 229.45 137.335 233.742 137.155C234.923 137.095 234.923 135.297 233.742 135.357C229.45 135.537 225.22 135.717 220.929 136.196C216.761 136.676 212.656 137.455 208.426 137.335C207.245 137.275 207.245 139.073 208.426 139.133Z" fill="black"/>
<path d="M196.919 142.55C196.919 146.146 196.857 149.803 196.919 153.399C196.919 155.078 196.857 156.636 198.723 157.176C199.843 157.535 200.34 155.797 199.221 155.437C198.163 155.078 198.785 149.983 198.785 149.024C198.785 146.866 198.785 144.648 198.785 142.49C198.785 141.351 196.919 141.351 196.919 142.55Z" fill="black"/>
<path d="M194.867 170.123C198.039 170.363 201.211 170.423 204.321 170.243C205.503 170.183 205.503 168.385 204.321 168.445C201.149 168.565 197.977 168.565 194.867 168.325C193.685 168.205 193.685 170.003 194.867 170.123Z" fill="black"/>
<path d="M347.548 363.116C353.208 365.818 360.223 365.844 366.766 365.021C373.304 364.152 379.706 362.448 386.271 361.859C387.098 361.778 387.93 361.745 388.674 361.955C389.647 362.238 390.326 362.926 390.95 363.619C392.004 364.741 393.192 366.086 393.002 367.565C392.802 368.95 391.514 370.017 390.204 370.851C386.479 373.19 381.98 374.427 377.413 374.964C372.901 375.496 368.326 375.374 363.751 375.252C357.278 375.079 350.696 374.917 344.446 373.591" fill="#FBCD27"/>
<path d="M347.166 363.766C353.161 366.482 360.125 366.56 366.834 365.721C370.955 365.181 375.045 364.313 379.148 363.585C381.174 363.248 383.256 362.905 385.351 362.701C386.895 362.552 388.154 362.336 389.466 363.245C390.122 363.699 390.939 364.656 391.388 365.272C394.473 369.542 386.288 372.361 382.597 373.331C378.526 374.385 374.267 374.657 370.096 374.684C361.643 374.75 352.888 374.563 344.718 372.953C343.698 372.769 343.388 374.165 344.408 374.349C349.4 375.325 354.498 375.678 359.638 375.887C364.553 376.07 369.528 376.294 374.453 376.005C378.602 375.744 382.82 375.052 386.626 373.553C389.361 372.487 393.461 370.582 393.906 367.713C394.236 365.373 391.645 362.185 389.175 361.389C387.683 360.921 385.822 361.243 384.227 361.444C381.806 361.726 379.398 362.148 377.05 362.611C367.428 364.392 357.071 366.621 347.995 362.555C346.944 362.044 346.234 363.338 347.166 363.766Z" fill="black"/>
<path d="M308.405 343.218C310.889 338.529 310.421 332.435 307.279 328.168C305.31 325.543 302.544 323.621 299.731 321.886C295.512 319.214 291.011 316.682 286.041 316.448C279.15 316.166 272.445 321.136 270.664 327.793C270.148 329.809 270.007 331.872 269.867 333.935C269.726 336.513 269.585 339.045 269.773 341.624C270.101 345.327 271.226 349.031 270.945 352.735C270.57 358.455 267.007 363.471 265.694 369.05C265.46 370.082 265.319 371.207 265.694 372.191C266.116 373.27 267.101 374.067 268.085 374.629C270.711 376.176 273.711 376.973 276.712 377.489C281.212 378.239 285.76 378.474 290.308 378.661C307.467 379.364 324.626 379.974 341.832 380.396C343.661 380.443 345.489 380.49 347.224 379.927C351.818 378.474 354.303 373.223 354.35 368.394C354.397 362.768 351.818 357.142 347.505 353.532C342.207 349.078 334.94 347.859 328.002 347.25C321.11 346.64 313.937 346.406 307.701 343.405" fill="#FBCD27"/>
<path d="M309.014 343.546C312.671 336.185 309.952 328.403 303.576 323.621C297.246 318.885 288.807 313.822 280.65 316.541C277.415 317.62 274.555 319.682 272.539 322.402C269.96 325.824 269.445 329.762 269.163 333.935C269.023 336.326 268.882 338.764 269.07 341.202C269.257 343.921 269.914 346.593 270.195 349.312C270.711 354.235 268.976 358.455 267.101 362.955C265.835 366.05 263.303 370.879 265.975 373.832C268.695 376.927 274.133 377.77 277.931 378.38C288.479 379.927 299.403 379.74 310.045 380.115C320.922 380.49 331.799 381.005 342.676 381.099C346.473 381.146 349.802 380.302 352.193 377.208C354.209 374.629 355.147 371.254 355.1 368.019C355.006 358.736 348.536 351.516 340.004 348.703C329.642 345.281 318.156 347.39 308.076 342.796C307.279 342.421 306.529 343.64 307.373 344.015C314.499 347.25 322.235 347.296 329.924 348.14C337.8 348.984 346.286 351.188 350.787 358.314C354.49 364.174 355.569 374.864 348.349 378.755C344.692 380.724 339.253 379.646 335.315 379.552C330.627 379.411 325.939 379.271 321.25 379.13C312.202 378.849 303.154 378.521 294.105 378.145C289.511 377.958 284.916 377.864 280.368 377.349C276.243 376.88 270.617 376.27 267.429 373.317C264.241 370.41 268.554 363.33 269.82 360.096C271.179 356.579 271.976 353.157 271.601 349.359C271.179 345.046 270.289 340.92 270.429 336.56C270.617 332.341 270.664 327.934 273.008 324.277C275.211 320.808 278.915 318.229 282.947 317.432C287.682 316.494 292.324 318.37 296.356 320.667C300.2 322.87 304.607 325.355 307.092 329.153C309.764 333.232 309.952 338.529 307.795 342.89C307.373 343.687 308.592 344.39 309.014 343.546Z" fill="black"/>
<path d="M266.913 364.831C264.428 364.456 259.646 365.253 257.536 366.612C256.786 367.128 256.036 367.737 255.52 368.488C255.005 369.238 254.77 370.222 254.958 371.113C255.333 372.707 257.021 373.598 258.615 374.067C260.912 374.723 265.459 374.536 267.804 374.207" fill="#FBCD27"/>
<path d="M266.913 364.127C262.928 363.659 253.739 365.065 254.255 370.785C254.77 376.364 264.288 375.379 267.851 374.911C268.742 374.77 268.742 373.363 267.851 373.504C264.803 373.926 257.443 374.957 255.989 371.301C254.114 366.331 263.866 365.206 266.913 365.534C267.851 365.675 267.804 364.268 266.913 364.127Z" fill="black"/>
<path d="M267.71 373.551C268.882 371.254 271.93 370.832 274.508 370.738C277.04 370.644 279.525 370.504 282.056 370.41C283.65 370.363 285.291 370.269 286.932 370.363C291.386 370.597 295.699 371.863 299.825 373.551C300.903 373.973 302.029 374.489 302.779 375.332C303.529 376.176 303.904 377.583 303.247 378.567" fill="#FBCD27"/>
<path d="M268.319 373.926C269.914 371.301 273.524 371.488 276.196 371.394C279.103 371.254 282.009 371.066 284.869 371.066C287.588 371.019 304.935 373.176 302.591 378.239C302.216 379.036 303.435 379.786 303.81 378.942C305.029 376.27 303.013 374.254 300.669 373.176C296.731 371.394 292.417 370.128 288.104 369.753C283.603 369.331 278.962 369.8 274.461 370.035C271.648 370.175 268.648 370.597 267.054 373.176C266.632 373.973 267.851 374.676 268.319 373.926Z" fill="black"/>
<path d="M294.808 327.934C295.418 329.012 296.261 329.903 297.246 330.606Z" fill="#FCEE21"/>
<path d="M294.199 328.309C294.902 329.481 295.793 330.465 296.918 331.216C297.668 331.731 298.372 330.512 297.621 329.997C296.731 329.34 295.981 328.543 295.418 327.559C294.949 326.809 293.73 327.512 294.199 328.309Z" fill="black"/>
<path d="M278.728 323.246C279.806 323.105 280.837 323.058 281.916 323.152Z" fill="#FCEE21"/>
<path d="M278.915 323.902C279.899 323.761 280.931 323.761 281.915 323.808C282.806 323.855 282.806 322.449 281.915 322.402C280.79 322.308 279.665 322.355 278.54 322.542C277.649 322.683 278.024 324.043 278.915 323.902Z" fill="black"/>
<path d="M283.9 326.545C284.322 326.591 284.744 326.638 285.166 326.732Z" fill="#FCEE21"/>
<path d="M283.901 327.248C284.322 327.295 284.744 327.342 285.166 327.435C285.541 327.482 285.87 327.06 285.87 326.732C285.87 326.31 285.541 326.076 285.166 326.029C284.744 325.982 284.322 325.935 283.901 325.841C283.525 325.794 283.197 326.216 283.197 326.545C283.197 326.966 283.525 327.201 283.901 327.248Z" fill="black"/>
<path d="M284.869 326.809C284.776 327.277 284.682 327.746 284.776 328.215C284.869 328.684 285.291 329.106 285.76 329.059" fill="#FCEE21"/>
<path d="M284.213 326.621C284.072 327.324 283.931 328.028 284.26 328.731C284.541 329.34 285.103 329.762 285.807 329.762C286.697 329.809 286.697 328.403 285.807 328.356C285.244 328.356 285.525 327.231 285.619 326.996C285.76 326.105 284.4 325.73 284.213 326.621Z" fill="black"/>
<path d="M284.776 326.762C284.635 327.324 284.119 327.746 283.51 327.887C282.947 328.028 282.338 327.934 281.775 327.887" fill="#FCEE21"/>
<path d="M284.072 326.574C283.838 327.418 282.619 327.277 281.963 327.184C281.587 327.137 281.212 327.277 281.119 327.653C281.025 327.981 281.212 328.45 281.587 328.496C283.088 328.684 284.916 328.637 285.432 326.902C285.713 326.105 284.354 325.73 284.072 326.574Z" fill="black"/>
<path d="M281.635 317.057C281.213 315.697 279.666 315.088 278.259 314.807C276.759 314.525 275.212 314.385 273.665 314.432C273.243 314.432 272.727 314.572 272.633 314.947C272.586 315.135 272.633 315.322 272.727 315.51C273.196 316.823 273.805 318.088 274.508 319.307" fill="#FBCD27"/>
<path d="M282.291 316.869C281.072 313.916 277.04 313.728 274.321 313.775C273.43 313.775 272.164 313.822 271.93 314.9C271.648 316.26 273.242 318.651 273.852 319.729C274.321 320.526 275.54 319.823 275.071 319.026C274.602 318.182 274.133 317.338 273.758 316.448C273.617 316.119 273.289 315.604 273.477 315.322C273.664 315.088 274.696 315.229 274.93 315.229C276.665 315.275 280.087 315.322 280.884 317.291C281.259 318.088 282.619 317.713 282.291 316.869Z" fill="black"/>
<path d="M303.575 324.371C303.951 323.292 305.216 322.777 306.342 322.683C307.842 322.542 309.389 322.824 310.702 323.48C311.17 323.714 311.639 323.996 311.78 324.511C312.061 325.262 311.546 326.059 310.983 326.668C310.186 327.559 309.342 328.403 308.404 329.2" fill="#FBCD27"/>
<path d="M304.138 324.746C305.076 322.73 308.217 323.292 309.858 323.949C310.514 324.23 310.608 324.183 310.795 324.933C310.983 325.777 310.608 326.059 310.092 326.621C309.436 327.371 308.686 328.028 307.935 328.684C307.232 329.293 308.264 330.278 308.92 329.669C310.748 328.121 314.593 324.793 311.03 322.917C308.733 321.698 304.279 321.183 302.966 324.043C302.591 324.84 303.763 325.543 304.138 324.746Z" fill="black"/>
</svg>
