<svg width="41" height="30" viewBox="0 0 41 30" fill="none" xmlns="http://www.w3.org/2000/svg">
<path d="M23.3532 3.63178C23.0763 2.38931 22.6895 1.17393 22.1972 0H18.1824C18.7979 1.15253 19.2814 2.37083 19.6238 3.63178C20.0267 5.1094 20.2304 6.63423 20.2294 8.1658C20.2294 16.1994 14.7485 22.979 7.33105 24.9597V28.7013C16.7738 26.6437 23.8612 18.2136 23.8612 8.1658C23.8492 6.64095 23.6789 5.12147 23.3532 3.63178Z" fill="#242424"/>
<path d="M40.4287 11.4789C40.4287 19.4574 35.9605 26.4126 29.3878 29.9674C29.3708 29.9808 29.352 29.9919 29.332 30.0003V25.7412C29.3483 25.7238 29.3671 25.709 29.3878 25.6971C33.8694 22.5499 36.7969 17.3423 36.7969 11.4678C36.7969 11.3005 36.7857 11.1377 36.7857 10.9726C36.7562 10.0305 36.6533 9.09218 36.4779 8.1661C36.4339 7.89119 36.3664 7.61573 36.3017 7.34082H40.0216C40.0774 7.61573 40.1203 7.89119 40.1644 8.1661C40.3109 9.09495 40.3955 10.0325 40.4175 10.9726C40.4175 11.1377 40.4175 11.3027 40.4287 11.4789Z" fill="#242424"/>
<path d="M22.7235 14.6699C22.6025 15.0441 22.4815 15.4183 22.3382 15.7813C22.2501 16.0127 22.162 16.2547 22.0633 16.4855C21.8101 17.1023 21.5458 17.7073 21.2486 18.3017H3.66455V14.6699H22.7235Z" fill="#242424"/>
<path d="M40.4177 10.9726H11.0166V7.34082H40.0218C40.0776 7.61573 40.1205 7.89119 40.1646 8.1661C40.3111 9.09495 40.3957 10.0325 40.4177 10.9726Z" fill="#242424"/>
<path d="M23.3532 3.63178H0V0H22.1972C22.691 1.17334 23.0779 2.38887 23.3532 3.63178Z" fill="#242424"/>
</svg>
