<svg width="159" height="49" fill="none" xmlns="http://www.w3.org/2000/svg"><path d="M43.57 2H2v41.57h41.57V2Z" stroke="url(#a)" stroke-width="4"/><path d="M63.19 14H52v29.418h11.19V14Z" stroke="url(#b)" stroke-width="3"/><path d="M90.785 46.57c11.479 0 20.785-9.306 20.785-20.785C111.57 14.305 102.264 5 90.785 5 79.305 5 70 14.306 70 25.785c0 11.479 9.306 20.785 20.785 20.785Z" stroke="url(#c)" stroke-width="4"/><path d="m116 46 19.102-34L155 46h-39Z" stroke="url(#d)" stroke-width="4"/><defs><linearGradient id="a" x1="66" y1="-11" x2="8.5" y2="46.5" gradientUnits="userSpaceOnUse"><stop offset=".451" stop-color="#E41850"/><stop offset="1" stop-color="#323F88"/></linearGradient><linearGradient id="b" x1="82.5" y1="14" x2="38" y2="68" gradientUnits="userSpaceOnUse"><stop offset=".002" stop-color="#E41850"/><stop offset="1" stop-color="#323F88"/></linearGradient><linearGradient id="c" x1="90.785" y1="5" x2="90.785" y2="46.57" gradientUnits="userSpaceOnUse"><stop stop-color="#E41850"/><stop offset="1" stop-color="#323F88"/></linearGradient><linearGradient id="d" x1="135.5" y1="12" x2="155" y2="46" gradientUnits="userSpaceOnUse"><stop stop-color="#E41850"/><stop offset="1" stop-color="#323F88"/></linearGradient></defs></svg>