<svg width="29" height="29" viewBox="0 0 29 29" fill="none" xmlns="http://www.w3.org/2000/svg">
<path d="M25.149 0H3.38074C1.66261 0 0.270996 1.43442 0.270996 3.20541V25.6432C0.270996 27.4142 1.66261 28.8486 3.38074 28.8486H25.149C26.8671 28.8486 28.2587 27.4142 28.2587 25.6432V3.20541C28.2587 1.43442 26.8671 0 25.149 0ZM7.63798 22.4378C6.55424 22.4378 5.67573 21.5323 5.67573 20.4152V13.2399C5.67729 12.1244 6.55579 11.2189 7.63798 11.2189C8.72173 11.2189 9.60023 12.1244 9.60023 13.2415V20.4168C9.60023 21.5323 8.72173 22.4378 7.63798 22.4378ZM7.56957 9.16265C6.37076 9.16265 5.57 8.33886 5.57 7.23941C5.57 6.13995 6.36921 5.31616 7.70173 5.31616C8.90054 5.31616 9.7013 6.13995 9.7013 7.23941C9.7013 8.33886 8.90209 9.16265 7.56957 9.16265ZM21.6956 22.4378C20.6476 22.4378 19.7971 21.5612 19.7971 20.4809V16.3059C19.7971 14.6102 18.7849 14.4243 18.4055 14.4243C18.0261 14.4243 16.7604 14.4804 16.7604 16.3059V20.4809C16.7604 21.5612 15.9099 22.4378 14.8619 22.4378H14.736C13.688 22.4378 12.8375 21.5612 12.8375 20.4809V13.2415C12.8375 12.1244 13.716 11.2189 14.7997 11.2189C15.8835 11.2189 16.762 12.1244 16.762 13.2415C16.762 13.2415 17.2005 11.2189 20.1796 11.2189C22.075 11.2189 23.5941 12.7848 23.5941 16.3059V20.4809C23.5941 21.5612 22.7436 22.4378 21.6956 22.4378Z" fill="#1C4A9F"/>
</svg>
