<svg width="29" height="29" viewBox="0 0 29 29" fill="none" xmlns="http://www.w3.org/2000/svg">
<path d="M22.4279 0H6.40797C2.86917 0 0 2.87044 0 6.41081V22.4378C0 25.9782 2.86917 28.8486 6.40797 28.8486H22.4279C25.9667 28.8486 28.8359 25.9782 28.8359 22.4378V6.41081C28.8359 2.87044 25.9667 0 22.4279 0ZM22.508 10.44C22.508 10.5778 22.508 10.7141 22.508 10.9897C22.508 16.2097 18.5254 22.2551 11.2476 22.2551C9.05126 22.2551 6.9911 21.5676 5.20648 20.4697C5.48042 20.4697 5.89373 20.4697 6.16767 20.4697C7.95229 20.4697 9.73851 19.7822 11.1114 18.8205C9.3268 18.8205 7.95389 17.5849 7.40441 16.0735C7.67835 16.0735 7.95389 16.2113 8.09166 16.2113C8.50338 16.2113 8.77892 16.2113 9.19063 16.0735C7.40601 15.6616 6.0331 14.1503 6.0331 12.227C6.58259 12.5011 7.13207 12.6389 7.81772 12.7767C6.71876 11.8151 6.0331 10.7157 6.0331 9.34215C6.0331 8.6546 6.17088 7.96864 6.58259 7.41891C8.50498 9.75405 11.3886 11.4032 14.6839 11.5395C14.6839 11.2654 14.5461 10.9897 14.5461 10.5778C14.5461 8.38053 16.3307 6.59352 18.5286 6.59352C19.6276 6.59352 20.725 7.00541 21.4122 7.8292C22.3734 7.69137 23.1969 7.27948 23.8841 6.86758C23.6102 7.8292 22.9229 8.51676 22.0995 9.06489C22.9229 8.92705 23.6102 8.79082 24.4336 8.37733C23.8809 9.20432 23.1952 9.89028 22.508 10.44Z" fill="#F8F7F7"/>
</svg>
