<svg width="32" height="31" viewBox="0 0 32 31" fill="none" xmlns="http://www.w3.org/2000/svg">
<path d="M14.5485 0.109043C7.31637 0.896754 1.49924 6.72581 0.713146 13.8152C-0.0729524 21.2197 4.17198 27.8365 10.618 30.3571C11.0896 30.5147 11.5613 30.1996 11.5613 29.5694V27.0488C11.5613 27.0488 10.9324 27.2063 10.1463 27.2063C7.94525 27.2063 7.00193 25.3158 6.84471 24.213C6.68749 23.5828 6.37305 23.1102 5.90139 22.6376C5.42974 22.48 5.27252 22.48 5.27252 22.3225C5.27252 22.0074 5.74417 22.0074 5.90139 22.0074C6.84471 22.0074 7.63081 23.1102 7.94525 23.5828C8.73135 24.8432 9.67467 25.1582 10.1463 25.1582C10.7752 25.1582 11.2469 25.0007 11.5613 24.8432C11.7185 23.7404 12.1902 22.6376 13.1335 22.0074C9.51745 21.2197 6.84471 19.1716 6.84471 15.7057C6.84471 13.9728 7.63081 12.2398 8.73135 10.9795C8.57413 10.6644 8.41691 9.87666 8.41691 8.77386C8.41691 8.14369 8.41691 7.19844 8.88857 6.25319C8.88857 6.25319 11.0896 6.25319 13.2907 8.30124C14.0768 7.98615 15.1774 7.82861 16.2779 7.82861C17.3784 7.82861 18.479 7.98615 19.4223 8.30124C21.4661 6.25319 23.8244 6.25319 23.8244 6.25319C24.1389 7.19844 24.1389 8.14369 24.1389 8.77386C24.1389 10.0342 23.9817 10.6644 23.8244 10.9795C24.925 12.2398 25.7111 13.8152 25.7111 15.7057C25.7111 19.1716 23.0383 21.2197 19.4223 22.0074C20.3656 22.7951 20.9945 24.213 20.9945 25.6309V29.727C20.9945 30.1996 21.4661 30.6722 22.095 30.5147C27.9121 28.1515 31.9999 22.48 31.9999 15.8633C31.9999 6.41073 23.9817 -0.993752 14.5485 0.109043Z" fill="#F8F7F7"/>
</svg>
