<svg width="215" height="60" viewBox="0 0 215 60" fill="none" xmlns="http://www.w3.org/2000/svg">
<path d="M59.552 28.5978L59.5819 28.6851C61.0186 29.18 62.156 30.5192 62.156 32.4697C62.156 37.477 58.0255 39.3434 54.4304 39.3434H46.2857L49.9673 18.7256H57.1841C59.6983 18.7256 62.9342 19.8318 62.9342 23.6455C62.9342 26.2365 61.4676 27.8991 59.552 28.5978ZM54.7896 31.0432H53.5624L52.9937 34.2746H54.1909C55.3283 34.2746 56.2263 33.7215 56.2263 32.4697C56.2263 31.4508 55.5378 31.0432 54.7896 31.0432ZM56.0167 23.7619H54.8793L54.3406 26.7023H55.5079C56.346 26.7023 57.3337 26.2656 57.3337 25.0429C57.3371 24.3151 56.795 23.7619 56.0167 23.7619Z" fill="white"/>
<path d="M75.4295 24.0821H70.4277L69.9787 26.4111H74.5881L73.7201 31.3893H69.1107L68.6617 33.8929H74.229L73.2712 39.3401H61.7143L65.3959 18.7223H76.384L75.4295 24.0821Z" fill="white"/>
<path d="M90.8548 23.9075H87.0834L84.3297 39.3434H78.1306L80.9142 23.9075H77.1429L78.0708 18.7256H91.7827L90.8548 23.9075Z" fill="white"/>
<path d="M104.123 28.5978L104.153 28.6851C105.59 29.18 106.727 30.5192 106.727 32.4697C106.727 37.477 102.597 39.3434 99.0018 39.3434H90.8572L94.5387 18.7256H101.756C104.27 18.7256 107.506 19.8318 107.506 23.6455C107.509 26.2365 106.039 27.8991 104.123 28.5978ZM99.3644 31.0432H98.1372L97.5685 34.2746H98.7657C99.9031 34.2746 100.801 33.7215 100.801 32.4697C100.801 31.4508 100.113 31.0432 99.3644 31.0432ZM100.592 23.7619H99.4541L98.9154 26.7023H100.083C100.921 26.7023 101.909 26.2656 101.909 25.0429C101.909 24.3151 101.37 23.7619 100.592 23.7619Z" fill="white"/>
<path d="M120.858 24.0821H115.856L115.407 26.4111H120.017L119.149 31.3893H114.539L114.09 33.8929H119.658L118.7 39.3401H107.143L110.824 18.7223H121.813L120.858 24.0821Z" fill="white"/>
<path d="M135.827 23.9075H132.056L129.302 39.3434H123.103L125.887 23.9075H122.115L123.043 18.7256H136.755L135.827 23.9075Z" fill="white"/>
<path d="M137.475 39.6345C135.559 39.6345 134.571 38.2662 134.571 36.8106C134.571 34.9183 136.008 33.1134 138.014 33.1134C139.989 33.1134 140.977 34.4234 140.977 35.9955C140.977 38.0915 139.45 39.6345 137.475 39.6345Z" fill="white"/>
<path d="M156.488 25.2175C156.009 24.6353 155.53 24.1113 154.333 24.1113C151.968 24.1113 150.472 27.8376 150.472 30.7812C150.472 32.6734 151.16 33.9544 152.776 33.9544C153.734 33.9544 154.393 33.4595 154.931 32.9937L157.625 37.6807C156.308 38.9034 154.303 39.9223 151.666 39.9223C146.667 39.9223 143.94 36.6327 143.94 31.6804C143.94 24.5156 148.224 18.14 154.479 18.14C157.921 18.14 159.568 19.3628 160.648 20.5855L156.488 25.2175Z" fill="white"/>
<path d="M188.408 24.8391C187.78 24.2277 186.732 23.7328 185.804 23.7328C185.116 23.7328 184.188 24.024 184.188 25.0429C184.188 25.7416 184.637 26.0327 185.924 26.7605C187.331 27.5465 189.695 29.1477 189.695 32.4115C189.695 37.6225 185.475 39.8092 181.61 39.8092C178.707 39.8092 176.189 38.8776 174.842 37.684L178.434 33.0552C179.242 33.7247 180.41 34.2197 181.517 34.2197C182.295 34.2197 183.104 33.8121 183.104 32.9387C183.104 32.2691 182.655 31.8033 181.278 31.0173C179.422 29.9693 177.656 28.601 177.656 25.6284C177.656 21.6691 180.739 18.2598 185.741 18.2598C188.524 18.2598 190.833 19.1622 192 20.3558L188.408 24.8391Z" fill="white"/>
<path d="M205.058 39.475H198.799L200.236 31.495H197.093L195.656 39.475H189.427L193.109 18.8571H199.308L198.021 26.022H201.194L202.451 18.8571H208.74L205.058 39.475Z" fill="white"/>
<path d="M39.9285 19.3919C41.0426 11.1305 37.4908 7.99935 28.6078 7.34271L29.5357 0L17.8657 7.2392C13.6421 7.29096 10.2432 7.42035 6.49845 7.73087L0 52.6896C3.78466 52.9678 7.2035 53.1004 11.5236 53.1619L10.6622 60L22.2623 53.2072C32.8148 53.0875 37.4209 50.7521 38.7246 41.9408C39.7955 34.6434 37.5872 30.1472 30.417 29.5617L30.4835 29.235C36.7126 28.711 39.0572 25.6477 39.9285 19.3919ZM27.936 20.1747C27.6433 22.0702 27.2376 23.3252 26.5325 24.1404L26.5359 24.1501L18.4943 33.2751H21.5706C25.8574 33.2751 26.7953 34.252 26.1933 38.6188C25.455 43.377 24.0482 44.4186 19.0231 44.4186H13.4658L15.0721 33.2751L16.2095 25.5216L17.5498 16.0084H24.0482C27.4671 16.0052 28.4049 16.8527 27.936 20.1747Z" fill="url(#paint0_linear_8_45)"/>
<path d="M173.556 18.7256H165.8L156.877 39.3434H163.405L164.513 36.3125L168.407 31.6837H166.009L168.288 24.8973H168.407V31.6837L168.318 36.3125V39.3434H174.663L173.556 18.7256Z" fill="white"/>
<defs>
<linearGradient id="paint0_linear_8_45" x1="-1.85515" y1="50.8865" x2="38.8377" y2="9.0483" gradientUnits="userSpaceOnUse">
<stop stop-color="#02A5DF"/>
<stop offset="1" stop-color="#FF21D0"/>
</linearGradient>
</defs>
</svg>
