<svg width="133" height="40" fill="none" xmlns="http://www.w3.org/2000/svg"><g clip-path="url(#clip0)"><path d="M59.17 23.35H48.313c.174.855.671 1.61 1.389 2.107a4.59 4.59 0 002.718.774 5.469 5.469 0 001.99-.335 4.768 4.768 0 001.609-1.054l2.21 2.402c-1.353 1.547-3.326 2.32-5.92 2.32a9.364 9.364 0 01-4.29-.946 6.947 6.947 0 01-2.881-2.627 7.22 7.22 0 01-1.01-3.816 7.33 7.33 0 01.998-3.798 7.044 7.044 0 012.76-2.64 8.51 8.51 0 017.735-.041 6.63 6.63 0 012.678 2.6 7.77 7.77 0 01.973 3.934c-.026.052-.052.428-.104 1.12zm-9.736-4.612a3.392 3.392 0 00-1.18 2.185h7.073a3.448 3.448 0 00-1.178-2.174 3.51 3.51 0 00-2.347-.814c-.86-.025-1.7.26-2.368.803zM67.41 28.43a9.256 9.256 0 01-3.625-3.44 9.47 9.47 0 01-1.322-4.973 9.47 9.47 0 011.322-4.973 9.282 9.282 0 013.624-3.44 10.79 10.79 0 015.187-1.238 10.914 10.914 0 014.39.85 8.84 8.84 0 013.316 2.454l-2.774 2.578a5.967 5.967 0 00-4.693-2.184 6.264 6.264 0 00-3.094.759 5.375 5.375 0 00-2.118 2.118 6.226 6.226 0 00-.762 3.094 6.215 6.215 0 00.762 3.094 5.375 5.375 0 002.118 2.118 6.215 6.215 0 003.094.763 5.942 5.942 0 004.693-2.21l2.774 2.578a8.669 8.669 0 01-3.315 2.48c-1.402.572-2.907.85-4.42.813a10.733 10.733 0 01-5.157-1.241zm27.626-12.053c1.191 1.059 1.787 2.655 1.787 4.789v8.185h-3.897v-1.787c-.781 1.334-2.239 2-4.373 2a6.799 6.799 0 01-2.865-.56 4.31 4.31 0 01-1.842-1.547 4.052 4.052 0 01-.638-2.24 3.733 3.733 0 011.507-3.145c.987-.766 2.533-1.15 4.638-1.15h3.315a2.646 2.646 0 00-.825-2.091c-.55-.49-1.378-.737-2.48-.737a7.148 7.148 0 00-2.254.368 5.959 5.959 0 00-1.878.973l-1.496-2.907a9.038 9.038 0 012.814-1.278 12.473 12.473 0 013.375-.457c2.215-.002 3.919.526 5.112 1.584zm-3.547 9.894a2.69 2.69 0 001.171-1.455v-1.473h-2.854c-1.707 0-2.566.56-2.579 1.68a1.495 1.495 0 00.626 1.267 2.84 2.84 0 001.72.468 3.636 3.636 0 001.912-.487h.004zm11.754 2.851a9.094 9.094 0 01-2.718-1.105l1.385-2.969a8.75 8.75 0 002.321.999 9.582 9.582 0 002.667.368c1.76 0 2.641-.435 2.641-1.304a.926.926 0 00-.737-.88c-.719-.229-1.46-.38-2.21-.454a21.192 21.192 0 01-2.907-.615 4.469 4.469 0 01-1.985-1.226c-.56-.585-.84-1.42-.84-2.505a3.917 3.917 0 01.807-2.413 5.03 5.03 0 012.291-1.64 9.817 9.817 0 013.562-.588c1.017.001 2.031.114 3.024.335a8.353 8.353 0 012.494.92l-1.385 2.947a8.29 8.29 0 00-4.133-1.068 4.168 4.168 0 00-2 .369 1.102 1.102 0 00-.667.957.959.959 0 00.718.936c.748.239 1.516.408 2.295.505.971.153 1.931.362 2.877.626a4.368 4.368 0 011.949 1.215c.583.68.879 1.56.825 2.454a3.78 3.78 0 01-.799 2.39 5.136 5.136 0 01-2.332 1.614 10.383 10.383 0 01-3.64.574 13.891 13.891 0 01-3.503-.442zm27.185-12.73c1.095 1.066 1.642 2.647 1.639 4.744v8.215h-4.158v-7.574c0-1.137-.246-1.985-.737-2.545a2.73 2.73 0 00-2.159-.84 3.313 3.313 0 00-2.504.973c-.634.648-.951 1.612-.951 2.891v7.095h-4.155V9.577h4.155V16.5a5.558 5.558 0 012-1.267 7.217 7.217 0 012.56-.442c1.783 0 3.22.534 4.31 1.602z" fill="#fff"/><path fill-rule="evenodd" clip-rule="evenodd" d="M9.18 13.648c2.475-1.433 4.972-2.866 7.448-4.299a2.346 2.346 0 012.405 0l3.684 2.103a.326.326 0 01.113.437.327.327 0 01-.113.12l-9.003 5.179a.737.737 0 00-.368.648v4.347a.696.696 0 00.368.622l3.768 2.173a.666.666 0 00.719 0l15.537-8.947c2.637-1.525 2.637-5.92 0-7.445L19.77.538a3.728 3.728 0 00-3.86 0L1.94 8.586A3.82 3.82 0 000 11.938c0 5.375.022 10.753 0 16.116a3.827 3.827 0 001.941 3.356l13.968 8.07a3.845 3.845 0 003.86 0l13.969-8.07a3.772 3.772 0 001.92-3.356v-6.999L19.032 30.67a2.365 2.365 0 01-2.405 0l-7.42-4.302a2.347 2.347 0 01-1.204-2.081v-8.58a2.372 2.372 0 011.18-2.058h-.005z" fill="url(#paint0_linear)"/></g><defs><linearGradient id="paint0_linear" x1="9.231" y1="-5.463" x2="24.971" y2="41.19" gradientUnits="userSpaceOnUse"><stop stop-color="#273498"/><stop offset=".53" stop-color="#0074C2"/><stop offset="1" stop-color="#00ABE7"/></linearGradient><clipPath id="clip0"><path fill="#fff" d="M0 0h132.067v40H0z"/></clipPath></defs></svg>