<svg width="14" height="20" fill="none" xmlns="http://www.w3.org/2000/svg"><path d="M13.31 6.464c.37-2.754-.813-3.798-3.774-4.016L9.846 0l-3.89 2.413c-1.409.017-2.542.06-3.79.164L0 17.563c1.262.093 2.401.137 3.841.158L3.554 20l3.867-2.264c3.517-.04 5.053-.819 5.487-3.756.357-2.432-.379-3.93-2.769-4.126l.022-.109c2.077-.175 2.858-1.196 3.149-3.281Zm-3.998.26c-.098.633-.233 1.051-.468 1.323l.001.003-2.68 3.042H7.19c1.43 0 1.742.325 1.541 1.78-.246 1.587-.715 1.934-2.39 1.934H4.489l.535-3.714.38-2.585.446-3.17h2.166c1.14-.002 1.452.28 1.296 1.388Z" fill="url('#paint0_linear_101_2')"/><defs><linearGradient id="paint0_linear_101_2" x1="-.618" y1="16.962" x2="12.946" y2="3.016" gradientUnits="userSpaceOnUse"><stop stop-color="#02A5DF"/><stop offset="1" stop-color="#FF21D0"/></linearGradient></defs></svg>