<svg width="14" height="20" viewBox="0 0 14 20" fill="none" xmlns="http://www.w3.org/2000/svg">
<path d="M13.3095 6.46396C13.6809 3.71017 12.4969 2.66645 9.53593 2.44757L9.84522 0L5.95525 2.41307C4.54736 2.43032 3.4144 2.47345 2.16615 2.57696L0 17.5632C1.26155 17.6559 2.40117 17.7001 3.8412 17.7206L3.55408 20L7.42078 17.7357C10.9383 17.6958 12.4736 16.9174 12.9082 13.9803C13.2652 11.5478 12.5291 10.0491 10.139 9.8539L10.1612 9.745C12.2375 9.57033 13.0191 8.54925 13.3095 6.46396ZM9.312 6.72489C9.21445 7.35673 9.0792 7.77508 8.84418 8.04679L8.84529 8.05003L6.16477 11.0917H7.19019C8.61914 11.0917 8.93176 11.4173 8.73111 12.8729C8.48501 14.459 8.01608 14.8062 6.34103 14.8062H4.48861L5.02405 11.0917L5.40318 8.5072L5.84993 5.33614H8.01608C9.15569 5.33506 9.46831 5.61755 9.312 6.72489Z" fill="url('#paint0_linear_101_2')"></path>
<defs>
<linearGradient id="paint0_linear_101_2" x1="-0.618383" y1="16.9622" x2="12.9459" y2="3.0161" gradientUnits="userSpaceOnUse">
<stop stop-color="#02A5DF"></stop>
<stop offset="1" stop-color="#FF21D0"></stop>
</linearGradient>
</defs>
</svg>
