<svg width="215" height="60" fill="none" xmlns="http://www.w3.org/2000/svg"><path d="m59.552 28.598.03.087c1.437.495 2.574 1.834 2.574 3.785 0 5.007-4.13 6.873-7.726 6.873h-8.144l3.681-20.617h7.217c2.514 0 5.75 1.106 5.75 4.92 0 2.59-1.466 4.253-3.382 4.952Zm-4.762 2.445h-1.228l-.568 3.232h1.197c1.137 0 2.035-.553 2.035-1.805 0-1.02-.688-1.427-1.436-1.427Zm1.227-7.281h-1.138l-.538 2.94h1.167c.838 0 1.826-.436 1.826-1.66.003-.727-.539-1.28-1.317-1.28ZM75.43 24.082h-5.002l-.45 2.33h4.61l-.868 4.977h-4.61l-.448 2.504h5.567l-.958 5.447H61.714l3.682-20.618h10.988l-.954 5.36ZM90.855 23.907h-3.772L84.33 39.343h-6.2l2.784-15.436h-3.771l.928-5.181h13.712l-.928 5.181ZM104.123 28.598l.03.087c1.437.495 2.574 1.834 2.574 3.785 0 5.007-4.13 6.873-7.725 6.873h-8.145l3.682-20.617h7.217c2.514 0 5.75 1.106 5.75 4.92.003 2.59-1.467 4.253-3.383 4.952Zm-4.759 2.445h-1.227l-.569 3.232h1.198c1.137 0 2.035-.553 2.035-1.805 0-1.02-.688-1.427-1.437-1.427Zm1.228-7.281h-1.138l-.539 2.94h1.168c.838 0 1.826-.436 1.826-1.66 0-.727-.539-1.28-1.317-1.28ZM120.858 24.082h-5.002l-.449 2.33h4.61l-.868 4.977h-4.61l-.449 2.504h5.568l-.958 5.447h-11.557l3.681-20.618h10.989l-.955 5.36ZM135.827 23.907h-3.771l-2.754 15.436h-6.199l2.784-15.436h-3.772l.928-5.181h13.712l-.928 5.181ZM137.475 39.635c-1.916 0-2.904-1.369-2.904-2.824 0-1.893 1.437-3.698 3.443-3.698 1.975 0 2.963 1.31 2.963 2.883 0 2.096-1.527 3.639-3.502 3.639ZM156.488 25.218c-.479-.583-.958-1.107-2.155-1.107-2.365 0-3.861 3.727-3.861 6.67 0 1.892.688 3.173 2.304 3.173.958 0 1.617-.495 2.155-.96l2.694 4.687c-1.317 1.222-3.322 2.241-5.959 2.241-4.999 0-7.726-3.29-7.726-8.242 0-7.164 4.284-13.54 10.539-13.54 3.442 0 5.089 1.223 6.169 2.445l-4.16 4.633ZM188.408 24.84c-.628-.612-1.676-1.107-2.604-1.107-.688 0-1.616.291-1.616 1.31 0 .699.449.99 1.736 1.718 1.407.786 3.771 2.387 3.771 5.65 0 5.212-4.22 7.398-8.085 7.398-2.903 0-5.421-.931-6.768-2.125l3.592-4.629c.808.67 1.976 1.165 3.083 1.165.778 0 1.587-.408 1.587-1.281 0-.67-.449-1.136-1.826-1.922-1.856-1.048-3.622-2.416-3.622-5.389 0-3.959 3.083-7.368 8.085-7.368 2.783 0 5.092.902 6.259 2.096l-3.592 4.483ZM205.058 39.475h-6.259l1.437-7.98h-3.143l-1.437 7.98h-6.229l3.682-20.618h6.199l-1.287 7.165h3.173l1.257-7.165h6.289l-3.682 20.618Z" fill="#fff"/><path d="M39.928 19.392c1.115-8.261-2.437-11.393-11.32-12.05L29.536 0l-11.67 7.24c-4.224.051-7.623.18-11.368.49L0 52.69c3.785.278 7.204.41 11.524.472L10.662 60l11.6-6.793c10.553-.12 15.159-2.455 16.463-11.266 1.07-7.298-1.138-11.794-8.308-12.38l.066-.326c6.23-.524 8.574-3.587 9.445-9.843Zm-11.992.783c-.293 1.895-.698 3.15-1.404 3.965l.004.01-8.042 9.125h3.077c4.286 0 5.224.977 4.622 5.344-.738 4.758-2.145 5.8-7.17 5.8h-5.557l1.606-11.144 1.137-7.753 1.34-9.514h6.5c3.418-.003 4.356.845 3.887 4.167Z" fill="url('#paint0_linear_8_45')"/><path d="M173.556 18.726H165.8l-8.923 20.617h6.528l1.108-3.03 3.894-4.63h-2.398l2.279-6.786h.119v6.787l-.089 4.628v3.031h6.345l-1.107-20.617Z" fill="#fff"/><defs><linearGradient id="paint0_linear_8_45" x1="-1.855" y1="50.886" x2="38.838" y2="9.048" gradientUnits="userSpaceOnUse"><stop stop-color="#02A5DF"/><stop offset="1" stop-color="#FF21D0"/></linearGradient></defs></svg>