<svg height="512" width="512" xmlns="http://www.w3.org/2000/svg"><path d="M362.106 295.618A198.105 198.105 0 01313.3 276.35l-12.3-6.631v-4.956a66.55 66.55 0 0021.751-39.495l4.31-27.511c9.932-1.06 17.123-9.971 16.063-19.903a18.085 18.085 0 00-7.131-12.547 117.873 117.873 0 004.7-18.8 17.79 17.79 0 0011.453-16.8A17.56 17.56 0 00339 112.467V94.579c.042-36.699-28.275-67.195-64.876-69.871A19.024 19.024 0 00255.894 11a18.833 18.833 0 00-18.071 13.708c-36.591 2.68-64.89 33.182-64.823 69.871v17.888a17.561 17.561 0 00-13.149 17.233 17.799 17.799 0 0010.906 16.6 91.172 91.172 0 004.457 14.765l2.174 5.471c-7.31 6.806-7.719 18.25-.912 25.56a18.084 18.084 0 0011.317 5.659l4.309 27.51A66.519 66.519 0 00211 262.1v9.646l-15.442 7.69a209.473 209.473 0 01-45.594 16.183c-36.961 8.784-63.03 41.832-62.964 79.823V495a6.106 6.106 0 006.122 6h325.756a6.106 6.106 0 006.122-6V375.442c.098-37.979-25.946-71.034-62.894-79.824zM341 301.994c3 1.1 7 2.109 10 3.024V373h-10zM275 36.8c29.548 3.149 51.971 28.064 52 57.779V112h-43.868a31.99 31.99 0 002.145-11.286A30.467 30.467 0 00275 78.371zm-26-6.677a7 7 0 1114 0v42.009a28.289 28.289 0 00-14 0zm7 53.129c9.572.006 17.326 7.77 17.32 17.342s-7.77 17.326-17.342 17.32c-9.567-.006-17.32-7.764-17.32-17.331.014-9.57 7.772-17.323 17.342-17.331zm-71 11.327c.029-29.715 22.452-54.63 52-57.779v41.571a30.467 30.467 0 00-10.277 22.343A31.99 31.99 0 00228.868 112H185zM171.637 130a6.006 6.006 0 015.971-6h60.413c10.572 8.235 25.386 8.235 35.958 0h60.413a6 6 0 110 12H177.608a6.006 6.006 0 01-5.971-6zM187 148v10.086l-.606-1.285a79.737 79.737 0 01-2.979-8.8zm16.958 75.415L198.87 191a5.94 5.94 0 00-5.928-5h-3.224a6 6 0 110-12h3.224a6.354 6.354 0 006.058-6.346V148h117v19.654a6.23 6.23 0 005.911 6.346h3.224a6 6 0 110 12h-3.224a5.938 5.938 0 00-5.928 5l-5.083 32.446c-4.616 29.529-32.296 49.724-61.825 45.108-23.253-3.635-41.491-21.883-45.113-45.139zM289 273.15v22.915c-8 9.259-20.293 14.528-33 14.528s-25-5.269-33-14.528v-24.549a67.439 67.439 0 003.312 1.9 65.966 65.966 0 0062.23 0c.158-.087.303-.182.458-.266zm-106 24.974c6-2.411 12.315-5.051 18.117-7.967l9.883-4.983v13.167a5.875 5.875 0 001.28 3.877c20.344 24.176 56.435 27.282 80.611 6.939a57.207 57.207 0 006.939-6.939 5.782 5.782 0 001.171-3.877v-14.926l6.316 3.45c7.207 3.964 14.684 7.465 21.684 10.5V373H183zm-22 6.965c3-.879 7-1.8 10-2.777V373h-10zM355 489H157v-50a6 6 0 10-12 0v50H99V375.442c.118-30.946 20.394-58.2 50-67.209v66.751a11.918 11.918 0 00-4 8.3V397a6 6 0 1012 0v-12h198zm58 0h-46V383.281a11.918 11.918 0 00-4-8.3v-66.748c29.606 9.009 49.882 36.263 50 67.209z"/><path d="M115 407.425a6 6 0 00-6 6v50.756a6 6 0 1012 0v-50.756a6 6 0 00-6-6zm0-23.568a6 6 0 00-6 6v4.884a6 6 0 1012 0v-4.884a6 6 0 00-6-6z"/></svg>