<svg width="78" height="78" fill="none" xmlns="http://www.w3.org/2000/svg"><path d="M55.165 45.036a30.183 30.183 0 01-7.436-2.936l-1.873-1.01v-.755a10.138 10.138 0 003.313-6.017l.657-4.191a2.755 2.755 0 001.36-4.944 17.97 17.97 0 00.717-2.864 2.71 2.71 0 001.744-2.559 2.675 2.675 0 00-2.002-2.626v-2.726A10.66 10.66 0 0041.76 3.764a2.898 2.898 0 00-2.777-2.088 2.87 2.87 0 00-2.753 2.088 10.654 10.654 0 00-9.876 10.645v2.725a2.676 2.676 0 00-2.003 2.625 2.712 2.712 0 001.662 2.529c.162.768.39 1.52.679 2.25l.331.833a2.755 2.755 0 001.585 4.756l.657 4.19a10.133 10.133 0 002.879 5.612v1.47l-2.353 1.171a31.91 31.91 0 01-6.946 2.466 12.477 12.477 0 00-9.592 12.16V75.41a.93.93 0 00.933.914h49.627a.93.93 0 00.932-.914V57.196a12.467 12.467 0 00-9.581-12.16zm-3.216.97c.457.169 1.067.322 1.524.462v10.356h-1.524V46.007zm-10.054-40.4a8.86 8.86 0 017.921 8.803v2.653h-6.683a4.873 4.873 0 00.327-1.719 4.641 4.641 0 00-1.566-3.404V5.606zM37.934 4.59a1.066 1.066 0 012.132 0v6.4a4.31 4.31 0 00-2.132 0v-6.4zM39 12.683a2.64 2.64 0 11-.003 5.28 2.64 2.64 0 01.003-5.28zm-10.816 1.726a8.86 8.86 0 017.921-8.803v6.333a4.641 4.641 0 00-1.565 3.404c.004.588.115 1.17.327 1.72h-6.683v-2.654zm-2.036 5.396c0-.503.407-.912.91-.914h9.203a4.457 4.457 0 005.478 0h9.204a.914.914 0 110 1.828H27.058a.915.915 0 01-.91-.914zm2.34 2.742v1.536l-.092-.195a12.147 12.147 0 01-.454-1.341h.546zm2.584 11.489l-.775-4.938a.905.905 0 00-.904-.762h-.49a.914.914 0 110-1.828h.49a.968.968 0 00.923-.967v-2.994h17.825v2.994a.95.95 0 00.9.967h.491a.914.914 0 110 1.828h-.49a.905.905 0 00-.904.762l-.774 4.943a8.244 8.244 0 01-16.292-.005zm12.955 7.577v3.49c-1.218 1.411-3.091 2.214-5.027 2.214s-3.809-.803-5.027-2.213v-3.74a10.05 10.05 0 009.985.29c.024-.014.046-.029.07-.041zM27.88 45.417c.914-.367 1.876-.77 2.76-1.213l1.506-.76v2.006a.896.896 0 00.194.591 8.716 8.716 0 0013.338 0 .88.88 0 00.179-.59v-2.275l.962.526a39.544 39.544 0 003.303 1.6v11.522H27.88V45.417zm-3.352 1.061c.457-.134 1.067-.274 1.524-.423v10.77h-1.524V46.477zm29.555 28.018H23.918V66.88a.914.914 0 10-1.828 0v7.617h-7.008v-17.3a10.745 10.745 0 017.618-10.24v10.17a1.815 1.815 0 00-.61 1.264v2.09a.914.914 0 101.829 0v-1.829h30.164v15.844zm8.836 0H55.91V58.391a1.816 1.816 0 00-.61-1.265V46.957a10.745 10.745 0 017.618 10.24v17.3z" fill="#fff"/><path d="M17.52 62.069a.914.914 0 00-.915.914v7.732a.914.914 0 101.829 0v-7.732a.914.914 0 00-.915-.914zm0-3.591a.914.914 0 00-.915.914v.744a.914.914 0 101.829 0v-.744a.914.914 0 00-.915-.914z" fill="#fff"/></svg>