<svg width="62" height="64" fill="none" xmlns="http://www.w3.org/2000/svg"><path d="M10.438 38.457h-3.35a1.46 1.46 0 00-1.458 1.457v2.134c0 .804.654 1.457 1.457 1.457h3.351c.803 0 1.457-.653 1.457-1.457v-2.134c0-.803-.653-1.457-1.457-1.457zm-.389 3.202H7.476v-1.356h2.573v1.356zm8.189-3.202h-3.35a1.46 1.46 0 00-1.458 1.457v2.134c0 .804.654 1.457 1.457 1.457h3.35c.804 0 1.458-.653 1.458-1.457v-2.134a1.46 1.46 0 00-1.457-1.457zm-.39 3.202h-2.572v-1.356h2.573v1.356zm8.189-3.202h-3.35c-.804 0-1.457.654-1.457 1.457v2.134a1.46 1.46 0 001.457 1.457h3.35c.804 0 1.458-.653 1.458-1.457v-2.134a1.46 1.46 0 00-1.458-1.457zm-.389 3.202h-2.572v-1.356h2.572v1.356zm-15.21 4.288h-3.35a1.46 1.46 0 00-1.458 1.457v2.134a1.46 1.46 0 001.457 1.458h3.351a1.46 1.46 0 001.457-1.458v-2.134c0-.803-.653-1.457-1.457-1.457zm-.389 3.202H7.476v-1.356h2.573v1.356zm8.189-3.202h-3.35a1.46 1.46 0 00-1.458 1.457v2.134a1.46 1.46 0 001.457 1.458h3.35a1.46 1.46 0 001.458-1.458v-2.134a1.46 1.46 0 00-1.457-1.457zm-.39 3.202h-2.572v-1.356h2.573v1.356zm8.189-3.202h-3.35c-.804 0-1.457.654-1.457 1.457v2.134c0 .804.653 1.458 1.457 1.458h3.35a1.46 1.46 0 001.458-1.458v-2.134a1.46 1.46 0 00-1.458-1.457zm-.389 3.202h-2.572v-1.356h2.572v1.356zm-15.21 4.288h-3.35a1.46 1.46 0 00-1.458 1.457v2.134c0 .804.654 1.457 1.457 1.457h3.351c.803 0 1.457-.653 1.457-1.457v-2.134c0-.803-.653-1.457-1.457-1.457zm-.389 3.202H7.476v-1.356h2.573v1.356zm8.189-3.202h-3.35a1.46 1.46 0 00-1.458 1.457v2.134c0 .804.654 1.457 1.457 1.457h3.35c.804 0 1.458-.653 1.458-1.457v-2.134a1.46 1.46 0 00-1.457-1.457zm-.39 3.202h-2.572v-1.356h2.573v1.356zm8.189-3.202h-3.35c-.804 0-1.457.654-1.457 1.457v2.134c0 .804.653 1.457 1.457 1.457h3.35c.804 0 1.458-.653 1.458-1.457v-2.134a1.46 1.46 0 00-1.458-1.457zm-.389 3.202h-2.572v-1.356h2.572v1.356z" fill="#2D485D"/><path d="M59.522 59.306V38.823a.923.923 0 00-1.846 0v20.48H44.797v-1.456h9.904a1.69 1.69 0 001.688-1.689v-1.77a1.69 1.69 0 00-1.688-1.688h-9.904v-2.42h9.904a1.69 1.69 0 001.688-1.688v-1.77a1.69 1.69 0 00-1.688-1.689h-9.904v-2.42h9.904a1.69 1.69 0 001.688-1.688v-1.77a1.69 1.69 0 00-1.688-1.688h-9.904v-2.42h9.904a1.69 1.69 0 001.688-1.689v-1.77A1.69 1.69 0 0054.702 30h-9.904v-3.884h12.878v6.953a.923.923 0 001.846 0v-7.364c0-.791-.644-1.435-1.435-1.435h-1.444v-2.577a1.85 1.85 0 00-1.848-1.847h-2.49v-2.473c0-1.044-.85-1.893-1.894-1.893h-.63V8.928a.923.923 0 10-1.846 0v6.552h-.63c-1.045 0-1.894.85-1.894 1.893v2.473h-.613V4.883h.17c.7 0 1.27-.57 1.27-1.27V1.27c0-.7-.57-1.269-1.27-1.269H17.032c-.7 0-1.268.57-1.268 1.269v2.345c0 .7.569 1.269 1.269 1.269h.464v29.083h-2.012v-2.622c0-.741-.603-1.344-1.344-1.344H6.73c-.74 0-1.344.603-1.344 1.344v2.622H3.933c-.802 0-1.455.653-1.455 1.455v13.05a.923.923 0 101.846 0V35.813h24.82v23.49H4.323v-5.086a.923.923 0 10-1.846 0v5.089a2.35 2.35 0 00-2.276 2.345A2.351 2.351 0 002.552 64h56.897a2.352 2.352 0 002.349-2.349 2.35 2.35 0 00-2.276-2.345zM47.257 17.373c0-.026.021-.047.047-.047h3.107c.026 0 .048.021.048.047v2.473h-3.202v-2.473zm-2.459 4.319l9.999.001v2.577h-9.999v-2.578zm-31.16 12.274H7.233v-2.12h6.403v2.12zm31.16-2.12h9.746V33.3h-9.746v-1.454zm0 7.567h9.746v1.454h-9.746v-1.454zm0 7.567h9.746v1.454h-9.746V46.98zm0 7.566h9.746v1.455h-9.746v-1.455zm-27.19-52.7h26.783v1.19H17.61v-1.19zm7.3 31.854h-2.403v-3.151h2.403v3.15zm3.191-3.643v3.91h-1.345v-3.91c0-.746-.608-1.354-1.355-1.354h-3.385c-.747 0-1.355.608-1.355 1.355v3.908h-1.317V4.883h23.61v54.42H30.99v-1.456h1.85c.746 0 1.354-.608 1.354-1.355v-4.134c0-.747-.608-1.354-1.355-1.354h-1.85v-4.308h1.85c.748 0 1.355-.607 1.355-1.354v-4.134c0-.747-.608-1.355-1.355-1.355h-1.85v-4.307h1.85c.748 0 1.355-.608 1.355-1.355v-4.134c0-.746-.608-1.354-1.355-1.354h-3.385c-.747 0-1.355.608-1.355 1.355zm1.846 3.643v-3.151h2.403v3.15h-2.403zm1.045 8h1.358v3.15H30.99V41.7zm0 11.15h1.358V56H30.99v-3.15zm28.459 9.304H2.55a.503.503 0 010-1.006h56.9a.503.503 0 010 1.006z" fill="#2D485D"/><path d="M25.4 6.402h-3.386c-.747 0-1.355.608-1.355 1.355v4.133c0 .747.608 1.355 1.355 1.355H25.4c.747 0 1.355-.608 1.355-1.355V7.757c0-.747-.607-1.355-1.355-1.355zm-.492 4.997h-2.403V8.248h2.403v3.15zm7.932-4.997h-3.386c-.747 0-1.355.608-1.355 1.355v4.133c0 .747.608 1.355 1.355 1.355h3.385c.747 0 1.355-.608 1.355-1.355V7.757c0-.747-.608-1.355-1.355-1.355zm-.492 4.997h-2.403V8.248h2.403v3.15zm7.932-4.997h-3.386c-.747 0-1.355.608-1.355 1.355v4.133c0 .747.608 1.355 1.355 1.355h3.385c.747 0 1.355-.608 1.355-1.355V7.757c0-.747-.608-1.355-1.355-1.355zm-.492 4.997h-2.402V8.248h2.402v3.15zM25.4 17.552h-3.386c-.747 0-1.355.608-1.355 1.355v4.134c0 .747.608 1.354 1.355 1.354H25.4c.747 0 1.355-.607 1.355-1.354v-4.134c0-.747-.607-1.355-1.355-1.355zm-.492 4.997h-2.403V19.4h2.403v3.15zm7.932-4.997h-3.386c-.747 0-1.355.608-1.355 1.355v4.134c0 .747.608 1.355 1.355 1.355h3.385c.747 0 1.355-.608 1.355-1.355v-4.134c0-.747-.608-1.355-1.355-1.355zm-.492 4.997h-2.403V19.4h2.403v3.15zm7.932-4.997h-3.386c-.747 0-1.355.608-1.355 1.355v4.134c0 .747.608 1.355 1.355 1.355h3.385c.747 0 1.355-.608 1.355-1.355v-4.134c0-.747-.608-1.355-1.355-1.355zm-.492 4.997h-2.402V19.4h2.402v3.15zm.492 6.154h-3.386c-.747 0-1.355.607-1.355 1.354v4.134c0 .747.608 1.355 1.355 1.355h3.385c.747 0 1.355-.608 1.355-1.355v-4.134c0-.747-.608-1.354-1.355-1.354zm-.492 4.997h-2.402v-3.151h2.402v3.15zm.492 6.153h-3.386c-.747 0-1.355.608-1.355 1.355v4.134c0 .747.608 1.355 1.355 1.355h3.385c.747 0 1.355-.608 1.355-1.355v-4.134c0-.747-.608-1.355-1.355-1.355zm-.492 4.997h-2.402V41.7h2.402v3.15zm.492 6.154h-3.386c-.747 0-1.355.608-1.355 1.355v4.133c0 .747.608 1.355 1.355 1.355h3.385c.747 0 1.355-.608 1.355-1.355v-4.133c0-.748-.608-1.355-1.355-1.355zM39.787 56h-2.402v-3.15h2.402V56z" fill="#2D485D"/></svg>