<svg width="63" height="52" fill="none" xmlns="http://www.w3.org/2000/svg"><path d="M62.996 48.95l-.043-.968a.896.896 0 10-1.791.079l.043.975v.018a.64.64 0 01-.173.484.636.636 0 01-.468.203h-5.246v-16.55l1.353.478a6.163 6.163 0 014.099 5.42l.148 3.401a.895.895 0 101.792-.078l-.15-3.41v-.018a7.953 7.953 0 00-5.292-7.005l-2.504-.885-.043-.02-7.479-2.643a1.06 1.06 0 00-.087-.026l-.043-.01a1.462 1.462 0 00-1.395.38l-.232.232-1.973-.99v-1.73c.596-.41 1.158-.9 1.668-1.447l.018-.02c1.287-1.386 2.238-3.132 2.561-4.866a7.487 7.487 0 00.079-.517l.007-.057c.009-.086.017-.172.022-.257h.373c1.155 0 2.095-.94 2.095-2.096v-2.35c0-.11-.01-.22-.027-.33.133-.24.209-.515.209-.81v-1c0-.762-.507-1.406-1.196-1.605v-.142l-.003-.255a9.563 9.563 0 00-2.643-6.377 9.347 9.347 0 00-5.573-2.836A2.59 2.59 0 0041 1.154l-.03-.042a2.546 2.546 0 00-.115-.154l-.02-.027a2.554 2.554 0 00-.158-.173L40.67.753A2.572 2.572 0 0040.502.6l-.02-.016a2.587 2.587 0 00-.626-.38L39.846.2a2.53 2.53 0 00-.255-.09 2.6 2.6 0 00-.218-.057L39.36.051A2.587 2.587 0 0038.851 0h-.846a2.581 2.581 0 00-.509.05c-.004.002-.008.002-.013.003a2.595 2.595 0 00-.472.147L37 .204c-.07.03-.14.064-.206.1l-.038.02a2.579 2.579 0 00-.383.26l-.02.016a2.562 2.562 0 00-.167.152l-.006.006a2.547 2.547 0 00-.157.173L36 .958c-.04.05-.078.101-.115.154l-.029.042c-.036.054-.071.11-.103.168a9.348 9.348 0 00-5.573 2.836 9.542 9.542 0 00-1.88 2.855L23.11 2.15a2.777 2.777 0 00-3.797.005L13.68 7.46v-.62a1.32 1.32 0 00-.392-.94 1.322 1.322 0 00-.94-.39h-.002l-4.223.007a1.333 1.333 0 00-1.33 1.333l.012 7.087-5.934 5.59a2.754 2.754 0 00-.87 1.934c-.022.74.246 1.445.753 1.984a2.754 2.754 0 002.02.871c.71 0 1.381-.266 1.9-.754l2.008-1.893.01 6.285c0 .495.401.895.896.895h.001a.896.896 0 00.895-.897l-.01-7.97L21.217 7.975l5.121 4.797v.766a1.684 1.684 0 00.01.183c.024.224.091.437.198.63a2.096 2.096 0 00-.027.327v2.349c0 1.155.94 2.096 2.096 2.096h.371c.006.088.014.177.023.266l.01.076a7.16 7.16 0 00.148.846l.014.06c.017.074.037.148.057.222l.012.044a9.331 9.331 0 00.673 1.72c.112.221.232.439.36.653l.051.085a10.616 10.616 0 00.188.296l.094.142c.057.084.115.166.175.249a10.547 10.547 0 00.212.283l.074.096c.062.08.125.157.189.234l.027.033c.07.084.143.167.216.249l.078.086.156.168.087.091.192.193.142.135.12.111a10.18 10.18 0 001.059.844v1.711l-1.973.99-.232-.231a1.459 1.459 0 00-1.389-.381 1.138 1.138 0 00-.137.037l-3.366 1.19-.009-6.377a1.494 1.494 0 00-1.492-1.49h-.002l-7.012.01c-.399 0-.773.156-1.055.438a1.482 1.482 0 00-.436 1.056l.016 10.973a1.091 1.091 0 01-.004.005l-.071.084c-.038.045-.077.089-.114.135l-.068.087a4.672 4.672 0 00-.108.138l-.066.09c-.035.047-.07.094-.103.141l-.063.093-.097.145-.06.096c-.03.049-.062.097-.092.147l-.056.097c-.029.05-.059.1-.087.152l-.053.101-.08.152-.053.108c-.024.05-.049.1-.072.151l-.05.112c-.022.05-.045.101-.066.152l-.046.116-.06.152-.043.121-.054.152-.039.125c-.016.05-.032.1-.047.152l-.036.128-.042.153-.03.13-.037.155c-.01.044-.017.09-.026.134l-.03.154-.022.14-.024.15-.018.145-.018.15-.012.147c-.004.046-.01.092-.012.138l-5.762.008a.037.037 0 01-.036-.037l-.008-5.408a.896.896 0 00-.896-.895h-.002a.897.897 0 00-.895.898l.008 5.408a1.832 1.832 0 001.83 1.827h.002l5.68-.008-.359 8.198c-.04.667.2 1.328.656 1.815a2.444 2.444 0 001.776.769h44.272c.67 0 1.317-.28 1.775-.77a2.448 2.448 0 00.657-1.814zM48.542 17.027a.303.303 0 01-.303.303h-.357v-2.124h.66v1.82zm-11.3-14.633l.003-.01a.786.786 0 01.181-.336l.007-.006a.788.788 0 01.087-.08l.01-.008a.786.786 0 01.207-.113l.017-.006a.79.79 0 01.11-.029c.008 0 .015-.002.021-.003a.784.784 0 01.12-.01h.846c.04 0 .08.004.12.01l.02.003a.779.779 0 01.11.029l.018.006a.785.785 0 01.206.113l.011.008c.031.024.06.05.087.08l.006.007a.785.785 0 01.182.335c.001.003.003.006.003.01.015.06.024.122.024.186v3.025a.788.788 0 01-.787.787h-.846a.788.788 0 01-.787-.787V2.58c0-.064.009-.126.023-.186zm-25.356 4.91l.003 1.843-3.294 3.103-.008-4.941 3.3-.005zM27.7 9.01a9.794 9.794 0 00-.048.277l-.022.156c-.012.085-.024.17-.034.254-.008.071-.013.143-.02.214l-.018.201a9.472 9.472 0 00-.024.678v.142l-.005.002a1.676 1.676 0 00-.344.146l-.02.01-5.335-5a.896.896 0 00-1.228.002L3.444 22.257a.966.966 0 01-.701.266.973.973 0 01-.684-.307.973.973 0 01-.266-.701.973.973 0 01.308-.684L20.54 3.46a.977.977 0 011.342-.002l5.833 5.464-.016.09zm.916 8.32a.303.303 0 01-.303-.303v-1.821h.661v2.124h-.358zm-.484-4.196v-.473h.299a.897.897 0 00.897-.896v-.975a7.743 7.743 0 01.024-.62l.01-.104a7.791 7.791 0 01.105-.75l.014-.074c.027-.135.057-.27.09-.403v-.003a7.753 7.753 0 011.906-3.44 7.58 7.58 0 013.948-2.202v2.41a2.583 2.583 0 002.58 2.58h.846a2.583 2.583 0 002.58-2.58v-2.41a7.58 7.58 0 013.947 2.202 7.774 7.774 0 012.15 5.394v.975c0 .495.401.896.897.896h.299v.473H28.132zm2.67 6.137l-.006-.042a5.23 5.23 0 01-.019-.224l-.002-.036a4.61 4.61 0 01-.008-.257v-3.506h15.321v3.488c0 .086-.002.172-.007.26l-.002.029a5.016 5.016 0 01-.02.23l-.005.04a5.39 5.39 0 01-.035.254v.002c-.318 1.917-1.69 3.964-3.372 5.191l-.036.026a7.137 7.137 0 01-.161.112l-.089.06-.047.03a7.34 7.34 0 01-.165.105l-.008.006c-.5.304-1.02.532-1.54.662l-.095.023c-1.912.476-2.351.474-4.27-.01a5.576 5.576 0 01-1.526-.659l-.004-.002-.059-.037a6.874 6.874 0 01-.175-.112l-.042-.03c-1.857-1.255-3.387-3.533-3.629-5.603zm3.421 10.31c.55-.209.913-.73.913-1.325v-1.008c.22.08.44.15.661.205 1.102.278 1.844.416 2.587.416.734 0 1.47-.135 2.555-.405l.094-.023c.23-.057.46-.129.686-.212v1.027c0 .595.363 1.116.913 1.325l1.437.721-.052.04c-.039.03-.08.059-.12.088a9.193 9.193 0 01-.594.398l-.122.074a9.371 9.371 0 01-.296.168l-.07.039a9.237 9.237 0 01-.375.188l-.103.047a9.06 9.06 0 01-.282.124c-.045.02-.091.038-.137.056a9.982 9.982 0 01-.675.24l-.13.042c-.12.035-.241.069-.363.1l-.043.01a9.282 9.282 0 01-.414.093l-.12.022a9.242 9.242 0 01-1.182.145l-.13.007a9.437 9.437 0 01-.866 0l-.13-.008a7.476 7.476 0 01-.301-.021l-.152-.016a9.732 9.732 0 01-.281-.034l-.149-.021a9.09 9.09 0 01-.3-.052l-.12-.022a9.088 9.088 0 01-.413-.092l-.043-.012a9.202 9.202 0 01-.364-.1c-.043-.012-.086-.027-.13-.04a9.159 9.159 0 01-.675-.241l-.136-.055a9.517 9.517 0 01-.285-.126l-.1-.045a9.113 9.113 0 01-.375-.19c-.023-.011-.044-.024-.066-.036a9.45 9.45 0 01-.3-.17l-.12-.073a9.176 9.176 0 01-.6-.4l-.116-.086-.052-.04 1.436-.722zm-17.93 20.16a.636.636 0 01-.47-.203.64.64 0 01-.172-.502l.435-9.946a6.17 6.17 0 011.686-3.857l.028-.027a6.195 6.195 0 012.385-1.537l1.352-.478v16.55h-5.245zm5.799-18.647l-2.504.885a8.135 8.135 0 00-.28.104l-.086.037-.068.028c-.04.016-.08.032-.119.05-.043.018-.085.039-.128.059l-.14.064-.128.065c-.045.023-.09.044-.133.068l-.12.066-.136.075-.117.07-.085.052-.013-9.16 6.41-.01.01 6.708-2.32.82c-.015.005-.029.013-.043.019zM23.33 49.74V32.558l5.931-2.096.687 3.368a4.753 4.753 0 002.116 3.06l5.467 3.44v9.41h-14.2zm9.689-14.37a2.951 2.951 0 01-1.314-1.9l-.424-2.079.1.086a11.036 11.036 0 007.047 2.509c.722 0 1.433-.07 2.126-.202a10.98 10.98 0 005.021-2.393l-.424 2.08a2.95 2.95 0 01-1.314 1.9l-5.409 3.403-5.41-3.403zm20.506 14.37h-14.2v-9.41l5.467-3.44a4.752 4.752 0 002.116-3.06l.686-3.368 5.931 2.096V49.74z" fill="#FF5E15"/></svg>