<svg width="35" height="35" fill="none" xmlns="http://www.w3.org/2000/svg"><g clip-path="url(#clip0)"><path d="M34.617 17.308C34.617 7.748 26.869 0 17.308 0 7.748 0 0 7.748 0 17.308c0 9.56 7.748 17.309 17.308 17.309.102 0 .203 0 .305-.007V21.142h-3.719v-4.334h3.719v-3.191c0-3.698 2.258-5.713 5.557-5.713 1.582 0 2.941.115 3.333.169v3.867h-2.271c-1.792 0-2.143.852-2.143 2.103V16.8h4.293l-.561 4.334h-3.733v12.812c7.235-2.075 12.529-8.735 12.529-16.639z" fill="#fff"/></g><defs><clipPath id="clip0"><path fill="#fff" d="M0 0h34.617v34.617H0z"/></clipPath></defs></svg>