<svg width="35" height="35" fill="none" xmlns="http://www.w3.org/2000/svg"><g clip-path="url(#clip0)" fill="#fff"><path d="M20.813 17.308a3.313 3.313 0 11-6.626 0 3.313 3.313 0 016.626 0z"/><path d="M25.248 11.447a3.082 3.082 0 00-.744-1.143 3.077 3.077 0 00-1.143-.744c-.35-.136-.876-.298-1.845-.342-1.048-.048-1.362-.058-4.016-.058s-2.968.01-4.016.058c-.97.044-1.496.206-1.846.342-.431.16-.822.414-1.142.744-.33.32-.585.71-.744 1.143-.136.35-.298.876-.342 1.845-.048 1.048-.058 1.362-.058 4.016s.01 2.968.058 4.017c.044.969.206 1.495.342 1.845.16.432.413.822.743 1.143.321.33.711.584 1.143.743.35.136.877.298 1.846.342 1.048.048 1.362.058 4.016.058s2.968-.01 4.016-.058c.969-.044 1.495-.206 1.846-.342a3.291 3.291 0 001.886-1.886c.136-.35.298-.876.342-1.845.048-1.049.058-1.363.058-4.017 0-2.654-.01-2.968-.058-4.016-.044-.969-.206-1.495-.342-1.845zM17.5 22.412a5.104 5.104 0 110-10.208 5.104 5.104 0 010 10.208zm5.305-9.217a1.193 1.193 0 110-2.385 1.193 1.193 0 010 2.385z"/><path d="M17.5 0C7.942 0 .192 7.75.192 17.308S7.942 34.617 17.5 34.617s17.308-7.75 17.308-17.309C34.808 7.751 27.058 0 17.5 0zm9.879 21.406c-.048 1.058-.216 1.78-.462 2.413a5.082 5.082 0 01-2.907 2.906c-.632.246-1.354.414-2.412.462-1.06.049-1.399.06-4.098.06-2.7 0-3.037-.011-4.098-.06-1.057-.048-1.78-.216-2.412-.462a4.869 4.869 0 01-1.76-1.146 4.87 4.87 0 01-1.147-1.76c-.245-.632-.414-1.355-.462-2.413-.048-1.06-.06-1.398-.06-4.098 0-2.699.012-3.037.06-4.097.048-1.058.216-1.78.462-2.413a4.868 4.868 0 011.147-1.76 4.868 4.868 0 011.76-1.147c.632-.245 1.354-.413 2.412-.461 1.06-.049 1.399-.06 4.098-.06 2.7 0 3.038.011 4.098.06 1.058.048 1.78.216 2.412.461a4.87 4.87 0 011.76 1.147 4.87 4.87 0 011.147 1.76c.246.633.414 1.355.462 2.413.048 1.06.06 1.398.06 4.097 0 2.7-.012 3.038-.06 4.098z"/></g><defs><clipPath id="clip0"><path fill="#fff" transform="translate(.192)" d="M0 0h34.617v34.617H0z"/></clipPath></defs></svg>