<svg width="35" height="35" fill="none" xmlns="http://www.w3.org/2000/svg"><g clip-path="url(#clip0)"><path d="M17.692 0C8.134 0 .383 7.75.383 17.308s7.75 17.309 17.309 17.309c9.557 0 17.308-7.75 17.308-17.309C35 7.751 27.25 0 17.692 0zm7.902 13.495c.008.17.012.342.012.514 0 5.25-3.996 11.303-11.304 11.303a11.25 11.25 0 01-6.09-1.785c.312.037.628.055.949.055a7.971 7.971 0 004.934-1.7 3.977 3.977 0 01-3.712-2.76 3.952 3.952 0 001.795-.068A3.974 3.974 0 018.99 15.16v-.05a3.944 3.944 0 001.8.496A3.969 3.969 0 019.022 12.3c0-.727.197-1.41.538-1.996a11.28 11.28 0 008.19 4.15 3.974 3.974 0 016.77-3.623 7.967 7.967 0 002.522-.964 3.988 3.988 0 01-1.747 2.197 7.922 7.922 0 002.281-.625 8.072 8.072 0 01-1.982 2.057z" fill="#fff"/></g><defs><clipPath id="clip0"><path fill="#fff" transform="translate(.383)" d="M0 0h34.617v34.617H0z"/></clipPath></defs></svg>