<svg width="60" height="60" viewBox="0 0 60 60" fill="none" xmlns="http://www.w3.org/2000/svg">
<rect width="60" height="60" rx="20" fill="#1AB7EA"/>
<path d="M52 47.6C52 50.02 50.02 52 47.6 52H12.4C9.98 52 8 50.02 8 47.6V12.4C8 9.98 9.98 8 12.4 8H47.6C50.02 8 52 9.98 52 12.4V47.6Z" fill="#1AB7EA"/>
<path d="M45.0322 22.6308C44.8855 25.7108 42.7222 29.9641 38.5422 35.3541C34.2155 40.9641 30.5489 43.7874 27.5789 43.7874C25.7089 43.7874 24.1689 42.0641 22.8855 38.6541C22.0422 35.5008 21.1622 32.3841 20.3189 29.2308C19.3655 25.8208 18.3389 24.0974 17.2389 24.0974C17.0189 24.0974 16.1755 24.6108 14.7455 25.6008L13.2422 23.6574C14.8189 22.2641 16.3589 20.9074 17.8989 19.5141C19.9889 17.7174 21.5655 16.7641 22.6289 16.6541C25.0855 16.4341 26.6255 18.1208 27.2122 21.7141C27.8355 25.6374 28.2755 28.0574 28.4955 29.0108C29.1922 32.2374 29.9989 33.8874 30.8422 33.8874C31.5022 33.8874 32.4922 32.8241 33.8489 30.7341C35.1689 28.6441 35.9022 27.0308 35.9755 25.9308C36.1589 24.1341 35.4622 23.2174 33.8489 23.2174C33.0789 23.2174 32.3089 23.4008 31.5022 23.7308C33.0789 18.5974 36.0489 16.1408 40.4489 16.2874C43.6755 16.3608 45.2155 18.4874 45.0322 22.6308Z" fill="white"/>
</svg>
