<svg width="336" height="660" viewBox="0 0 336 660" fill="none" xmlns="http://www.w3.org/2000/svg">
<path fill-rule="evenodd" clip-rule="evenodd" d="M5.0018 344.94C5.0018 343.559 3.88211 342.44 2.5009 342.44C1.11969 342.44 -1.41803e-06 343.559 -1.35766e-06 344.94C-1.29728e-06 346.322 1.11969 347.441 2.5009 347.441C3.88211 347.441 5.0018 346.322 5.0018 344.94ZM2.5009 313.885C3.88211 313.885 5.0018 315.005 5.0018 316.386C5.0018 317.767 3.88211 318.887 2.5009 318.887C1.11969 318.887 -2.54544e-06 317.767 -2.60582e-06 316.386C-2.66619e-06 315.005 1.11969 313.885 2.5009 313.885ZM2.5009 290.395C3.87394 290.395 5.0018 289.267 5.0018 287.894C5.0018 286.521 3.87394 285.393 2.5009 285.393C1.12786 285.393 -3.91127e-06 286.521 -3.85125e-06 287.894C-3.79123e-06 289.267 1.12786 290.395 2.5009 290.395ZM2.5009 256.831C3.88211 256.831 5.0018 257.951 5.0018 259.332C5.0018 260.713 3.88211 261.833 2.5009 261.833C1.11969 261.833 -5.03936e-06 260.713 -5.09973e-06 259.332C-5.16011e-06 257.951 1.11969 256.831 2.5009 256.831ZM5.0018 230.78C5.0018 229.399 3.88211 228.279 2.5009 228.279C1.11969 228.279 -6.40813e-06 229.399 -6.34775e-06 230.78C-6.28738e-06 232.162 1.11969 233.281 2.5009 233.281C3.88211 233.281 5.0018 232.162 5.0018 230.78ZM5.0018 202.292C5.0018 200.911 3.8821 199.791 2.5009 199.791C1.11969 199.791 -7.65339e-06 200.911 -7.59301e-06 202.292C-7.53264e-06 203.673 1.11969 204.793 2.5009 204.793C3.8821 204.793 5.0018 203.673 5.0018 202.292ZM2.50872 370.998C3.88992 370.998 5.00962 372.118 5.00962 373.499C5.00962 374.88 3.88992 376 2.50872 376C1.12751 376 0.00781245 374.88 0.00781239 373.499C0.00781233 372.118 1.12751 370.998 2.50872 370.998ZM30.3924 202.285C30.3924 200.904 29.2727 199.784 27.8915 199.784C26.5103 199.784 25.3906 200.904 25.3906 202.285C25.3906 203.666 26.5103 204.786 27.8915 204.786C29.2727 204.786 30.3924 203.666 30.3924 202.285ZM27.8915 228.272C29.2727 228.272 30.3924 229.391 30.3924 230.773C30.3924 232.154 29.2727 233.273 27.8915 233.273C26.5103 233.273 25.3906 232.154 25.3906 230.773C25.3906 229.391 26.5103 228.272 27.8915 228.272ZM30.3924 259.332C30.3924 257.95 29.2727 256.831 27.8915 256.831C26.5103 256.831 25.3906 257.95 25.3906 259.332C25.3906 260.713 26.5103 261.833 27.8915 261.833C29.2727 261.833 30.3924 260.713 30.3924 259.332ZM30.3924 287.886C30.3924 289.259 29.2646 290.387 27.8915 290.387C26.5185 290.387 25.3906 289.259 25.3906 287.886C25.3906 286.513 26.5185 285.385 27.8915 285.385C29.2646 285.385 30.3924 286.513 30.3924 287.886ZM30.3924 316.378C30.3924 314.997 29.2727 313.877 27.8915 313.877C26.5103 313.877 25.3906 314.997 25.3906 316.378C25.3906 317.759 26.5103 318.879 27.8915 318.879C29.2727 318.879 30.3924 317.759 30.3924 316.378ZM27.8915 342.432C29.2727 342.432 30.3924 343.551 30.3924 344.933C30.3924 346.314 29.2727 347.434 27.8915 347.434C26.5103 347.434 25.3906 346.314 25.3906 344.933C25.3906 343.551 26.5103 342.432 27.8915 342.432ZM30.3885 373.492C30.3885 372.111 29.2688 370.991 27.8876 370.991C26.5064 370.991 25.3867 372.111 25.3867 373.492C25.3867 374.873 26.5064 375.993 27.8876 375.993C29.2688 375.993 30.3885 374.873 30.3885 373.492ZM53.1103 199.787C54.4915 199.787 55.6112 200.907 55.6112 202.288C55.6112 203.669 54.4915 204.789 53.1103 204.789C51.7291 204.789 50.6094 203.669 50.6094 202.288C50.6094 200.907 51.7291 199.787 53.1103 199.787ZM55.6112 230.781C55.6112 229.4 54.4915 228.28 53.1103 228.28C51.7291 228.28 50.6094 229.4 50.6094 230.781C50.6094 232.163 51.7291 233.282 53.1103 233.282C54.4915 233.282 55.6112 232.163 55.6112 230.781ZM53.1103 256.834C54.4915 256.834 55.6112 257.954 55.6112 259.335C55.6112 260.716 54.4915 261.836 53.1103 261.836C51.7291 261.836 50.6094 260.716 50.6094 259.335C50.6094 257.954 51.7291 256.834 53.1103 256.834ZM53.1103 290.395C54.4833 290.395 55.6112 289.267 55.6112 287.894C55.6112 286.521 54.4833 285.393 53.1103 285.393C51.7372 285.393 50.6094 286.521 50.6094 287.894C50.6094 289.267 51.6882 290.395 53.1103 290.395ZM53.1103 313.885C54.4915 313.885 55.6112 315.005 55.6112 316.386C55.6112 317.767 54.4915 318.887 53.1103 318.887C51.7291 318.887 50.6094 317.767 50.6094 316.386C50.6094 315.005 51.7291 313.885 53.1103 313.885ZM55.6112 344.941C55.6112 343.56 54.4915 342.441 53.1103 342.441C51.7291 342.441 50.6094 343.56 50.6094 344.941C50.6094 346.323 51.7291 347.442 53.1103 347.442C54.4915 347.442 55.6112 346.323 55.6112 344.941ZM53.1103 370.993C54.4915 370.993 55.6112 372.113 55.6112 373.494C55.6112 374.875 54.4915 375.995 53.1103 375.995C51.7291 375.995 50.6094 374.875 50.6094 373.494C50.6094 372.113 51.7291 370.993 53.1103 370.993ZM80.9354 202.288C80.9354 200.907 79.8157 199.787 78.4345 199.787C77.0533 199.787 75.9336 200.907 75.9336 202.288C75.9336 203.669 77.0533 204.789 78.4345 204.789C79.8157 204.789 80.9354 203.669 80.9354 202.288ZM78.4345 228.279C79.8157 228.279 80.9354 229.399 80.9354 230.78C80.9354 232.162 79.8157 233.281 78.4345 233.281C77.0533 233.281 75.9336 232.162 75.9336 230.78C75.9336 229.399 77.0533 228.279 78.4345 228.279ZM80.9352 259.334C80.9352 257.953 79.8155 256.833 78.4343 256.833C77.053 256.833 75.9334 257.953 75.9334 259.334C75.9334 260.715 77.053 261.835 78.4343 261.835C79.8155 261.835 80.9352 260.715 80.9352 259.334ZM80.9352 287.89C80.9352 289.263 79.8073 290.391 78.4343 290.391C77.0612 290.391 75.9334 289.263 75.9334 287.89C75.9334 286.517 77.0612 285.389 78.4343 285.389C79.8073 285.389 80.9352 286.517 80.9352 287.89ZM80.9354 316.386C80.9354 315.005 79.8157 313.885 78.4345 313.885C77.0533 313.885 75.9336 315.005 75.9336 316.386C75.9336 317.767 77.0533 318.887 78.4345 318.887C79.8157 318.887 80.9354 317.767 80.9354 316.386ZM78.4345 342.44C79.8157 342.44 80.9354 343.559 80.9354 344.94C80.9354 346.322 79.8157 347.441 78.4345 347.441C77.0533 347.441 75.9336 346.322 75.9336 344.94C75.9336 343.559 77.0533 342.44 78.4345 342.44ZM80.9354 373.495C80.9354 372.114 79.8157 370.994 78.4345 370.994C77.0533 370.994 75.9336 372.114 75.9336 373.495C75.9336 374.876 77.0533 375.996 78.4345 375.996C79.8157 375.996 80.9354 374.876 80.9354 373.495ZM103.817 199.791C105.199 199.791 106.318 200.911 106.318 202.292C106.318 203.673 105.199 204.793 103.817 204.793C102.436 204.793 101.316 203.673 101.316 202.292C101.316 200.911 102.436 199.791 103.817 199.791ZM106.318 230.78C106.318 229.399 105.199 228.279 103.817 228.279C102.436 228.279 101.316 229.399 101.316 230.78C101.316 232.162 102.436 233.281 103.817 233.281C105.199 233.281 106.318 232.162 106.318 230.78ZM103.817 256.834C105.199 256.834 106.318 257.954 106.318 259.335C106.318 260.716 105.199 261.836 103.817 261.836C102.436 261.836 101.316 260.716 101.316 259.335C101.316 257.954 102.436 256.834 103.817 256.834ZM103.817 290.395C105.19 290.395 106.318 289.267 106.318 287.894C106.318 286.521 105.19 285.393 103.817 285.393C102.444 285.393 101.316 286.521 101.316 287.894C101.316 289.267 102.444 290.395 103.817 290.395ZM103.817 313.885C105.199 313.885 106.318 315.005 106.318 316.386C106.318 317.767 105.199 318.887 103.817 318.887C102.436 318.887 101.316 317.767 101.316 316.386C101.316 315.005 102.436 313.885 103.817 313.885ZM106.319 344.941C106.319 343.56 105.199 342.441 103.818 342.441C102.437 342.441 101.317 343.56 101.317 344.941C101.317 346.323 102.437 347.442 103.818 347.442C105.199 347.442 106.319 346.323 106.319 344.941ZM103.817 370.994C105.199 370.994 106.318 372.114 106.318 373.495C106.318 374.876 105.199 375.996 103.817 375.996C102.436 375.996 101.316 374.876 101.316 373.495C101.316 372.114 102.436 370.994 103.817 370.994ZM131.537 202.288C131.537 200.907 130.417 199.787 129.036 199.787C127.655 199.787 126.535 200.907 126.535 202.288C126.535 203.669 127.655 204.789 129.036 204.789C130.417 204.789 131.537 203.669 131.537 202.288ZM129.036 228.28C130.417 228.28 131.537 229.4 131.537 230.781C131.537 232.163 130.417 233.282 129.036 233.282C127.655 233.282 126.535 232.163 126.535 230.781C126.535 229.4 127.655 228.28 129.036 228.28ZM131.537 259.335C131.537 257.954 130.417 256.834 129.036 256.834C127.655 256.834 126.535 257.954 126.535 259.335C126.535 260.716 127.655 261.836 129.036 261.836C130.417 261.836 131.537 260.716 131.537 259.335ZM131.537 287.894C131.537 289.267 130.409 290.395 129.036 290.395C127.614 290.395 126.535 289.267 126.535 287.894C126.535 286.521 127.663 285.393 129.036 285.393C130.409 285.393 131.537 286.521 131.537 287.894ZM131.537 316.386C131.537 315.005 130.417 313.885 129.036 313.885C127.655 313.885 126.535 315.005 126.535 316.386C126.535 317.767 127.655 318.887 129.036 318.887C130.417 318.887 131.537 317.767 131.537 316.386ZM129.036 342.441C130.417 342.441 131.537 343.56 131.537 344.941C131.537 346.323 130.417 347.442 129.036 347.442C127.655 347.442 126.535 346.323 126.535 344.941C126.535 343.56 127.655 342.441 129.036 342.441ZM131.537 373.494C131.537 372.113 130.417 370.993 129.036 370.993C127.655 370.993 126.535 372.113 126.535 373.494C126.535 374.875 127.655 375.995 129.036 375.995C130.417 375.995 131.537 374.875 131.537 373.494ZM154.544 199.787C155.925 199.787 157.045 200.907 157.045 202.288C157.045 203.669 155.925 204.789 154.544 204.789C153.163 204.789 152.043 203.669 152.043 202.288C152.043 200.907 153.163 199.787 154.544 199.787ZM157.044 230.777C157.044 229.396 155.925 228.276 154.543 228.276C153.162 228.276 152.042 229.396 152.042 230.777C152.042 232.158 153.162 233.278 154.543 233.278C155.925 233.278 157.044 232.158 157.044 230.777ZM154.543 256.833C155.925 256.833 157.044 257.953 157.044 259.334C157.044 260.715 155.925 261.835 154.543 261.835C153.162 261.835 152.042 260.715 152.042 259.334C152.042 257.953 153.162 256.833 154.543 256.833ZM154.544 290.395C155.917 290.395 157.045 289.267 157.045 287.894C157.045 286.521 155.917 285.393 154.544 285.393C153.171 285.393 152.043 286.521 152.043 287.894C152.043 289.267 153.171 290.395 154.544 290.395ZM154.543 313.88C155.925 313.88 157.044 315 157.044 316.381C157.044 317.762 155.925 318.882 154.543 318.882C153.162 318.882 152.042 317.762 152.042 316.381C152.042 315 153.162 313.88 154.543 313.88ZM157.045 344.94C157.045 343.559 155.925 342.44 154.544 342.44C153.163 342.44 152.043 343.559 152.043 344.94C152.043 346.322 153.163 347.441 154.544 347.441C155.925 347.441 157.045 346.322 157.045 344.94ZM154.544 370.994C155.925 370.994 157.045 372.114 157.045 373.495C157.045 374.876 155.925 375.996 154.544 375.996C153.163 375.996 152.043 374.876 152.043 373.495C152.043 372.114 153.163 370.994 154.544 370.994Z" fill="#9AADFF" fill-opacity="0.51"/>
<path fill-rule="evenodd" clip-rule="evenodd" d="M5.0018 146.47C5.0018 145.089 3.88211 143.969 2.5009 143.969C1.11969 143.969 -1.41803e-06 145.089 -1.35766e-06 146.47C-1.29728e-06 147.851 1.11969 148.971 2.5009 148.971C3.88211 148.971 5.0018 147.851 5.0018 146.47ZM2.5009 115.414C3.88211 115.414 5.0018 116.534 5.0018 117.915C5.0018 119.296 3.88211 120.416 2.5009 120.416C1.11969 120.416 -2.54544e-06 119.296 -2.60582e-06 117.915C-2.66619e-06 116.534 1.11969 115.414 2.5009 115.414ZM2.5009 91.9238C3.87394 91.9238 5.0018 90.796 5.0018 89.4229C5.0018 88.0499 3.87394 86.922 2.5009 86.922C1.12786 86.922 -3.91127e-06 88.0499 -3.85125e-06 89.4229C-3.79123e-06 90.796 1.12786 91.9238 2.5009 91.9238ZM2.5009 58.3601C3.88211 58.3601 5.0018 59.4798 5.0018 60.861C5.0018 62.2422 3.88211 63.3619 2.5009 63.3619C1.11969 63.3619 -5.03936e-06 62.2422 -5.09973e-06 60.861C-5.16011e-06 59.4798 1.11969 58.3601 2.5009 58.3601ZM5.0018 32.3096C5.0018 30.9284 3.88211 29.8087 2.5009 29.8087C1.11969 29.8087 -6.40813e-06 30.9284 -6.34775e-06 32.3096C-6.28738e-06 33.6909 1.11969 34.8105 2.5009 34.8105C3.88211 34.8105 5.0018 33.6909 5.0018 32.3096ZM5.0018 3.82137C5.0018 2.44014 3.8821 1.32046 2.5009 1.32046C1.11969 1.32047 -7.65339e-06 2.44014 -7.59301e-06 3.82137C-7.53264e-06 5.20258 1.11969 6.32227 2.5009 6.32227C3.8821 6.32227 5.0018 5.20258 5.0018 3.82137ZM2.50872 172.527C3.88992 172.527 5.00962 173.647 5.00962 175.028C5.00962 176.41 3.88992 177.529 2.50872 177.529C1.12751 177.529 0.00781245 176.41 0.00781239 175.028C0.00781233 173.647 1.12751 172.527 2.50872 172.527ZM30.3924 3.81428C30.3924 2.43306 29.2727 1.31338 27.8915 1.31338C26.5103 1.31338 25.3906 2.43306 25.3906 3.81428C25.3906 5.19549 26.5103 6.31518 27.8915 6.31518C29.2727 6.31518 30.3924 5.19549 30.3924 3.81428ZM27.8915 29.8009C29.2727 29.8009 30.3924 30.9206 30.3924 32.3018C30.3924 33.683 29.2727 34.8027 27.8915 34.8027C26.5103 34.8027 25.3906 33.683 25.3906 32.3018C25.3906 30.9206 26.5103 29.8009 27.8915 29.8009ZM30.3924 60.8609C30.3924 59.4797 29.2727 58.36 27.8915 58.36C26.5103 58.36 25.3906 59.4797 25.3906 60.8609C25.3906 62.2421 26.5103 63.3618 27.8915 63.3618C29.2727 63.3618 30.3924 62.2421 30.3924 60.8609ZM30.3924 89.4151C30.3924 90.7882 29.2646 91.916 27.8915 91.916C26.5185 91.916 25.3906 90.7882 25.3906 89.4151C25.3906 88.0421 26.5185 86.9142 27.8915 86.9142C29.2646 86.9142 30.3924 88.0421 30.3924 89.4151ZM30.3924 117.907C30.3924 116.526 29.2727 115.406 27.8915 115.406C26.5103 115.406 25.3906 116.526 25.3906 117.907C25.3906 119.289 26.5103 120.408 27.8915 120.408C29.2727 120.408 30.3924 119.289 30.3924 117.907ZM27.8915 143.96C29.2727 143.96 30.3924 145.08 30.3924 146.461C30.3924 147.842 29.2727 148.962 27.8915 148.962C26.5103 148.962 25.3906 147.842 25.3906 146.461C25.3906 145.08 26.5103 143.96 27.8915 143.96ZM30.3885 175.021C30.3885 173.64 29.2688 172.52 27.8876 172.52C26.5064 172.52 25.3867 173.64 25.3867 175.021C25.3867 176.403 26.5064 177.522 27.8876 177.522C29.2688 177.522 30.3885 176.403 30.3885 175.021ZM53.1103 1.31656C54.4915 1.31656 55.6112 2.43623 55.6112 3.81746C55.6112 5.19867 54.4915 6.31836 53.1103 6.31836C51.7291 6.31836 50.6094 5.19867 50.6094 3.81746C50.6094 2.43623 51.7291 1.31656 53.1103 1.31656ZM55.6112 32.3096C55.6112 30.9284 54.4915 29.8087 53.1103 29.8087C51.7291 29.8087 50.6094 30.9284 50.6094 32.3096C50.6094 33.6909 51.7291 34.8105 53.1103 34.8105C54.4915 34.8105 55.6112 33.6909 55.6112 32.3096ZM53.1103 58.3673C54.4915 58.3673 55.6112 59.487 55.6112 60.8682C55.6112 62.2495 54.4915 63.3691 53.1103 63.3691C51.7291 63.3691 50.6094 62.2495 50.6094 60.8682C50.6094 59.487 51.7291 58.3673 53.1103 58.3673ZM53.1103 91.9238C54.4833 91.9238 55.6112 90.796 55.6112 89.4229C55.6112 88.0499 54.4833 86.922 53.1103 86.922C51.7372 86.922 50.6094 88.0499 50.6094 89.4229C50.6094 90.796 51.6882 91.9238 53.1103 91.9238ZM53.1103 115.414C54.4915 115.414 55.6112 116.534 55.6112 117.915C55.6112 119.296 54.4915 120.416 53.1103 120.416C51.7291 120.416 50.6094 119.296 50.6094 117.915C50.6094 116.534 51.7291 115.414 53.1103 115.414ZM55.6112 146.471C55.6112 145.09 54.4915 143.97 53.1103 143.97C51.7291 143.97 50.6094 145.09 50.6094 146.471C50.6094 147.852 51.7291 148.972 53.1103 148.972C54.4915 148.972 55.6112 147.852 55.6112 146.471ZM53.1103 172.523C54.4915 172.523 55.6112 173.643 55.6112 175.024C55.6112 176.405 54.4915 177.525 53.1103 177.525C51.7291 177.525 50.6094 176.405 50.6094 175.024C50.6094 173.643 51.7291 172.523 53.1103 172.523ZM80.9352 3.81685C80.9352 2.43562 79.8155 1.31594 78.4342 1.31595C77.053 1.31595 75.9333 2.43562 75.9333 3.81685C75.9333 5.19806 77.053 6.31775 78.4343 6.31775C79.8155 6.31775 80.9352 5.19806 80.9352 3.81685ZM78.4345 29.8087C79.8157 29.8087 80.9354 30.9284 80.9354 32.3096C80.9354 33.6909 79.8157 34.8105 78.4345 34.8105C77.0533 34.8105 75.9336 33.6909 75.9336 32.3096C75.9336 30.9284 77.0533 29.8087 78.4345 29.8087ZM80.9352 60.8636C80.9352 59.4824 79.8155 58.3627 78.4343 58.3627C77.053 58.3627 75.9334 59.4824 75.9334 60.8636C75.9334 62.2449 77.053 63.3645 78.4343 63.3645C79.8155 63.3645 80.9352 62.2449 80.9352 60.8636ZM80.9352 89.4192C80.9352 90.7923 79.8073 91.9201 78.4343 91.9201C77.0612 91.9201 75.9334 90.7923 75.9334 89.4192C75.9334 88.0462 77.0612 86.9183 78.4343 86.9183C79.8073 86.9183 80.9352 88.0462 80.9352 89.4192ZM80.9354 117.915C80.9354 116.534 79.8157 115.414 78.4345 115.414C77.0533 115.414 75.9336 116.534 75.9336 117.915C75.9336 119.296 77.0533 120.416 78.4345 120.416C79.8157 120.416 80.9354 119.296 80.9354 117.915ZM78.4345 143.969C79.8157 143.969 80.9354 145.089 80.9354 146.47C80.9354 147.851 79.8157 148.971 78.4345 148.971C77.0533 148.971 75.9336 147.851 75.9336 146.47C75.9336 145.089 77.0533 143.969 78.4345 143.969ZM80.9352 175.024C80.9352 173.643 79.8155 172.523 78.4343 172.523C77.0531 172.523 75.9334 173.643 75.9334 175.024C75.9334 176.405 77.0531 177.525 78.4343 177.525C79.8155 177.525 80.9352 176.405 80.9352 175.024ZM103.817 1.32046C105.199 1.32046 106.318 2.44014 106.318 3.82136C106.318 5.20257 105.199 6.32226 103.817 6.32226C102.436 6.32226 101.316 5.20257 101.316 3.82136C101.316 2.44014 102.436 1.32046 103.817 1.32046ZM106.318 32.3096C106.318 30.9284 105.199 29.8087 103.817 29.8087C102.436 29.8087 101.316 30.9284 101.316 32.3096C101.316 33.6909 102.436 34.8105 103.817 34.8105C105.199 34.8105 106.318 33.6909 106.318 32.3096ZM103.817 58.3673C105.199 58.3673 106.318 59.487 106.318 60.8682C106.318 62.2495 105.199 63.3691 103.817 63.3691C102.436 63.3691 101.316 62.2495 101.316 60.8682C101.316 59.487 102.436 58.3673 103.817 58.3673ZM103.817 91.9238C105.19 91.9238 106.318 90.796 106.318 89.4229C106.318 88.0499 105.19 86.922 103.817 86.922C102.444 86.922 101.316 88.0499 101.316 89.4229C101.316 90.796 102.444 91.9238 103.817 91.9238ZM103.817 115.414C105.199 115.414 106.318 116.534 106.318 117.915C106.318 119.296 105.199 120.416 103.817 120.416C102.436 120.416 101.316 119.296 101.316 117.915C101.316 116.534 102.436 115.414 103.817 115.414ZM106.319 146.471C106.319 145.089 105.199 143.97 103.818 143.97C102.437 143.97 101.317 145.089 101.317 146.471C101.317 147.852 102.437 148.972 103.818 148.972C105.199 148.972 106.319 147.852 106.319 146.471ZM103.817 172.524C105.199 172.524 106.318 173.643 106.318 175.025C106.318 176.406 105.199 177.525 103.817 177.525C102.436 177.525 101.316 176.406 101.316 175.025C101.316 173.643 102.436 172.524 103.817 172.524ZM131.537 3.81745C131.537 2.43623 130.417 1.31655 129.036 1.31655C127.655 1.31655 126.535 2.43623 126.535 3.81745C126.535 5.19866 127.655 6.31835 129.036 6.31835C130.417 6.31835 131.537 5.19866 131.537 3.81745ZM129.036 29.8087C130.417 29.8087 131.537 30.9284 131.537 32.3096C131.537 33.6909 130.417 34.8105 129.036 34.8105C127.655 34.8105 126.535 33.6909 126.535 32.3096C126.535 30.9284 127.655 29.8087 129.036 29.8087ZM131.537 60.8682C131.537 59.487 130.417 58.3673 129.036 58.3673C127.655 58.3673 126.535 59.487 126.535 60.8682C126.535 62.2495 127.655 63.3691 129.036 63.3691C130.417 63.3691 131.537 62.2495 131.537 60.8682ZM131.537 89.4229C131.537 90.796 130.409 91.9238 129.036 91.9238C127.614 91.9238 126.535 90.796 126.535 89.4229C126.535 88.0499 127.663 86.922 129.036 86.922C130.409 86.922 131.537 88.0499 131.537 89.4229ZM131.537 117.915C131.537 116.534 130.417 115.414 129.036 115.414C127.655 115.414 126.535 116.534 126.535 117.915C126.535 119.296 127.655 120.416 129.036 120.416C130.417 120.416 131.537 119.296 131.537 117.915ZM129.036 143.97C130.417 143.97 131.537 145.09 131.537 146.471C131.537 147.852 130.417 148.972 129.036 148.972C127.655 148.972 126.535 147.852 126.535 146.471C126.535 145.09 127.655 143.97 129.036 143.97ZM131.537 175.024C131.537 173.643 130.417 172.523 129.036 172.523C127.655 172.523 126.535 173.643 126.535 175.024C126.535 176.405 127.655 177.525 129.036 177.525C130.417 177.525 131.537 176.405 131.537 175.024ZM154.543 1.31594C155.925 1.31594 157.044 2.43562 157.044 3.81684C157.044 5.19805 155.925 6.31774 154.543 6.31774C153.162 6.31774 152.042 5.19805 152.042 3.81684C152.042 2.43562 153.162 1.31594 154.543 1.31594ZM157.044 32.3062C157.044 30.925 155.925 29.8053 154.543 29.8053C153.162 29.8053 152.042 30.925 152.042 32.3062C152.042 33.6874 153.162 34.8071 154.543 34.8071C155.925 34.8071 157.044 33.6874 157.044 32.3062ZM154.543 58.3627C155.925 58.3627 157.044 59.4824 157.044 60.8636C157.044 62.2449 155.925 63.3645 154.543 63.3645C153.162 63.3645 152.042 62.2449 152.042 60.8636C152.042 59.4824 153.162 58.3627 154.543 58.3627ZM154.544 91.9238C155.917 91.9238 157.045 90.796 157.045 89.4229C157.045 88.0499 155.917 86.922 154.544 86.922C153.171 86.922 152.043 88.0499 152.043 89.4229C152.043 90.796 153.171 91.9238 154.544 91.9238ZM154.543 115.41C155.925 115.41 157.044 116.529 157.044 117.911C157.044 119.292 155.925 120.412 154.543 120.412C153.162 120.412 152.042 119.292 152.042 117.911C152.042 116.529 153.162 115.41 154.543 115.41ZM157.045 146.47C157.045 145.089 155.925 143.969 154.544 143.969C153.163 143.969 152.043 145.089 152.043 146.47C152.043 147.851 153.163 148.971 154.544 148.971C155.925 148.971 157.045 147.851 157.045 146.47ZM154.544 172.524C155.925 172.524 157.045 173.643 157.045 175.025C157.045 176.406 155.925 177.525 154.544 177.525C153.163 177.525 152.043 176.406 152.043 175.025C152.043 173.643 153.163 172.524 154.544 172.524Z" fill="#9AADFF" fill-opacity="0.51"/>
<path fill-rule="evenodd" clip-rule="evenodd" d="M183.041 344.626C183.041 343.245 181.921 342.125 180.54 342.125C179.159 342.125 178.039 343.245 178.039 344.626C178.039 346.007 179.159 347.127 180.54 347.127C181.921 347.127 183.041 346.007 183.041 344.626ZM180.54 313.567C181.921 313.567 183.041 314.686 183.041 316.067C183.041 317.449 181.921 318.568 180.54 318.568C179.159 318.568 178.039 317.449 178.039 316.067C178.039 314.686 179.159 313.567 180.54 313.567ZM180.54 290.08C181.913 290.08 183.041 288.952 183.041 287.579C183.041 286.206 181.913 285.078 180.54 285.078C179.167 285.078 178.039 286.206 178.039 287.579C178.039 288.952 179.167 290.08 180.54 290.08ZM180.54 256.516C181.921 256.516 183.041 257.636 183.041 259.017C183.041 260.399 181.921 261.518 180.54 261.518C179.159 261.518 178.039 260.399 178.039 259.017C178.039 257.636 179.159 256.516 180.54 256.516ZM183.041 230.466C183.041 229.085 181.921 227.965 180.54 227.965C179.159 227.965 178.039 229.085 178.039 230.466C178.039 231.847 179.159 232.967 180.54 232.967C181.921 232.967 183.041 231.847 183.041 230.466ZM183.041 201.974C183.041 200.592 181.921 199.473 180.54 199.473C179.159 199.473 178.039 200.592 178.039 201.974C178.039 203.355 179.159 204.475 180.54 204.475C181.921 204.475 183.041 203.355 183.041 201.974ZM180.547 370.684C181.929 370.684 183.048 371.803 183.048 373.185C183.048 374.566 181.929 375.686 180.547 375.686C179.166 375.686 178.046 374.566 178.046 373.185C178.046 371.803 179.166 370.684 180.547 370.684ZM208.431 201.97C208.431 200.589 207.312 199.469 205.931 199.469C204.549 199.469 203.43 200.589 203.43 201.97C203.43 203.352 204.549 204.471 205.931 204.471C207.312 204.471 208.431 203.352 208.431 201.97ZM205.931 227.957C207.312 227.957 208.431 229.077 208.431 230.458C208.431 231.839 207.312 232.959 205.931 232.959C204.549 232.959 203.43 231.839 203.43 230.458C203.43 229.077 204.549 227.957 205.931 227.957ZM208.431 259.017C208.431 257.636 207.312 256.517 205.931 256.517C204.549 256.517 203.43 257.636 203.43 259.017C203.43 260.399 204.549 261.518 205.931 261.518C207.312 261.518 208.431 260.399 208.431 259.017ZM208.431 287.571C208.431 288.944 207.304 290.072 205.931 290.072C204.558 290.072 203.43 288.944 203.43 287.571C203.43 286.198 204.558 285.07 205.931 285.07C207.304 285.07 208.431 286.198 208.431 287.571ZM208.431 316.064C208.431 314.682 207.312 313.563 205.931 313.563C204.549 313.563 203.43 314.682 203.43 316.064C203.43 317.445 204.549 318.564 205.931 318.564C207.312 318.564 208.431 317.445 208.431 316.064ZM205.931 342.116C207.312 342.116 208.431 343.236 208.431 344.617C208.431 345.998 207.312 347.118 205.931 347.118C204.549 347.118 203.43 345.998 203.43 344.617C203.43 343.236 204.549 342.116 205.931 342.116ZM208.428 373.177C208.428 371.796 207.308 370.676 205.927 370.676C204.545 370.676 203.426 371.796 203.426 373.177C203.426 374.559 204.545 375.678 205.927 375.678C207.308 375.678 208.428 374.559 208.428 373.177ZM231.149 199.473C232.531 199.473 233.65 200.592 233.65 201.974C233.65 203.355 232.531 204.475 231.149 204.475C229.768 204.475 228.648 203.355 228.648 201.974C228.648 200.592 229.768 199.473 231.149 199.473ZM233.65 230.466C233.65 229.085 232.531 227.965 231.149 227.965C229.768 227.965 228.648 229.085 228.648 230.466C228.648 231.847 229.768 232.967 231.149 232.967C232.531 232.967 233.65 231.847 233.65 230.466ZM231.149 256.52C232.531 256.52 233.65 257.639 233.65 259.021C233.65 260.402 232.531 261.521 231.149 261.521C229.768 261.521 228.648 260.402 228.648 259.021C228.648 257.639 229.768 256.52 231.149 256.52ZM231.149 290.08C232.522 290.08 233.65 288.952 233.65 287.579C233.65 286.206 232.522 285.078 231.149 285.078C229.776 285.078 228.648 286.206 228.648 287.579C228.648 288.952 229.727 290.08 231.149 290.08ZM231.149 313.567C232.531 313.567 233.65 314.686 233.65 316.067C233.65 317.449 232.531 318.568 231.149 318.568C229.768 318.568 228.648 317.449 228.648 316.067C228.648 314.686 229.768 313.567 231.149 313.567ZM233.65 344.627C233.65 343.245 232.531 342.126 231.149 342.126C229.768 342.126 228.648 343.245 228.648 344.627C228.648 346.008 229.768 347.127 231.149 347.127C232.531 347.127 233.65 346.008 233.65 344.627ZM231.149 370.68C232.531 370.68 233.65 371.8 233.65 373.181C233.65 374.562 232.531 375.682 231.149 375.682C229.768 375.682 228.648 374.562 228.648 373.181C228.648 371.8 229.768 370.68 231.149 370.68ZM258.974 201.974C258.974 200.592 257.855 199.473 256.474 199.473C255.092 199.473 253.973 200.592 253.973 201.974C253.973 203.355 255.092 204.475 256.474 204.475C257.855 204.475 258.974 203.355 258.974 201.974ZM256.474 227.965C257.855 227.965 258.974 229.085 258.974 230.466C258.974 231.847 257.855 232.967 256.474 232.967C255.092 232.967 253.973 231.847 253.973 230.466C253.973 229.085 255.092 227.965 256.474 227.965ZM258.974 259.021C258.974 257.639 257.855 256.52 256.474 256.52C255.092 256.52 253.973 257.639 253.973 259.021C253.973 260.402 255.092 261.521 256.474 261.521C257.855 261.521 258.974 260.402 258.974 259.021ZM258.974 287.575C258.974 288.948 257.846 290.076 256.473 290.076C255.1 290.076 253.972 288.948 253.972 287.575C253.972 286.202 255.1 285.074 256.473 285.074C257.846 285.074 258.974 286.202 258.974 287.575ZM258.974 316.067C258.974 314.686 257.855 313.567 256.474 313.567C255.092 313.567 253.973 314.686 253.973 316.067C253.973 317.449 255.092 318.568 256.474 318.568C257.855 318.568 258.974 317.449 258.974 316.067ZM256.474 342.125C257.855 342.125 258.974 343.245 258.974 344.626C258.974 346.007 257.855 347.127 256.474 347.127C255.092 347.127 253.973 346.007 253.973 344.626C253.973 343.245 255.092 342.125 256.474 342.125ZM258.974 373.181C258.974 371.8 257.855 370.68 256.474 370.68C255.092 370.68 253.973 371.8 253.973 373.181C253.973 374.562 255.092 375.682 256.474 375.682C257.855 375.682 258.974 374.562 258.974 373.181ZM281.856 199.473C283.238 199.473 284.357 200.592 284.357 201.974C284.357 203.355 283.238 204.475 281.856 204.475C280.475 204.475 279.355 203.355 279.355 201.974C279.355 200.592 280.475 199.473 281.856 199.473ZM284.357 230.466C284.357 229.085 283.238 227.965 281.856 227.965C280.475 227.965 279.355 229.085 279.355 230.466C279.355 231.847 280.475 232.967 281.856 232.967C283.238 232.967 284.357 231.847 284.357 230.466ZM281.856 256.52C283.238 256.52 284.357 257.639 284.357 259.021C284.357 260.402 283.238 261.521 281.856 261.521C280.475 261.521 279.355 260.402 279.355 259.021C279.355 257.639 280.475 256.52 281.856 256.52ZM281.856 290.08C283.229 290.08 284.357 288.952 284.357 287.579C284.357 286.206 283.229 285.078 281.856 285.078C280.483 285.078 279.355 286.206 279.355 287.579C279.355 288.952 280.483 290.08 281.856 290.08ZM281.856 313.567C283.238 313.567 284.357 314.686 284.357 316.067C284.357 317.449 283.238 318.568 281.856 318.568C280.475 318.568 279.355 317.449 279.355 316.067C279.355 314.686 280.475 313.567 281.856 313.567ZM284.358 344.627C284.358 343.245 283.238 342.126 281.857 342.126C280.476 342.126 279.356 343.245 279.356 344.627C279.356 346.008 280.476 347.127 281.857 347.127C283.238 347.127 284.358 346.008 284.358 344.627ZM281.856 370.68C283.238 370.68 284.357 371.8 284.357 373.181C284.357 374.562 283.238 375.682 281.856 375.682C280.475 375.682 279.355 374.562 279.355 373.181C279.355 371.8 280.475 370.68 281.856 370.68ZM309.576 201.974C309.576 200.592 308.456 199.473 307.075 199.473C305.694 199.473 304.574 200.592 304.574 201.974C304.574 203.355 305.694 204.475 307.075 204.475C308.456 204.475 309.576 203.355 309.576 201.974ZM307.075 227.965C308.456 227.965 309.576 229.085 309.576 230.466C309.576 231.847 308.456 232.967 307.075 232.967C305.694 232.967 304.574 231.847 304.574 230.466C304.574 229.085 305.694 227.965 307.075 227.965ZM309.576 259.021C309.576 257.639 308.456 256.52 307.075 256.52C305.694 256.52 304.574 257.639 304.574 259.021C304.574 260.402 305.694 261.521 307.075 261.521C308.456 261.521 309.576 260.402 309.576 259.021ZM309.576 287.579C309.576 288.952 308.448 290.08 307.075 290.08C305.653 290.08 304.574 288.952 304.574 287.579C304.574 286.206 305.702 285.078 307.075 285.078C308.448 285.078 309.576 286.206 309.576 287.579ZM309.576 316.067C309.576 314.686 308.456 313.567 307.075 313.567C305.694 313.567 304.574 314.686 304.574 316.067C304.574 317.449 305.694 318.568 307.075 318.568C308.456 318.568 309.576 317.449 309.576 316.067ZM307.075 342.126C308.456 342.126 309.576 343.245 309.576 344.627C309.576 346.008 308.456 347.127 307.075 347.127C305.694 347.127 304.574 346.008 304.574 344.627C304.574 343.245 305.694 342.126 307.075 342.126ZM309.576 373.181C309.576 371.8 308.456 370.68 307.075 370.68C305.694 370.68 304.574 371.8 304.574 373.181C304.574 374.562 305.694 375.682 307.075 375.682C308.456 375.682 309.576 374.562 309.576 373.181ZM332.583 199.473C333.964 199.473 335.084 200.592 335.084 201.974C335.084 203.355 333.964 204.475 332.583 204.475C331.202 204.475 330.082 203.355 330.082 201.974C330.082 200.592 331.202 199.473 332.583 199.473ZM335.083 230.462C335.083 229.081 333.964 227.961 332.582 227.961C331.201 227.961 330.082 229.081 330.082 230.462C330.082 231.843 331.201 232.963 332.582 232.963C333.964 232.963 335.083 231.843 335.083 230.462ZM332.583 256.52C333.964 256.52 335.084 257.639 335.084 259.021C335.084 260.402 333.964 261.521 332.583 261.521C331.202 261.521 330.082 260.402 330.082 259.021C330.082 257.639 331.202 256.52 332.583 256.52ZM332.583 290.08C333.956 290.08 335.084 288.952 335.084 287.579C335.084 286.206 333.956 285.078 332.583 285.078C331.21 285.078 330.082 286.206 330.082 287.579C330.082 288.952 331.21 290.08 332.583 290.08ZM332.582 313.566C333.964 313.566 335.083 314.686 335.083 316.067C335.083 317.448 333.964 318.568 332.582 318.568C331.201 318.568 330.082 317.448 330.082 316.067C330.082 314.686 331.201 313.566 332.582 313.566ZM335.084 344.626C335.084 343.245 333.964 342.125 332.583 342.125C331.202 342.125 330.082 343.245 330.082 344.626C330.082 346.007 331.202 347.127 332.583 347.127C333.964 347.127 335.084 346.007 335.084 344.626ZM332.583 370.68C333.964 370.68 335.084 371.8 335.084 373.181C335.084 374.562 333.964 375.682 332.583 375.682C331.202 375.682 330.082 374.562 330.082 373.181C330.082 371.8 331.202 370.68 332.583 370.68Z" fill="#9AADFF" fill-opacity="0.51"/>
<path fill-rule="evenodd" clip-rule="evenodd" d="M183.041 146.155C183.041 144.774 181.921 143.654 180.54 143.654C179.159 143.654 178.039 144.774 178.039 146.155C178.039 147.537 179.159 148.656 180.54 148.656C181.921 148.656 183.041 147.537 183.041 146.155ZM180.54 115.096C181.921 115.096 183.041 116.216 183.041 117.597C183.041 118.978 181.921 120.098 180.54 120.098C179.159 120.098 178.039 118.978 178.039 117.597C178.039 116.216 179.159 115.096 180.54 115.096ZM180.54 91.6094C181.913 91.6094 183.041 90.4815 183.041 89.1085C183.041 87.7354 181.913 86.6076 180.54 86.6076C179.167 86.6076 178.039 87.7354 178.039 89.1085C178.039 90.4815 179.167 91.6094 180.54 91.6094ZM180.54 58.0458C181.921 58.0458 183.041 59.1655 183.041 60.5467C183.041 61.9279 181.921 63.0476 180.54 63.0476C179.159 63.0476 178.039 61.9279 178.039 60.5467C178.039 59.1655 179.159 58.0458 180.54 58.0458ZM183.041 31.9952C183.041 30.614 181.921 29.4943 180.54 29.4943C179.159 29.4943 178.039 30.614 178.039 31.9952C178.039 33.3764 179.159 34.4961 180.54 34.4961C181.921 34.4961 183.041 33.3764 183.041 31.9952ZM183.041 3.50301C183.041 2.12178 181.921 1.00211 180.54 1.00211C179.159 1.00211 178.039 2.12178 178.039 3.50301C178.039 4.88422 179.159 6.00391 180.54 6.00391C181.921 6.00391 183.041 4.88422 183.041 3.50301ZM180.547 172.213C181.929 172.213 183.048 173.333 183.048 174.714C183.048 176.095 181.929 177.215 180.547 177.215C179.166 177.215 178.046 176.095 178.046 174.714C178.046 173.333 179.166 172.213 180.547 172.213ZM208.431 3.49959C208.431 2.11836 207.312 0.998686 205.931 0.998687C204.549 0.998687 203.43 2.11836 203.43 3.49959C203.43 4.8808 204.549 6.00049 205.931 6.00049C207.312 6.00049 208.431 4.8808 208.431 3.49959ZM205.931 29.4865C207.312 29.4865 208.431 30.6062 208.431 31.9874C208.431 33.3686 207.312 34.4883 205.931 34.4883C204.549 34.4883 203.43 33.3686 203.43 31.9874C203.43 30.6062 204.549 29.4865 205.931 29.4865ZM208.431 60.5467C208.431 59.1655 207.312 58.0458 205.931 58.0458C204.549 58.0458 203.43 59.1655 203.43 60.5467C203.43 61.9279 204.549 63.0476 205.931 63.0476C207.312 63.0476 208.431 61.9279 208.431 60.5467ZM208.431 89.1007C208.431 90.4737 207.304 91.6016 205.931 91.6016C204.558 91.6016 203.43 90.4737 203.43 89.1007C203.43 87.7276 204.558 86.5998 205.931 86.5998C207.304 86.5998 208.431 87.7276 208.431 89.1007ZM208.431 117.593C208.431 116.212 207.312 115.092 205.931 115.092C204.549 115.092 203.43 116.212 203.43 117.593C203.43 118.974 204.549 120.094 205.931 120.094C207.312 120.094 208.431 118.974 208.431 117.593ZM205.931 143.646C207.312 143.646 208.431 144.765 208.431 146.147C208.431 147.528 207.312 148.647 205.931 148.647C204.549 148.647 203.43 147.528 203.43 146.147C203.43 144.765 204.549 143.646 205.931 143.646ZM208.428 174.707C208.428 173.325 207.308 172.206 205.927 172.206C204.545 172.206 203.426 173.325 203.426 174.707C203.426 176.088 204.545 177.208 205.927 177.208C207.308 177.208 208.428 176.088 208.428 174.707ZM231.149 1.0021C232.531 1.0021 233.65 2.12178 233.65 3.503C233.65 4.88421 232.531 6.0039 231.149 6.0039C229.768 6.0039 228.648 4.88421 228.648 3.503C228.648 2.12178 229.768 1.0021 231.149 1.0021ZM233.65 31.9952C233.65 30.614 232.531 29.4943 231.149 29.4943C229.768 29.4943 228.648 30.614 228.648 31.9952C228.648 33.3764 229.768 34.4961 231.149 34.4961C232.531 34.4961 233.65 33.3764 233.65 31.9952ZM231.149 58.049C232.531 58.049 233.65 59.1687 233.65 60.5499C233.65 61.9311 232.531 63.0508 231.149 63.0508C229.768 63.0508 228.648 61.9311 228.648 60.5499C228.648 59.1687 229.768 58.049 231.149 58.049ZM231.149 91.6094C232.522 91.6094 233.65 90.4815 233.65 89.1085C233.65 87.7354 232.522 86.6076 231.149 86.6076C229.776 86.6076 228.648 87.7354 228.648 89.1085C228.648 90.4815 229.727 91.6094 231.149 91.6094ZM231.149 115.096C232.531 115.096 233.65 116.216 233.65 117.597C233.65 118.978 232.531 120.098 231.149 120.098C229.768 120.098 228.648 118.978 228.648 117.597C228.648 116.216 229.768 115.096 231.149 115.096ZM233.65 146.156C233.65 144.775 232.531 143.655 231.149 143.655C229.768 143.655 228.648 144.775 228.648 146.156C228.648 147.537 229.768 148.657 231.149 148.657C232.531 148.657 233.65 147.537 233.65 146.156ZM231.149 172.209C232.531 172.209 233.65 173.329 233.65 174.71C233.65 176.091 232.531 177.211 231.149 177.211C229.768 177.211 228.648 176.091 228.648 174.71C228.648 173.329 229.768 172.209 231.149 172.209ZM258.974 3.503C258.974 2.12178 257.855 1.0021 256.474 1.0021C255.092 1.0021 253.973 2.12178 253.973 3.503C253.973 4.88421 255.092 6.0039 256.474 6.0039C257.855 6.0039 258.974 4.88421 258.974 3.503ZM256.474 29.4943C257.855 29.4943 258.974 30.614 258.974 31.9952C258.974 33.3764 257.855 34.4961 256.474 34.4961C255.092 34.4961 253.973 33.3764 253.973 31.9952C253.973 30.614 255.092 29.4943 256.474 29.4943ZM258.974 60.5493C258.974 59.1681 257.855 58.0484 256.473 58.0484C255.092 58.0484 253.972 59.1681 253.972 60.5493C253.972 61.9305 255.092 63.0502 256.473 63.0502C257.855 63.0502 258.974 61.9305 258.974 60.5493ZM258.974 89.1043C258.974 90.4774 257.846 91.6052 256.473 91.6052C255.1 91.6052 253.972 90.4774 253.972 89.1043C253.972 87.7313 255.1 86.6034 256.473 86.6034C257.846 86.6034 258.974 87.7313 258.974 89.1043ZM258.974 117.597C258.974 116.216 257.855 115.096 256.474 115.096C255.092 115.096 253.973 116.216 253.973 117.597C253.973 118.978 255.092 120.098 256.474 120.098C257.855 120.098 258.974 118.978 258.974 117.597ZM256.474 143.654C257.855 143.654 258.974 144.774 258.974 146.155C258.974 147.537 257.855 148.656 256.474 148.656C255.092 148.656 253.973 147.537 253.973 146.155C253.973 144.774 255.092 143.654 256.474 143.654ZM258.974 174.71C258.974 173.329 257.855 172.209 256.474 172.209C255.092 172.209 253.973 173.329 253.973 174.71C253.973 176.091 255.092 177.211 256.474 177.211C257.855 177.211 258.974 176.091 258.974 174.71ZM281.856 1.0021C283.238 1.0021 284.357 2.12178 284.357 3.503C284.357 4.88421 283.238 6.0039 281.856 6.0039C280.475 6.0039 279.355 4.88421 279.355 3.503C279.355 2.12178 280.475 1.0021 281.856 1.0021ZM284.357 31.9952C284.357 30.614 283.238 29.4943 281.856 29.4943C280.475 29.4943 279.355 30.614 279.355 31.9952C279.355 33.3764 280.475 34.4961 281.856 34.4961C283.238 34.4961 284.357 33.3764 284.357 31.9952ZM281.856 58.049C283.238 58.049 284.357 59.1687 284.357 60.5499C284.357 61.9311 283.238 63.0508 281.856 63.0508C280.475 63.0508 279.355 61.9311 279.355 60.5499C279.355 59.1687 280.475 58.049 281.856 58.049ZM281.856 91.6094C283.229 91.6094 284.357 90.4815 284.357 89.1085C284.357 87.7354 283.229 86.6076 281.856 86.6076C280.483 86.6076 279.355 87.7354 279.355 89.1085C279.355 90.4815 280.483 91.6094 281.856 91.6094ZM281.856 115.096C283.238 115.096 284.357 116.216 284.357 117.597C284.357 118.978 283.238 120.098 281.856 120.098C280.475 120.098 279.355 118.978 279.355 117.597C279.355 116.216 280.475 115.096 281.856 115.096ZM284.357 146.155C284.357 144.774 283.238 143.654 281.856 143.654C280.475 143.654 279.355 144.774 279.355 146.155C279.355 147.537 280.475 148.656 281.856 148.656C283.238 148.656 284.357 147.537 284.357 146.155ZM281.856 172.209C283.238 172.209 284.357 173.329 284.357 174.71C284.357 176.091 283.238 177.211 281.856 177.211C280.475 177.211 279.355 176.091 279.355 174.71C279.355 173.329 280.475 172.209 281.856 172.209ZM309.576 3.503C309.576 2.12177 308.456 1.0021 307.075 1.0021C305.694 1.0021 304.574 2.12177 304.574 3.503C304.574 4.88421 305.694 6.0039 307.075 6.0039C308.456 6.0039 309.576 4.88421 309.576 3.503ZM307.075 29.4943C308.456 29.4943 309.576 30.614 309.576 31.9952C309.576 33.3764 308.456 34.4961 307.075 34.4961C305.694 34.4961 304.574 33.3764 304.574 31.9952C304.574 30.614 305.694 29.4943 307.075 29.4943ZM309.576 60.5499C309.576 59.1687 308.456 58.049 307.075 58.049C305.694 58.049 304.574 59.1687 304.574 60.5499C304.574 61.9311 305.694 63.0508 307.075 63.0508C308.456 63.0508 309.576 61.9311 309.576 60.5499ZM309.576 89.1085C309.576 90.4815 308.448 91.6094 307.075 91.6094C305.653 91.6094 304.574 90.4815 304.574 89.1085C304.574 87.7354 305.702 86.6076 307.075 86.6076C308.448 86.6076 309.576 87.7354 309.576 89.1085ZM309.576 117.597C309.576 116.216 308.456 115.096 307.075 115.096C305.694 115.096 304.574 116.216 304.574 117.597C304.574 118.978 305.694 120.098 307.075 120.098C308.456 120.098 309.576 118.978 309.576 117.597ZM307.075 143.655C308.456 143.655 309.576 144.775 309.576 146.156C309.576 147.537 308.456 148.657 307.075 148.657C305.694 148.657 304.574 147.537 304.574 146.156C304.574 144.775 305.694 143.655 307.075 143.655ZM309.576 174.71C309.576 173.329 308.456 172.209 307.075 172.209C305.694 172.209 304.574 173.329 304.574 174.71C304.574 176.091 305.694 177.211 307.075 177.211C308.456 177.211 309.576 176.091 309.576 174.71ZM332.583 1.0021C333.964 1.0021 335.084 2.12177 335.084 3.503C335.084 4.88421 333.964 6.0039 332.583 6.0039C331.202 6.0039 330.082 4.88421 330.082 3.503C330.082 2.12177 331.202 1.0021 332.583 1.0021ZM335.083 31.9919C335.083 30.6107 333.964 29.491 332.582 29.491C331.201 29.491 330.082 30.6107 330.082 31.9919C330.082 33.3731 331.201 34.4928 332.582 34.4928C333.964 34.4928 335.083 33.3731 335.083 31.9919ZM332.582 58.0484C333.964 58.0484 335.083 59.1681 335.083 60.5493C335.083 61.9305 333.964 63.0502 332.582 63.0502C331.201 63.0502 330.082 61.9305 330.082 60.5493C330.082 59.1681 331.201 58.0484 332.582 58.0484ZM332.583 91.6094C333.956 91.6094 335.084 90.4815 335.084 89.1085C335.084 87.7354 333.956 86.6076 332.583 86.6076C331.21 86.6076 330.082 87.7354 330.082 89.1085C330.082 90.4815 331.21 91.6094 332.583 91.6094ZM332.582 115.095C333.964 115.095 335.083 116.215 335.083 117.596C335.083 118.977 333.964 120.097 332.582 120.097C331.201 120.097 330.082 118.977 330.082 117.596C330.082 116.215 331.201 115.095 332.582 115.095ZM335.084 146.155C335.084 144.774 333.964 143.654 332.583 143.654C331.202 143.654 330.082 144.774 330.082 146.155C330.082 147.537 331.202 148.656 332.583 148.656C333.964 148.656 335.084 147.537 335.084 146.155ZM332.583 172.209C333.964 172.209 335.084 173.329 335.084 174.71C335.084 176.091 333.964 177.211 332.583 177.211C331.202 177.211 330.082 176.091 330.082 174.71C330.082 173.329 331.202 172.209 332.583 172.209Z" fill="#9AADFF" fill-opacity="0.51"/>
<path fill-rule="evenodd" clip-rule="evenodd" d="M5.0018 628.94C5.0018 627.559 3.88211 626.44 2.5009 626.44C1.11969 626.44 -1.41803e-06 627.559 -1.35766e-06 628.94C-1.29728e-06 630.322 1.11969 631.441 2.5009 631.441C3.88211 631.441 5.0018 630.322 5.0018 628.94ZM2.5009 597.885C3.88211 597.885 5.0018 599.005 5.0018 600.386C5.0018 601.767 3.88211 602.887 2.5009 602.887C1.11969 602.887 -2.54544e-06 601.767 -2.60582e-06 600.386C-2.66619e-06 599.005 1.11969 597.885 2.5009 597.885ZM2.5009 574.395C3.87394 574.395 5.0018 573.267 5.0018 571.894C5.0018 570.521 3.87394 569.393 2.5009 569.393C1.12786 569.393 -3.91127e-06 570.521 -3.85125e-06 571.894C-3.79123e-06 573.267 1.12786 574.395 2.5009 574.395ZM2.5009 540.831C3.88211 540.831 5.0018 541.951 5.0018 543.332C5.0018 544.713 3.88211 545.833 2.5009 545.833C1.11969 545.833 -5.03936e-06 544.713 -5.09973e-06 543.332C-5.16011e-06 541.951 1.11969 540.831 2.5009 540.831ZM5.0018 514.78C5.0018 513.399 3.88211 512.279 2.5009 512.279C1.11969 512.279 -6.40813e-06 513.399 -6.34775e-06 514.78C-6.28738e-06 516.162 1.11969 517.281 2.5009 517.281C3.88211 517.281 5.0018 516.162 5.0018 514.78ZM5.0018 486.292C5.0018 484.911 3.8821 483.791 2.5009 483.791C1.11969 483.791 -7.65339e-06 484.911 -7.59301e-06 486.292C-7.53264e-06 487.673 1.11969 488.793 2.5009 488.793C3.8821 488.793 5.0018 487.673 5.0018 486.292ZM2.50872 654.998C3.88992 654.998 5.00962 656.118 5.00962 657.499C5.00962 658.88 3.88992 660 2.50872 660C1.12751 660 0.00781245 658.88 0.00781239 657.499C0.00781233 656.118 1.12751 654.998 2.50872 654.998ZM30.3924 486.285C30.3924 484.904 29.2727 483.784 27.8915 483.784C26.5103 483.784 25.3906 484.904 25.3906 486.285C25.3906 487.666 26.5103 488.786 27.8915 488.786C29.2727 488.786 30.3924 487.666 30.3924 486.285ZM27.8915 512.272C29.2727 512.272 30.3924 513.391 30.3924 514.773C30.3924 516.154 29.2727 517.273 27.8915 517.273C26.5103 517.273 25.3906 516.154 25.3906 514.773C25.3906 513.391 26.5103 512.272 27.8915 512.272ZM30.3924 543.332C30.3924 541.95 29.2727 540.831 27.8915 540.831C26.5103 540.831 25.3906 541.95 25.3906 543.332C25.3906 544.713 26.5103 545.833 27.8915 545.833C29.2727 545.833 30.3924 544.713 30.3924 543.332ZM30.3924 571.886C30.3924 573.259 29.2646 574.387 27.8915 574.387C26.5185 574.387 25.3906 573.259 25.3906 571.886C25.3906 570.513 26.5185 569.385 27.8915 569.385C29.2646 569.385 30.3924 570.513 30.3924 571.886ZM30.3924 600.378C30.3924 598.997 29.2727 597.877 27.8915 597.877C26.5103 597.877 25.3906 598.997 25.3906 600.378C25.3906 601.759 26.5103 602.879 27.8915 602.879C29.2727 602.879 30.3924 601.759 30.3924 600.378ZM27.8915 626.432C29.2727 626.432 30.3924 627.551 30.3924 628.933C30.3924 630.314 29.2727 631.434 27.8915 631.434C26.5103 631.434 25.3906 630.314 25.3906 628.933C25.3906 627.551 26.5103 626.432 27.8915 626.432ZM30.3885 657.492C30.3885 656.111 29.2688 654.991 27.8876 654.991C26.5064 654.991 25.3867 656.111 25.3867 657.492C25.3867 658.873 26.5064 659.993 27.8876 659.993C29.2688 659.993 30.3885 658.873 30.3885 657.492ZM53.1103 483.787C54.4915 483.787 55.6112 484.907 55.6112 486.288C55.6112 487.669 54.4915 488.789 53.1103 488.789C51.7291 488.789 50.6094 487.669 50.6094 486.288C50.6094 484.907 51.7291 483.787 53.1103 483.787ZM55.6112 514.781C55.6112 513.4 54.4915 512.28 53.1103 512.28C51.7291 512.28 50.6094 513.4 50.6094 514.781C50.6094 516.163 51.7291 517.282 53.1103 517.282C54.4915 517.282 55.6112 516.163 55.6112 514.781ZM53.1103 540.834C54.4915 540.834 55.6112 541.954 55.6112 543.335C55.6112 544.716 54.4915 545.836 53.1103 545.836C51.7291 545.836 50.6094 544.716 50.6094 543.335C50.6094 541.954 51.7291 540.834 53.1103 540.834ZM53.1103 574.395C54.4833 574.395 55.6112 573.267 55.6112 571.894C55.6112 570.521 54.4833 569.393 53.1103 569.393C51.7372 569.393 50.6094 570.521 50.6094 571.894C50.6094 573.267 51.6882 574.395 53.1103 574.395ZM53.1103 597.885C54.4915 597.885 55.6112 599.005 55.6112 600.386C55.6112 601.767 54.4915 602.887 53.1103 602.887C51.7291 602.887 50.6094 601.767 50.6094 600.386C50.6094 599.005 51.7291 597.885 53.1103 597.885ZM55.6112 628.941C55.6112 627.56 54.4915 626.441 53.1103 626.441C51.7291 626.441 50.6094 627.56 50.6094 628.941C50.6094 630.323 51.7291 631.442 53.1103 631.442C54.4915 631.442 55.6112 630.323 55.6112 628.941ZM53.1103 654.993C54.4915 654.993 55.6112 656.113 55.6112 657.494C55.6112 658.875 54.4915 659.995 53.1103 659.995C51.7291 659.995 50.6094 658.875 50.6094 657.494C50.6094 656.113 51.7291 654.993 53.1103 654.993ZM80.9354 486.288C80.9354 484.907 79.8157 483.787 78.4345 483.787C77.0533 483.787 75.9336 484.907 75.9336 486.288C75.9336 487.669 77.0533 488.789 78.4345 488.789C79.8157 488.789 80.9354 487.669 80.9354 486.288ZM78.4345 512.279C79.8157 512.279 80.9354 513.399 80.9354 514.78C80.9354 516.162 79.8157 517.281 78.4345 517.281C77.0533 517.281 75.9336 516.162 75.9336 514.78C75.9336 513.399 77.0533 512.279 78.4345 512.279ZM80.9352 543.334C80.9352 541.953 79.8155 540.833 78.4343 540.833C77.053 540.833 75.9334 541.953 75.9334 543.334C75.9334 544.715 77.053 545.835 78.4343 545.835C79.8155 545.835 80.9352 544.715 80.9352 543.334ZM80.9352 571.89C80.9352 573.263 79.8073 574.391 78.4343 574.391C77.0612 574.391 75.9334 573.263 75.9334 571.89C75.9334 570.517 77.0612 569.389 78.4343 569.389C79.8073 569.389 80.9352 570.517 80.9352 571.89ZM80.9354 600.386C80.9354 599.005 79.8157 597.885 78.4345 597.885C77.0533 597.885 75.9336 599.005 75.9336 600.386C75.9336 601.767 77.0533 602.887 78.4345 602.887C79.8157 602.887 80.9354 601.767 80.9354 600.386ZM78.4345 626.44C79.8157 626.44 80.9354 627.559 80.9354 628.94C80.9354 630.322 79.8157 631.441 78.4345 631.441C77.0533 631.441 75.9336 630.322 75.9336 628.94C75.9336 627.559 77.0533 626.44 78.4345 626.44ZM80.9354 657.495C80.9354 656.114 79.8157 654.994 78.4345 654.994C77.0533 654.994 75.9336 656.114 75.9336 657.495C75.9336 658.876 77.0533 659.996 78.4345 659.996C79.8157 659.996 80.9354 658.876 80.9354 657.495ZM103.817 483.791C105.199 483.791 106.318 484.911 106.318 486.292C106.318 487.673 105.199 488.793 103.817 488.793C102.436 488.793 101.316 487.673 101.316 486.292C101.316 484.911 102.436 483.791 103.817 483.791ZM106.318 514.78C106.318 513.399 105.199 512.279 103.817 512.279C102.436 512.279 101.316 513.399 101.316 514.78C101.316 516.162 102.436 517.281 103.817 517.281C105.199 517.281 106.318 516.162 106.318 514.78ZM103.817 540.834C105.199 540.834 106.318 541.954 106.318 543.335C106.318 544.716 105.199 545.836 103.817 545.836C102.436 545.836 101.316 544.716 101.316 543.335C101.316 541.954 102.436 540.834 103.817 540.834ZM103.817 574.395C105.19 574.395 106.318 573.267 106.318 571.894C106.318 570.521 105.19 569.393 103.817 569.393C102.444 569.393 101.316 570.521 101.316 571.894C101.316 573.267 102.444 574.395 103.817 574.395ZM103.817 597.885C105.199 597.885 106.318 599.005 106.318 600.386C106.318 601.767 105.199 602.887 103.817 602.887C102.436 602.887 101.316 601.767 101.316 600.386C101.316 599.005 102.436 597.885 103.817 597.885ZM106.319 628.941C106.319 627.56 105.199 626.441 103.818 626.441C102.437 626.441 101.317 627.56 101.317 628.941C101.317 630.323 102.437 631.442 103.818 631.442C105.199 631.442 106.319 630.323 106.319 628.941ZM103.817 654.994C105.199 654.994 106.318 656.114 106.318 657.495C106.318 658.876 105.199 659.996 103.817 659.996C102.436 659.996 101.316 658.876 101.316 657.495C101.316 656.114 102.436 654.994 103.817 654.994ZM131.537 486.288C131.537 484.907 130.417 483.787 129.036 483.787C127.655 483.787 126.535 484.907 126.535 486.288C126.535 487.669 127.655 488.789 129.036 488.789C130.417 488.789 131.537 487.669 131.537 486.288ZM129.036 512.28C130.417 512.28 131.537 513.4 131.537 514.781C131.537 516.163 130.417 517.282 129.036 517.282C127.655 517.282 126.535 516.163 126.535 514.781C126.535 513.4 127.655 512.28 129.036 512.28ZM131.537 543.335C131.537 541.954 130.417 540.834 129.036 540.834C127.655 540.834 126.535 541.954 126.535 543.335C126.535 544.716 127.655 545.836 129.036 545.836C130.417 545.836 131.537 544.716 131.537 543.335ZM131.537 571.894C131.537 573.267 130.409 574.395 129.036 574.395C127.614 574.395 126.535 573.267 126.535 571.894C126.535 570.521 127.663 569.393 129.036 569.393C130.409 569.393 131.537 570.521 131.537 571.894ZM131.537 600.386C131.537 599.005 130.417 597.885 129.036 597.885C127.655 597.885 126.535 599.005 126.535 600.386C126.535 601.767 127.655 602.887 129.036 602.887C130.417 602.887 131.537 601.767 131.537 600.386ZM129.036 626.441C130.417 626.441 131.537 627.56 131.537 628.941C131.537 630.323 130.417 631.442 129.036 631.442C127.655 631.442 126.535 630.323 126.535 628.941C126.535 627.56 127.655 626.441 129.036 626.441ZM131.537 657.494C131.537 656.113 130.417 654.993 129.036 654.993C127.655 654.993 126.535 656.113 126.535 657.494C126.535 658.875 127.655 659.995 129.036 659.995C130.417 659.995 131.537 658.875 131.537 657.494ZM154.544 483.787C155.925 483.787 157.045 484.907 157.045 486.288C157.045 487.669 155.925 488.789 154.544 488.789C153.163 488.789 152.043 487.669 152.043 486.288C152.043 484.907 153.163 483.787 154.544 483.787ZM157.044 514.777C157.044 513.396 155.925 512.276 154.543 512.276C153.162 512.276 152.042 513.396 152.042 514.777C152.042 516.158 153.162 517.278 154.543 517.278C155.925 517.278 157.044 516.158 157.044 514.777ZM154.543 540.833C155.925 540.833 157.044 541.953 157.044 543.334C157.044 544.715 155.925 545.835 154.543 545.835C153.162 545.835 152.042 544.715 152.042 543.334C152.042 541.953 153.162 540.833 154.543 540.833ZM154.544 574.395C155.917 574.395 157.045 573.267 157.045 571.894C157.045 570.521 155.917 569.393 154.544 569.393C153.171 569.393 152.043 570.521 152.043 571.894C152.043 573.267 153.171 574.395 154.544 574.395ZM154.543 597.88C155.925 597.88 157.044 599 157.044 600.381C157.044 601.762 155.925 602.882 154.543 602.882C153.162 602.882 152.042 601.762 152.042 600.381C152.042 599 153.162 597.88 154.543 597.88ZM157.045 628.94C157.045 627.559 155.925 626.44 154.544 626.44C153.163 626.44 152.043 627.559 152.043 628.94C152.043 630.322 153.163 631.441 154.544 631.441C155.925 631.441 157.045 630.322 157.045 628.94ZM154.544 654.994C155.925 654.994 157.045 656.114 157.045 657.495C157.045 658.876 155.925 659.996 154.544 659.996C153.163 659.996 152.043 658.876 152.043 657.495C152.043 656.114 153.163 654.994 154.544 654.994Z" fill="#9AADFF" fill-opacity="0.51"/>
<path fill-rule="evenodd" clip-rule="evenodd" d="M5.0018 430.47C5.0018 429.089 3.88211 427.969 2.5009 427.969C1.11969 427.969 -1.41803e-06 429.089 -1.35766e-06 430.47C-1.29728e-06 431.851 1.11969 432.971 2.5009 432.971C3.88211 432.971 5.0018 431.851 5.0018 430.47ZM2.5009 399.414C3.88211 399.414 5.0018 400.534 5.0018 401.915C5.0018 403.296 3.88211 404.416 2.5009 404.416C1.11969 404.416 -2.54544e-06 403.296 -2.60582e-06 401.915C-2.66619e-06 400.534 1.11969 399.414 2.5009 399.414ZM2.5009 375.924C3.87394 375.924 5.0018 374.796 5.0018 373.423C5.0018 372.05 3.87394 370.922 2.5009 370.922C1.12786 370.922 -3.91127e-06 372.05 -3.85125e-06 373.423C-3.79123e-06 374.796 1.12786 375.924 2.5009 375.924ZM2.5009 342.36C3.88211 342.36 5.0018 343.48 5.0018 344.861C5.0018 346.242 3.88211 347.362 2.5009 347.362C1.11969 347.362 -5.03936e-06 346.242 -5.09973e-06 344.861C-5.16011e-06 343.48 1.11969 342.36 2.5009 342.36ZM5.0018 316.31C5.0018 314.928 3.88211 313.809 2.5009 313.809C1.11969 313.809 -6.40813e-06 314.928 -6.34775e-06 316.31C-6.28738e-06 317.691 1.11969 318.811 2.5009 318.811C3.88211 318.811 5.0018 317.691 5.0018 316.31ZM5.0018 287.821C5.0018 286.44 3.8821 285.32 2.5009 285.32C1.11969 285.32 -7.65339e-06 286.44 -7.59301e-06 287.821C-7.53264e-06 289.203 1.11969 290.322 2.5009 290.322C3.8821 290.322 5.0018 289.203 5.0018 287.821ZM2.50872 456.527C3.88992 456.527 5.00962 457.647 5.00962 459.028C5.00962 460.41 3.88992 461.529 2.50872 461.529C1.12751 461.529 0.00781245 460.41 0.00781239 459.028C0.00781233 457.647 1.12751 456.527 2.50872 456.527ZM30.3924 287.814C30.3924 286.433 29.2727 285.313 27.8915 285.313C26.5103 285.313 25.3906 286.433 25.3906 287.814C25.3906 289.195 26.5103 290.315 27.8915 290.315C29.2727 290.315 30.3924 289.195 30.3924 287.814ZM27.8915 313.801C29.2727 313.801 30.3924 314.921 30.3924 316.302C30.3924 317.683 29.2727 318.803 27.8915 318.803C26.5103 318.803 25.3906 317.683 25.3906 316.302C25.3906 314.921 26.5103 313.801 27.8915 313.801ZM30.3924 344.861C30.3924 343.48 29.2727 342.36 27.8915 342.36C26.5103 342.36 25.3906 343.48 25.3906 344.861C25.3906 346.242 26.5103 347.362 27.8915 347.362C29.2727 347.362 30.3924 346.242 30.3924 344.861ZM30.3924 373.415C30.3924 374.788 29.2646 375.916 27.8915 375.916C26.5185 375.916 25.3906 374.788 25.3906 373.415C25.3906 372.042 26.5185 370.914 27.8915 370.914C29.2646 370.914 30.3924 372.042 30.3924 373.415ZM30.3924 401.907C30.3924 400.526 29.2727 399.406 27.8915 399.406C26.5103 399.406 25.3906 400.526 25.3906 401.907C25.3906 403.289 26.5103 404.408 27.8915 404.408C29.2727 404.408 30.3924 403.289 30.3924 401.907ZM27.8915 427.96C29.2727 427.96 30.3924 429.08 30.3924 430.461C30.3924 431.842 29.2727 432.962 27.8915 432.962C26.5103 432.962 25.3906 431.842 25.3906 430.461C25.3906 429.08 26.5103 427.96 27.8915 427.96ZM30.3885 459.021C30.3885 457.64 29.2688 456.52 27.8876 456.52C26.5064 456.52 25.3867 457.64 25.3867 459.021C25.3867 460.403 26.5064 461.522 27.8876 461.522C29.2688 461.522 30.3885 460.403 30.3885 459.021ZM53.1103 285.317C54.4915 285.317 55.6112 286.436 55.6112 287.817C55.6112 289.199 54.4915 290.318 53.1103 290.318C51.7291 290.318 50.6094 289.199 50.6094 287.817C50.6094 286.436 51.7291 285.317 53.1103 285.317ZM55.6112 316.31C55.6112 314.928 54.4915 313.809 53.1103 313.809C51.7291 313.809 50.6094 314.928 50.6094 316.31C50.6094 317.691 51.7291 318.811 53.1103 318.811C54.4915 318.811 55.6112 317.691 55.6112 316.31ZM53.1103 342.367C54.4915 342.367 55.6112 343.487 55.6112 344.868C55.6112 346.249 54.4915 347.369 53.1103 347.369C51.7291 347.369 50.6094 346.249 50.6094 344.868C50.6094 343.487 51.7291 342.367 53.1103 342.367ZM53.1103 375.924C54.4833 375.924 55.6112 374.796 55.6112 373.423C55.6112 372.05 54.4833 370.922 53.1103 370.922C51.7372 370.922 50.6094 372.05 50.6094 373.423C50.6094 374.796 51.6882 375.924 53.1103 375.924ZM53.1103 399.414C54.4915 399.414 55.6112 400.534 55.6112 401.915C55.6112 403.296 54.4915 404.416 53.1103 404.416C51.7291 404.416 50.6094 403.296 50.6094 401.915C50.6094 400.534 51.7291 399.414 53.1103 399.414ZM55.6112 430.471C55.6112 429.09 54.4915 427.97 53.1103 427.97C51.7291 427.97 50.6094 429.09 50.6094 430.471C50.6094 431.852 51.7291 432.972 53.1103 432.972C54.4915 432.972 55.6112 431.852 55.6112 430.471ZM53.1103 456.523C54.4915 456.523 55.6112 457.643 55.6112 459.024C55.6112 460.405 54.4915 461.525 53.1103 461.525C51.7291 461.525 50.6094 460.405 50.6094 459.024C50.6094 457.643 51.7291 456.523 53.1103 456.523ZM80.9352 287.817C80.9352 286.436 79.8155 285.316 78.4342 285.316C77.053 285.316 75.9333 286.436 75.9333 287.817C75.9333 289.198 77.053 290.318 78.4343 290.318C79.8155 290.318 80.9352 289.198 80.9352 287.817ZM78.4345 313.809C79.8157 313.809 80.9354 314.928 80.9354 316.31C80.9354 317.691 79.8157 318.811 78.4345 318.811C77.0533 318.811 75.9336 317.691 75.9336 316.31C75.9336 314.928 77.0533 313.809 78.4345 313.809ZM80.9352 344.864C80.9352 343.482 79.8155 342.363 78.4343 342.363C77.053 342.363 75.9334 343.482 75.9334 344.864C75.9334 346.245 77.053 347.365 78.4343 347.365C79.8155 347.365 80.9352 346.245 80.9352 344.864ZM80.9352 373.419C80.9352 374.792 79.8073 375.92 78.4343 375.92C77.0612 375.92 75.9334 374.792 75.9334 373.419C75.9334 372.046 77.0612 370.918 78.4343 370.918C79.8073 370.918 80.9352 372.046 80.9352 373.419ZM80.9354 401.915C80.9354 400.534 79.8157 399.414 78.4345 399.414C77.0533 399.414 75.9336 400.534 75.9336 401.915C75.9336 403.296 77.0533 404.416 78.4345 404.416C79.8157 404.416 80.9354 403.296 80.9354 401.915ZM78.4345 427.969C79.8157 427.969 80.9354 429.089 80.9354 430.47C80.9354 431.851 79.8157 432.971 78.4345 432.971C77.0533 432.971 75.9336 431.851 75.9336 430.47C75.9336 429.089 77.0533 427.969 78.4345 427.969ZM80.9352 459.024C80.9352 457.643 79.8155 456.523 78.4343 456.523C77.0531 456.523 75.9334 457.643 75.9334 459.024C75.9334 460.405 77.0531 461.525 78.4343 461.525C79.8155 461.525 80.9352 460.405 80.9352 459.024ZM103.817 285.32C105.199 285.32 106.318 286.44 106.318 287.821C106.318 289.203 105.199 290.322 103.817 290.322C102.436 290.322 101.316 289.203 101.316 287.821C101.316 286.44 102.436 285.32 103.817 285.32ZM106.318 316.31C106.318 314.928 105.199 313.809 103.817 313.809C102.436 313.809 101.316 314.928 101.316 316.31C101.316 317.691 102.436 318.811 103.817 318.811C105.199 318.811 106.318 317.691 106.318 316.31ZM103.817 342.367C105.199 342.367 106.318 343.487 106.318 344.868C106.318 346.249 105.199 347.369 103.817 347.369C102.436 347.369 101.316 346.249 101.316 344.868C101.316 343.487 102.436 342.367 103.817 342.367ZM103.817 375.924C105.19 375.924 106.318 374.796 106.318 373.423C106.318 372.05 105.19 370.922 103.817 370.922C102.444 370.922 101.316 372.05 101.316 373.423C101.316 374.796 102.444 375.924 103.817 375.924ZM103.817 399.414C105.199 399.414 106.318 400.534 106.318 401.915C106.318 403.296 105.199 404.416 103.817 404.416C102.436 404.416 101.316 403.296 101.316 401.915C101.316 400.534 102.436 399.414 103.817 399.414ZM106.319 430.471C106.319 429.089 105.199 427.97 103.818 427.97C102.437 427.97 101.317 429.089 101.317 430.471C101.317 431.852 102.437 432.972 103.818 432.972C105.199 432.972 106.319 431.852 106.319 430.471ZM103.817 456.524C105.199 456.524 106.318 457.643 106.318 459.025C106.318 460.406 105.199 461.525 103.817 461.525C102.436 461.525 101.316 460.406 101.316 459.025C101.316 457.643 102.436 456.524 103.817 456.524ZM131.537 287.817C131.537 286.436 130.417 285.317 129.036 285.317C127.655 285.317 126.535 286.436 126.535 287.817C126.535 289.199 127.655 290.318 129.036 290.318C130.417 290.318 131.537 289.199 131.537 287.817ZM129.036 313.809C130.417 313.809 131.537 314.928 131.537 316.31C131.537 317.691 130.417 318.811 129.036 318.811C127.655 318.811 126.535 317.691 126.535 316.31C126.535 314.928 127.655 313.809 129.036 313.809ZM131.537 344.868C131.537 343.487 130.417 342.367 129.036 342.367C127.655 342.367 126.535 343.487 126.535 344.868C126.535 346.249 127.655 347.369 129.036 347.369C130.417 347.369 131.537 346.249 131.537 344.868ZM131.537 373.423C131.537 374.796 130.409 375.924 129.036 375.924C127.614 375.924 126.535 374.796 126.535 373.423C126.535 372.05 127.663 370.922 129.036 370.922C130.409 370.922 131.537 372.05 131.537 373.423ZM131.537 401.915C131.537 400.534 130.417 399.414 129.036 399.414C127.655 399.414 126.535 400.534 126.535 401.915C126.535 403.296 127.655 404.416 129.036 404.416C130.417 404.416 131.537 403.296 131.537 401.915ZM129.036 427.97C130.417 427.97 131.537 429.09 131.537 430.471C131.537 431.852 130.417 432.972 129.036 432.972C127.655 432.972 126.535 431.852 126.535 430.471C126.535 429.09 127.655 427.97 129.036 427.97ZM131.537 459.024C131.537 457.643 130.417 456.523 129.036 456.523C127.655 456.523 126.535 457.643 126.535 459.024C126.535 460.405 127.655 461.525 129.036 461.525C130.417 461.525 131.537 460.405 131.537 459.024ZM154.543 285.316C155.925 285.316 157.044 286.436 157.044 287.817C157.044 289.198 155.925 290.318 154.543 290.318C153.162 290.318 152.042 289.198 152.042 287.817C152.042 286.436 153.162 285.316 154.543 285.316ZM157.044 316.306C157.044 314.925 155.925 313.805 154.543 313.805C153.162 313.805 152.042 314.925 152.042 316.306C152.042 317.687 153.162 318.807 154.543 318.807C155.925 318.807 157.044 317.687 157.044 316.306ZM154.543 342.363C155.925 342.363 157.044 343.482 157.044 344.864C157.044 346.245 155.925 347.365 154.543 347.365C153.162 347.365 152.042 346.245 152.042 344.864C152.042 343.482 153.162 342.363 154.543 342.363ZM154.544 375.924C155.917 375.924 157.045 374.796 157.045 373.423C157.045 372.05 155.917 370.922 154.544 370.922C153.171 370.922 152.043 372.05 152.043 373.423C152.043 374.796 153.171 375.924 154.544 375.924ZM154.543 399.41C155.925 399.41 157.044 400.529 157.044 401.911C157.044 403.292 155.925 404.412 154.543 404.412C153.162 404.412 152.042 403.292 152.042 401.911C152.042 400.529 153.162 399.41 154.543 399.41ZM157.045 430.47C157.045 429.089 155.925 427.969 154.544 427.969C153.163 427.969 152.043 429.089 152.043 430.47C152.043 431.851 153.163 432.971 154.544 432.971C155.925 432.971 157.045 431.851 157.045 430.47ZM154.544 456.524C155.925 456.524 157.045 457.643 157.045 459.025C157.045 460.406 155.925 461.525 154.544 461.525C153.163 461.525 152.043 460.406 152.043 459.025C152.043 457.643 153.163 456.524 154.544 456.524Z" fill="#9AADFF" fill-opacity="0.51"/>
<path fill-rule="evenodd" clip-rule="evenodd" d="M183.041 628.626C183.041 627.245 181.921 626.125 180.54 626.125C179.159 626.125 178.039 627.245 178.039 628.626C178.039 630.007 179.159 631.127 180.54 631.127C181.921 631.127 183.041 630.007 183.041 628.626ZM180.54 597.567C181.921 597.567 183.041 598.686 183.041 600.067C183.041 601.449 181.921 602.568 180.54 602.568C179.159 602.568 178.039 601.449 178.039 600.067C178.039 598.686 179.159 597.567 180.54 597.567ZM180.54 574.08C181.913 574.08 183.041 572.952 183.041 571.579C183.041 570.206 181.913 569.078 180.54 569.078C179.167 569.078 178.039 570.206 178.039 571.579C178.039 572.952 179.167 574.08 180.54 574.08ZM180.54 540.516C181.921 540.516 183.041 541.636 183.041 543.017C183.041 544.399 181.921 545.518 180.54 545.518C179.159 545.518 178.039 544.399 178.039 543.017C178.039 541.636 179.159 540.516 180.54 540.516ZM183.041 514.466C183.041 513.085 181.921 511.965 180.54 511.965C179.159 511.965 178.039 513.085 178.039 514.466C178.039 515.847 179.159 516.967 180.54 516.967C181.921 516.967 183.041 515.847 183.041 514.466ZM183.041 485.974C183.041 484.592 181.921 483.473 180.54 483.473C179.159 483.473 178.039 484.592 178.039 485.974C178.039 487.355 179.159 488.475 180.54 488.475C181.921 488.475 183.041 487.355 183.041 485.974ZM180.547 654.684C181.929 654.684 183.048 655.803 183.048 657.185C183.048 658.566 181.929 659.686 180.547 659.686C179.166 659.686 178.046 658.566 178.046 657.185C178.046 655.803 179.166 654.684 180.547 654.684ZM208.431 485.97C208.431 484.589 207.312 483.469 205.931 483.469C204.549 483.469 203.43 484.589 203.43 485.97C203.43 487.352 204.549 488.471 205.931 488.471C207.312 488.471 208.431 487.352 208.431 485.97ZM205.931 511.957C207.312 511.957 208.431 513.077 208.431 514.458C208.431 515.839 207.312 516.959 205.931 516.959C204.549 516.959 203.43 515.839 203.43 514.458C203.43 513.077 204.549 511.957 205.931 511.957ZM208.431 543.017C208.431 541.636 207.312 540.517 205.931 540.517C204.549 540.517 203.43 541.636 203.43 543.017C203.43 544.399 204.549 545.518 205.931 545.518C207.312 545.518 208.431 544.399 208.431 543.017ZM208.431 571.571C208.431 572.944 207.304 574.072 205.931 574.072C204.558 574.072 203.43 572.944 203.43 571.571C203.43 570.198 204.558 569.07 205.931 569.07C207.304 569.07 208.431 570.198 208.431 571.571ZM208.431 600.064C208.431 598.682 207.312 597.563 205.931 597.563C204.549 597.563 203.43 598.682 203.43 600.064C203.43 601.445 204.549 602.564 205.931 602.564C207.312 602.564 208.431 601.445 208.431 600.064ZM205.931 626.116C207.312 626.116 208.431 627.236 208.431 628.617C208.431 629.998 207.312 631.118 205.931 631.118C204.549 631.118 203.43 629.998 203.43 628.617C203.43 627.236 204.549 626.116 205.931 626.116ZM208.428 657.177C208.428 655.796 207.308 654.676 205.927 654.676C204.545 654.676 203.426 655.796 203.426 657.177C203.426 658.559 204.545 659.678 205.927 659.678C207.308 659.678 208.428 658.559 208.428 657.177ZM231.149 483.473C232.531 483.473 233.65 484.592 233.65 485.974C233.65 487.355 232.531 488.475 231.149 488.475C229.768 488.475 228.648 487.355 228.648 485.974C228.648 484.592 229.768 483.473 231.149 483.473ZM233.65 514.466C233.65 513.085 232.531 511.965 231.149 511.965C229.768 511.965 228.648 513.085 228.648 514.466C228.648 515.847 229.768 516.967 231.149 516.967C232.531 516.967 233.65 515.847 233.65 514.466ZM231.149 540.52C232.531 540.52 233.65 541.639 233.65 543.021C233.65 544.402 232.531 545.521 231.149 545.521C229.768 545.521 228.648 544.402 228.648 543.021C228.648 541.639 229.768 540.52 231.149 540.52ZM231.149 574.08C232.522 574.08 233.65 572.952 233.65 571.579C233.65 570.206 232.522 569.078 231.149 569.078C229.776 569.078 228.648 570.206 228.648 571.579C228.648 572.952 229.727 574.08 231.149 574.08ZM231.149 597.567C232.531 597.567 233.65 598.686 233.65 600.067C233.65 601.449 232.531 602.568 231.149 602.568C229.768 602.568 228.648 601.449 228.648 600.067C228.648 598.686 229.768 597.567 231.149 597.567ZM233.65 628.627C233.65 627.245 232.531 626.126 231.149 626.126C229.768 626.126 228.648 627.245 228.648 628.627C228.648 630.008 229.768 631.127 231.149 631.127C232.531 631.127 233.65 630.008 233.65 628.627ZM231.149 654.68C232.531 654.68 233.65 655.8 233.65 657.181C233.65 658.562 232.531 659.682 231.149 659.682C229.768 659.682 228.648 658.562 228.648 657.181C228.648 655.8 229.768 654.68 231.149 654.68ZM258.974 485.974C258.974 484.592 257.855 483.473 256.474 483.473C255.092 483.473 253.973 484.592 253.973 485.974C253.973 487.355 255.092 488.475 256.474 488.475C257.855 488.475 258.974 487.355 258.974 485.974ZM256.474 511.965C257.855 511.965 258.974 513.085 258.974 514.466C258.974 515.847 257.855 516.967 256.474 516.967C255.092 516.967 253.973 515.847 253.973 514.466C253.973 513.085 255.092 511.965 256.474 511.965ZM258.974 543.021C258.974 541.639 257.855 540.52 256.474 540.52C255.092 540.52 253.973 541.639 253.973 543.021C253.973 544.402 255.092 545.521 256.474 545.521C257.855 545.521 258.974 544.402 258.974 543.021ZM258.974 571.575C258.974 572.948 257.846 574.076 256.473 574.076C255.1 574.076 253.972 572.948 253.972 571.575C253.972 570.202 255.1 569.074 256.473 569.074C257.846 569.074 258.974 570.202 258.974 571.575ZM258.974 600.067C258.974 598.686 257.855 597.567 256.474 597.567C255.092 597.567 253.973 598.686 253.973 600.067C253.973 601.449 255.092 602.568 256.474 602.568C257.855 602.568 258.974 601.449 258.974 600.067ZM256.474 626.125C257.855 626.125 258.974 627.245 258.974 628.626C258.974 630.007 257.855 631.127 256.474 631.127C255.092 631.127 253.973 630.007 253.973 628.626C253.973 627.245 255.092 626.125 256.474 626.125ZM258.974 657.181C258.974 655.8 257.855 654.68 256.474 654.68C255.092 654.68 253.973 655.8 253.973 657.181C253.973 658.562 255.092 659.682 256.474 659.682C257.855 659.682 258.974 658.562 258.974 657.181ZM281.856 483.473C283.238 483.473 284.357 484.592 284.357 485.974C284.357 487.355 283.238 488.475 281.856 488.475C280.475 488.475 279.355 487.355 279.355 485.974C279.355 484.592 280.475 483.473 281.856 483.473ZM284.357 514.466C284.357 513.085 283.238 511.965 281.856 511.965C280.475 511.965 279.355 513.085 279.355 514.466C279.355 515.847 280.475 516.967 281.856 516.967C283.238 516.967 284.357 515.847 284.357 514.466ZM281.856 540.52C283.238 540.52 284.357 541.639 284.357 543.021C284.357 544.402 283.238 545.521 281.856 545.521C280.475 545.521 279.355 544.402 279.355 543.021C279.355 541.639 280.475 540.52 281.856 540.52ZM281.856 574.08C283.229 574.08 284.357 572.952 284.357 571.579C284.357 570.206 283.229 569.078 281.856 569.078C280.483 569.078 279.355 570.206 279.355 571.579C279.355 572.952 280.483 574.08 281.856 574.08ZM281.856 597.567C283.238 597.567 284.357 598.686 284.357 600.067C284.357 601.449 283.238 602.568 281.856 602.568C280.475 602.568 279.355 601.449 279.355 600.067C279.355 598.686 280.475 597.567 281.856 597.567ZM284.358 628.627C284.358 627.245 283.238 626.126 281.857 626.126C280.476 626.126 279.356 627.245 279.356 628.627C279.356 630.008 280.476 631.127 281.857 631.127C283.238 631.127 284.358 630.008 284.358 628.627ZM281.856 654.68C283.238 654.68 284.357 655.8 284.357 657.181C284.357 658.562 283.238 659.682 281.856 659.682C280.475 659.682 279.355 658.562 279.355 657.181C279.355 655.8 280.475 654.68 281.856 654.68ZM309.576 485.974C309.576 484.592 308.456 483.473 307.075 483.473C305.694 483.473 304.574 484.592 304.574 485.974C304.574 487.355 305.694 488.475 307.075 488.475C308.456 488.475 309.576 487.355 309.576 485.974ZM307.075 511.965C308.456 511.965 309.576 513.085 309.576 514.466C309.576 515.847 308.456 516.967 307.075 516.967C305.694 516.967 304.574 515.847 304.574 514.466C304.574 513.085 305.694 511.965 307.075 511.965ZM309.576 543.021C309.576 541.639 308.456 540.52 307.075 540.52C305.694 540.52 304.574 541.639 304.574 543.021C304.574 544.402 305.694 545.521 307.075 545.521C308.456 545.521 309.576 544.402 309.576 543.021ZM309.576 571.579C309.576 572.952 308.448 574.08 307.075 574.08C305.653 574.08 304.574 572.952 304.574 571.579C304.574 570.206 305.702 569.078 307.075 569.078C308.448 569.078 309.576 570.206 309.576 571.579ZM309.576 600.067C309.576 598.686 308.456 597.567 307.075 597.567C305.694 597.567 304.574 598.686 304.574 600.067C304.574 601.449 305.694 602.568 307.075 602.568C308.456 602.568 309.576 601.449 309.576 600.067ZM307.075 626.126C308.456 626.126 309.576 627.245 309.576 628.627C309.576 630.008 308.456 631.127 307.075 631.127C305.694 631.127 304.574 630.008 304.574 628.627C304.574 627.245 305.694 626.126 307.075 626.126ZM309.576 657.181C309.576 655.8 308.456 654.68 307.075 654.68C305.694 654.68 304.574 655.8 304.574 657.181C304.574 658.562 305.694 659.682 307.075 659.682C308.456 659.682 309.576 658.562 309.576 657.181ZM332.583 483.473C333.964 483.473 335.084 484.592 335.084 485.974C335.084 487.355 333.964 488.475 332.583 488.475C331.202 488.475 330.082 487.355 330.082 485.974C330.082 484.592 331.202 483.473 332.583 483.473ZM335.083 514.462C335.083 513.081 333.964 511.961 332.582 511.961C331.201 511.961 330.082 513.081 330.082 514.462C330.082 515.843 331.201 516.963 332.582 516.963C333.964 516.963 335.083 515.843 335.083 514.462ZM332.583 540.52C333.964 540.52 335.084 541.639 335.084 543.021C335.084 544.402 333.964 545.521 332.583 545.521C331.202 545.521 330.082 544.402 330.082 543.021C330.082 541.639 331.202 540.52 332.583 540.52ZM332.583 574.08C333.956 574.08 335.084 572.952 335.084 571.579C335.084 570.206 333.956 569.078 332.583 569.078C331.21 569.078 330.082 570.206 330.082 571.579C330.082 572.952 331.21 574.08 332.583 574.08ZM332.582 597.566C333.964 597.566 335.083 598.686 335.083 600.067C335.083 601.448 333.964 602.568 332.582 602.568C331.201 602.568 330.082 601.448 330.082 600.067C330.082 598.686 331.201 597.566 332.582 597.566ZM335.084 628.626C335.084 627.245 333.964 626.125 332.583 626.125C331.202 626.125 330.082 627.245 330.082 628.626C330.082 630.007 331.202 631.127 332.583 631.127C333.964 631.127 335.084 630.007 335.084 628.626ZM332.583 654.68C333.964 654.68 335.084 655.8 335.084 657.181C335.084 658.562 333.964 659.682 332.583 659.682C331.202 659.682 330.082 658.562 330.082 657.181C330.082 655.8 331.202 654.68 332.583 654.68Z" fill="#9AADFF" fill-opacity="0.51"/>
<path fill-rule="evenodd" clip-rule="evenodd" d="M183.041 430.155C183.041 428.774 181.921 427.654 180.54 427.654C179.159 427.654 178.039 428.774 178.039 430.155C178.039 431.537 179.159 432.656 180.54 432.656C181.921 432.656 183.041 431.537 183.041 430.155ZM180.54 399.096C181.921 399.096 183.041 400.216 183.041 401.597C183.041 402.978 181.921 404.098 180.54 404.098C179.159 404.098 178.039 402.978 178.039 401.597C178.039 400.216 179.159 399.096 180.54 399.096ZM180.54 375.609C181.913 375.609 183.041 374.482 183.041 373.108C183.041 371.735 181.913 370.608 180.54 370.608C179.167 370.608 178.039 371.735 178.039 373.108C178.039 374.482 179.167 375.609 180.54 375.609ZM180.54 342.046C181.921 342.046 183.041 343.165 183.041 344.547C183.041 345.928 181.921 347.048 180.54 347.048C179.159 347.048 178.039 345.928 178.039 344.547C178.039 343.165 179.159 342.046 180.54 342.046ZM183.041 315.995C183.041 314.614 181.921 313.494 180.54 313.494C179.159 313.494 178.039 314.614 178.039 315.995C178.039 317.376 179.159 318.496 180.54 318.496C181.921 318.496 183.041 317.376 183.041 315.995ZM183.041 287.503C183.041 286.122 181.921 285.002 180.54 285.002C179.159 285.002 178.039 286.122 178.039 287.503C178.039 288.884 179.159 290.004 180.54 290.004C181.921 290.004 183.041 288.884 183.041 287.503ZM180.547 456.213C181.929 456.213 183.048 457.333 183.048 458.714C183.048 460.095 181.929 461.215 180.547 461.215C179.166 461.215 178.046 460.095 178.046 458.714C178.046 457.333 179.166 456.213 180.547 456.213ZM208.431 287.5C208.431 286.118 207.312 284.999 205.931 284.999C204.549 284.999 203.43 286.118 203.43 287.5C203.43 288.881 204.549 290 205.931 290C207.312 290 208.431 288.881 208.431 287.5ZM205.931 313.486C207.312 313.486 208.431 314.606 208.431 315.987C208.431 317.369 207.312 318.488 205.931 318.488C204.549 318.488 203.43 317.369 203.43 315.987C203.43 314.606 204.549 313.486 205.931 313.486ZM208.431 344.547C208.431 343.165 207.312 342.046 205.931 342.046C204.549 342.046 203.43 343.165 203.43 344.547C203.43 345.928 204.549 347.048 205.931 347.048C207.312 347.048 208.431 345.928 208.431 344.547ZM208.431 373.101C208.431 374.474 207.304 375.602 205.931 375.602C204.558 375.602 203.43 374.474 203.43 373.101C203.43 371.728 204.558 370.6 205.931 370.6C207.304 370.6 208.431 371.728 208.431 373.101ZM208.431 401.593C208.431 400.212 207.312 399.092 205.931 399.092C204.549 399.092 203.43 400.212 203.43 401.593C203.43 402.974 204.549 404.094 205.931 404.094C207.312 404.094 208.431 402.974 208.431 401.593ZM205.931 427.646C207.312 427.646 208.431 428.765 208.431 430.147C208.431 431.528 207.312 432.647 205.931 432.647C204.549 432.647 203.43 431.528 203.43 430.147C203.43 428.765 204.549 427.646 205.931 427.646ZM208.428 458.707C208.428 457.325 207.308 456.206 205.927 456.206C204.545 456.206 203.426 457.325 203.426 458.707C203.426 460.088 204.545 461.208 205.927 461.208C207.308 461.208 208.428 460.088 208.428 458.707ZM231.149 285.002C232.531 285.002 233.65 286.122 233.65 287.503C233.65 288.884 232.531 290.004 231.149 290.004C229.768 290.004 228.648 288.884 228.648 287.503C228.648 286.122 229.768 285.002 231.149 285.002ZM233.65 315.995C233.65 314.614 232.531 313.494 231.149 313.494C229.768 313.494 228.648 314.614 228.648 315.995C228.648 317.376 229.768 318.496 231.149 318.496C232.531 318.496 233.65 317.376 233.65 315.995ZM231.149 342.049C232.531 342.049 233.65 343.169 233.65 344.55C233.65 345.931 232.531 347.051 231.149 347.051C229.768 347.051 228.648 345.931 228.648 344.55C228.648 343.169 229.768 342.049 231.149 342.049ZM231.149 375.609C232.522 375.609 233.65 374.482 233.65 373.108C233.65 371.735 232.522 370.608 231.149 370.608C229.776 370.608 228.648 371.735 228.648 373.108C228.648 374.482 229.727 375.609 231.149 375.609ZM231.149 399.096C232.531 399.096 233.65 400.216 233.65 401.597C233.65 402.978 232.531 404.098 231.149 404.098C229.768 404.098 228.648 402.978 228.648 401.597C228.648 400.216 229.768 399.096 231.149 399.096ZM233.65 430.156C233.65 428.775 232.531 427.655 231.149 427.655C229.768 427.655 228.648 428.775 228.648 430.156C228.648 431.537 229.768 432.657 231.149 432.657C232.531 432.657 233.65 431.537 233.65 430.156ZM231.149 456.209C232.531 456.209 233.65 457.329 233.65 458.71C233.65 460.091 232.531 461.211 231.149 461.211C229.768 461.211 228.648 460.091 228.648 458.71C228.648 457.329 229.768 456.209 231.149 456.209ZM258.974 287.503C258.974 286.122 257.855 285.002 256.474 285.002C255.092 285.002 253.973 286.122 253.973 287.503C253.973 288.884 255.092 290.004 256.474 290.004C257.855 290.004 258.974 288.884 258.974 287.503ZM256.474 313.494C257.855 313.494 258.974 314.614 258.974 315.995C258.974 317.376 257.855 318.496 256.474 318.496C255.092 318.496 253.973 317.376 253.973 315.995C253.973 314.614 255.092 313.494 256.474 313.494ZM258.974 344.549C258.974 343.168 257.855 342.048 256.473 342.048C255.092 342.048 253.972 343.168 253.972 344.549C253.972 345.931 255.092 347.05 256.473 347.05C257.855 347.05 258.974 345.931 258.974 344.549ZM258.974 373.104C258.974 374.477 257.846 375.605 256.473 375.605C255.1 375.605 253.972 374.477 253.972 373.104C253.972 371.731 255.1 370.603 256.473 370.603C257.846 370.603 258.974 371.731 258.974 373.104ZM258.974 401.597C258.974 400.216 257.855 399.096 256.474 399.096C255.092 399.096 253.973 400.216 253.973 401.597C253.973 402.978 255.092 404.098 256.474 404.098C257.855 404.098 258.974 402.978 258.974 401.597ZM256.474 427.654C257.855 427.654 258.974 428.774 258.974 430.155C258.974 431.537 257.855 432.656 256.474 432.656C255.092 432.656 253.973 431.537 253.973 430.155C253.973 428.774 255.092 427.654 256.474 427.654ZM258.974 458.71C258.974 457.329 257.855 456.209 256.474 456.209C255.092 456.209 253.973 457.329 253.973 458.71C253.973 460.091 255.092 461.211 256.474 461.211C257.855 461.211 258.974 460.091 258.974 458.71ZM281.856 285.002C283.238 285.002 284.357 286.122 284.357 287.503C284.357 288.884 283.238 290.004 281.856 290.004C280.475 290.004 279.355 288.884 279.355 287.503C279.355 286.122 280.475 285.002 281.856 285.002ZM284.357 315.995C284.357 314.614 283.238 313.494 281.856 313.494C280.475 313.494 279.355 314.614 279.355 315.995C279.355 317.376 280.475 318.496 281.856 318.496C283.238 318.496 284.357 317.376 284.357 315.995ZM281.856 342.049C283.238 342.049 284.357 343.169 284.357 344.55C284.357 345.931 283.238 347.051 281.856 347.051C280.475 347.051 279.355 345.931 279.355 344.55C279.355 343.169 280.475 342.049 281.856 342.049ZM281.856 375.609C283.229 375.609 284.357 374.482 284.357 373.108C284.357 371.735 283.229 370.608 281.856 370.608C280.483 370.608 279.355 371.735 279.355 373.108C279.355 374.482 280.483 375.609 281.856 375.609ZM281.856 399.096C283.238 399.096 284.357 400.216 284.357 401.597C284.357 402.978 283.238 404.098 281.856 404.098C280.475 404.098 279.355 402.978 279.355 401.597C279.355 400.216 280.475 399.096 281.856 399.096ZM284.357 430.155C284.357 428.774 283.238 427.654 281.856 427.654C280.475 427.654 279.355 428.774 279.355 430.155C279.355 431.537 280.475 432.656 281.856 432.656C283.238 432.656 284.357 431.537 284.357 430.155ZM281.856 456.209C283.238 456.209 284.357 457.329 284.357 458.71C284.357 460.091 283.238 461.211 281.856 461.211C280.475 461.211 279.355 460.091 279.355 458.71C279.355 457.329 280.475 456.209 281.856 456.209ZM309.576 287.503C309.576 286.122 308.456 285.002 307.075 285.002C305.694 285.002 304.574 286.122 304.574 287.503C304.574 288.884 305.694 290.004 307.075 290.004C308.456 290.004 309.576 288.884 309.576 287.503ZM307.075 313.494C308.456 313.494 309.576 314.614 309.576 315.995C309.576 317.376 308.456 318.496 307.075 318.496C305.694 318.496 304.574 317.376 304.574 315.995C304.574 314.614 305.694 313.494 307.075 313.494ZM309.576 344.55C309.576 343.169 308.456 342.049 307.075 342.049C305.694 342.049 304.574 343.169 304.574 344.55C304.574 345.931 305.694 347.051 307.075 347.051C308.456 347.051 309.576 345.931 309.576 344.55ZM309.576 373.108C309.576 374.482 308.448 375.609 307.075 375.609C305.653 375.609 304.574 374.482 304.574 373.108C304.574 371.735 305.702 370.608 307.075 370.608C308.448 370.608 309.576 371.735 309.576 373.108ZM309.576 401.597C309.576 400.216 308.456 399.096 307.075 399.096C305.694 399.096 304.574 400.216 304.574 401.597C304.574 402.978 305.694 404.098 307.075 404.098C308.456 404.098 309.576 402.978 309.576 401.597ZM307.075 427.655C308.456 427.655 309.576 428.775 309.576 430.156C309.576 431.537 308.456 432.657 307.075 432.657C305.694 432.657 304.574 431.537 304.574 430.156C304.574 428.775 305.694 427.655 307.075 427.655ZM309.576 458.71C309.576 457.329 308.456 456.209 307.075 456.209C305.694 456.209 304.574 457.329 304.574 458.71C304.574 460.091 305.694 461.211 307.075 461.211C308.456 461.211 309.576 460.091 309.576 458.71ZM332.583 285.002C333.964 285.002 335.084 286.122 335.084 287.503C335.084 288.884 333.964 290.004 332.583 290.004C331.202 290.004 330.082 288.884 330.082 287.503C330.082 286.122 331.202 285.002 332.583 285.002ZM335.083 315.992C335.083 314.611 333.964 313.491 332.582 313.491C331.201 313.491 330.082 314.611 330.082 315.992C330.082 317.373 331.201 318.493 332.582 318.493C333.964 318.493 335.083 317.373 335.083 315.992ZM332.582 342.048C333.964 342.048 335.083 343.168 335.083 344.549C335.083 345.931 333.964 347.05 332.582 347.05C331.201 347.05 330.082 345.931 330.082 344.549C330.082 343.168 331.201 342.048 332.582 342.048ZM332.583 375.609C333.956 375.609 335.084 374.482 335.084 373.108C335.084 371.735 333.956 370.608 332.583 370.608C331.21 370.608 330.082 371.735 330.082 373.108C330.082 374.482 331.21 375.609 332.583 375.609ZM332.582 399.095C333.964 399.095 335.083 400.215 335.083 401.596C335.083 402.977 333.964 404.097 332.582 404.097C331.201 404.097 330.082 402.977 330.082 401.596C330.082 400.215 331.201 399.095 332.582 399.095ZM335.084 430.155C335.084 428.774 333.964 427.654 332.583 427.654C331.202 427.654 330.082 428.774 330.082 430.155C330.082 431.537 331.202 432.656 332.583 432.656C333.964 432.656 335.084 431.537 335.084 430.155ZM332.583 456.209C333.964 456.209 335.084 457.329 335.084 458.71C335.084 460.091 333.964 461.211 332.583 461.211C331.202 461.211 330.082 460.091 330.082 458.71C330.082 457.329 331.202 456.209 332.583 456.209Z" fill="#9AADFF" fill-opacity="0.51"/>
</svg>
