<svg width="336" height="375" viewBox="0 0 336 375" fill="none" xmlns="http://www.w3.org/2000/svg">
<path fill-rule="evenodd" clip-rule="evenodd" d="M5.41977 343.94C5.41977 342.559 4.30008 341.44 2.91887 341.44C1.53766 341.44 0.417967 342.559 0.417967 343.94C0.417967 345.322 1.53766 346.441 2.91887 346.441C4.30008 346.441 5.41977 345.322 5.41977 343.94ZM2.91887 312.885C4.30008 312.885 5.41977 314.005 5.41977 315.386C5.41977 316.767 4.30008 317.887 2.91887 317.887C1.53766 317.887 0.417966 316.767 0.417966 315.386C0.417966 314.005 1.53766 312.885 2.91887 312.885ZM2.91887 289.395C4.29191 289.395 5.41977 288.267 5.41977 286.894C5.41977 285.521 4.29191 284.393 2.91887 284.393C1.54582 284.393 0.417965 285.521 0.417965 286.894C0.417965 288.267 1.54582 289.395 2.91887 289.395ZM2.91887 255.831C4.30008 255.831 5.41977 256.951 5.41977 258.332C5.41977 259.713 4.30008 260.833 2.91887 260.833C1.53766 260.833 0.417964 259.713 0.417964 258.332C0.417964 256.951 1.53766 255.831 2.91887 255.831ZM5.41977 229.78C5.41977 228.399 4.30007 227.279 2.91887 227.279C1.53766 227.279 0.417962 228.399 0.417962 229.78C0.417962 231.162 1.53766 232.281 2.91887 232.281C4.30007 232.281 5.41977 231.162 5.41977 229.78ZM5.41977 201.292C5.41977 199.911 4.30007 198.791 2.91886 198.791C1.53766 198.791 0.417961 199.911 0.417961 201.292C0.417961 202.673 1.53766 203.793 2.91886 203.793C4.30007 203.793 5.41977 202.673 5.41977 201.292ZM2.92668 369.998C4.30789 369.998 5.42759 371.118 5.42759 372.499C5.42759 373.88 4.30789 375 2.92668 375C1.54548 375 0.425781 373.88 0.425781 372.499C0.425781 371.118 1.54548 369.998 2.92668 369.998ZM30.8104 201.285C30.8104 199.904 29.6907 198.784 28.3095 198.784C26.9283 198.784 25.8086 199.904 25.8086 201.285C25.8086 202.666 26.9283 203.786 28.3095 203.786C29.6907 203.786 30.8104 202.666 30.8104 201.285ZM28.3095 227.272C29.6907 227.272 30.8104 228.391 30.8104 229.773C30.8104 231.154 29.6907 232.273 28.3095 232.273C26.9283 232.273 25.8086 231.154 25.8086 229.773C25.8086 228.391 26.9283 227.272 28.3095 227.272ZM30.8104 258.332C30.8104 256.95 29.6907 255.831 28.3095 255.831C26.9283 255.831 25.8086 256.95 25.8086 258.332C25.8086 259.713 26.9283 260.833 28.3095 260.833C29.6907 260.833 30.8104 259.713 30.8104 258.332ZM30.8104 286.886C30.8104 288.259 29.6825 289.387 28.3095 289.387C26.9365 289.387 25.8086 288.259 25.8086 286.886C25.8086 285.513 26.9365 284.385 28.3095 284.385C29.6825 284.385 30.8104 285.513 30.8104 286.886ZM30.8104 315.378C30.8104 313.997 29.6907 312.877 28.3095 312.877C26.9283 312.877 25.8086 313.997 25.8086 315.378C25.8086 316.759 26.9283 317.879 28.3095 317.879C29.6907 317.879 30.8104 316.759 30.8104 315.378ZM28.3095 341.432C29.6907 341.432 30.8104 342.551 30.8104 343.933C30.8104 345.314 29.6907 346.434 28.3095 346.434C26.9283 346.434 25.8086 345.314 25.8086 343.933C25.8086 342.551 26.9283 341.432 28.3095 341.432ZM30.8065 372.492C30.8065 371.111 29.6868 369.991 28.3056 369.991C26.9244 369.991 25.8047 371.111 25.8047 372.492C25.8047 373.873 26.9244 374.993 28.3056 374.993C29.6868 374.993 30.8065 373.873 30.8065 372.492ZM53.5282 198.787C54.9094 198.787 56.0291 199.907 56.0291 201.288C56.0291 202.669 54.9094 203.789 53.5282 203.789C52.147 203.789 51.0273 202.669 51.0273 201.288C51.0273 199.907 52.147 198.787 53.5282 198.787ZM56.0291 229.781C56.0291 228.4 54.9094 227.28 53.5282 227.28C52.147 227.28 51.0273 228.4 51.0273 229.781C51.0273 231.163 52.147 232.282 53.5282 232.282C54.9094 232.282 56.0291 231.163 56.0291 229.781ZM53.5282 255.834C54.9094 255.834 56.0291 256.954 56.0291 258.335C56.0291 259.716 54.9094 260.836 53.5282 260.836C52.147 260.836 51.0273 259.716 51.0273 258.335C51.0273 256.954 52.147 255.834 53.5282 255.834ZM53.5282 289.395C54.9013 289.395 56.0291 288.267 56.0291 286.894C56.0291 285.521 54.9013 284.393 53.5282 284.393C52.1552 284.393 51.0273 285.521 51.0273 286.894C51.0273 288.267 52.1062 289.395 53.5282 289.395ZM53.5282 312.885C54.9095 312.885 56.0291 314.005 56.0291 315.386C56.0291 316.767 54.9095 317.887 53.5282 317.887C52.147 317.887 51.0273 316.767 51.0273 315.386C51.0273 314.005 52.147 312.885 53.5282 312.885ZM56.0292 343.941C56.0292 342.56 54.9095 341.441 53.5282 341.441C52.147 341.441 51.0273 342.56 51.0273 343.941C51.0273 345.323 52.147 346.442 53.5282 346.442C54.9095 346.442 56.0292 345.323 56.0292 343.941ZM53.5282 369.993C54.9095 369.993 56.0292 371.113 56.0292 372.494C56.0292 373.875 54.9095 374.995 53.5282 374.995C52.147 374.995 51.0273 373.875 51.0273 372.494C51.0273 371.113 52.147 369.993 53.5282 369.993ZM81.3534 201.288C81.3534 199.907 80.2337 198.787 78.8525 198.787C77.4713 198.787 76.3516 199.907 76.3516 201.288C76.3516 202.669 77.4713 203.789 78.8525 203.789C80.2337 203.789 81.3534 202.669 81.3534 201.288ZM78.8525 227.279C80.2337 227.279 81.3534 228.399 81.3534 229.78C81.3534 231.162 80.2337 232.281 78.8525 232.281C77.4713 232.281 76.3516 231.162 76.3516 229.78C76.3516 228.399 77.4713 227.279 78.8525 227.279ZM81.3531 258.334C81.3531 256.953 80.2334 255.833 78.8522 255.833C77.471 255.833 76.3513 256.953 76.3513 258.334C76.3513 259.715 77.471 260.835 78.8522 260.835C80.2334 260.835 81.3531 259.715 81.3531 258.334ZM81.3531 286.89C81.3531 288.263 80.2253 289.391 78.8522 289.391C77.4792 289.391 76.3513 288.263 76.3513 286.89C76.3513 285.517 77.4792 284.389 78.8522 284.389C80.2253 284.389 81.3531 285.517 81.3531 286.89ZM81.3534 315.386C81.3534 314.005 80.2337 312.885 78.8525 312.885C77.4713 312.885 76.3516 314.005 76.3516 315.386C76.3516 316.767 77.4713 317.887 78.8525 317.887C80.2337 317.887 81.3534 316.767 81.3534 315.386ZM78.8525 341.44C80.2337 341.44 81.3534 342.559 81.3534 343.94C81.3534 345.322 80.2337 346.441 78.8525 346.441C77.4713 346.441 76.3516 345.322 76.3516 343.94C76.3516 342.559 77.4713 341.44 78.8525 341.44ZM81.3534 372.495C81.3534 371.114 80.2337 369.994 78.8525 369.994C77.4713 369.994 76.3516 371.114 76.3516 372.495C76.3516 373.876 77.4713 374.996 78.8525 374.996C80.2337 374.996 81.3534 373.876 81.3534 372.495ZM104.235 198.791C105.616 198.791 106.736 199.911 106.736 201.292C106.736 202.673 105.616 203.793 104.235 203.793C102.854 203.793 101.734 202.673 101.734 201.292C101.734 199.911 102.854 198.791 104.235 198.791ZM106.736 229.78C106.736 228.399 105.616 227.279 104.235 227.279C102.854 227.279 101.734 228.399 101.734 229.78C101.734 231.162 102.854 232.281 104.235 232.281C105.616 232.281 106.736 231.162 106.736 229.78ZM104.235 255.834C105.616 255.834 106.736 256.954 106.736 258.335C106.736 259.716 105.616 260.836 104.235 260.836C102.854 260.836 101.734 259.716 101.734 258.335C101.734 256.954 102.854 255.834 104.235 255.834ZM104.235 289.395C105.608 289.395 106.736 288.267 106.736 286.894C106.736 285.521 105.608 284.393 104.235 284.393C102.862 284.393 101.734 285.521 101.734 286.894C101.734 288.267 102.862 289.395 104.235 289.395ZM104.235 312.885C105.616 312.885 106.736 314.005 106.736 315.386C106.736 316.767 105.616 317.887 104.235 317.887C102.854 317.887 101.734 316.767 101.734 315.386C101.734 314.005 102.854 312.885 104.235 312.885ZM106.737 343.941C106.737 342.56 105.617 341.441 104.236 341.441C102.855 341.441 101.735 342.56 101.735 343.941C101.735 345.323 102.855 346.442 104.236 346.442C105.617 346.442 106.737 345.323 106.737 343.941ZM104.235 369.994C105.616 369.994 106.736 371.114 106.736 372.495C106.736 373.876 105.616 374.996 104.235 374.996C102.854 374.996 101.734 373.876 101.734 372.495C101.734 371.114 102.854 369.994 104.235 369.994ZM131.955 201.288C131.955 199.907 130.835 198.787 129.454 198.787C128.073 198.787 126.953 199.907 126.953 201.288C126.953 202.669 128.073 203.789 129.454 203.789C130.835 203.789 131.955 202.669 131.955 201.288ZM129.454 227.28C130.835 227.28 131.955 228.4 131.955 229.781C131.955 231.163 130.835 232.282 129.454 232.282C128.073 232.282 126.953 231.163 126.953 229.781C126.953 228.4 128.073 227.28 129.454 227.28ZM131.955 258.335C131.955 256.954 130.835 255.834 129.454 255.834C128.073 255.834 126.953 256.954 126.953 258.335C126.953 259.716 128.073 260.836 129.454 260.836C130.835 260.836 131.955 259.716 131.955 258.335ZM131.955 286.894C131.955 288.267 130.827 289.395 129.454 289.395C128.032 289.395 126.953 288.267 126.953 286.894C126.953 285.521 128.081 284.393 129.454 284.393C130.827 284.393 131.955 285.521 131.955 286.894ZM131.955 315.386C131.955 314.005 130.835 312.885 129.454 312.885C128.073 312.885 126.953 314.005 126.953 315.386C126.953 316.767 128.073 317.887 129.454 317.887C130.835 317.887 131.955 316.767 131.955 315.386ZM129.454 341.441C130.835 341.441 131.955 342.56 131.955 343.941C131.955 345.323 130.835 346.442 129.454 346.442C128.073 346.442 126.953 345.323 126.953 343.941C126.953 342.56 128.073 341.441 129.454 341.441ZM131.955 372.494C131.955 371.113 130.835 369.993 129.454 369.993C128.073 369.993 126.953 371.113 126.953 372.494C126.953 373.875 128.073 374.995 129.454 374.995C130.835 374.995 131.955 373.875 131.955 372.494ZM154.962 198.787C156.343 198.787 157.463 199.907 157.463 201.288C157.463 202.669 156.343 203.789 154.962 203.789C153.581 203.789 152.461 202.669 152.461 201.288C152.461 199.907 153.581 198.787 154.962 198.787ZM157.462 229.777C157.462 228.396 156.343 227.276 154.961 227.276C153.58 227.276 152.46 228.396 152.46 229.777C152.46 231.158 153.58 232.278 154.961 232.278C156.343 232.278 157.462 231.158 157.462 229.777ZM154.961 255.833C156.343 255.833 157.462 256.953 157.462 258.334C157.462 259.715 156.343 260.835 154.961 260.835C153.58 260.835 152.46 259.715 152.46 258.334C152.46 256.953 153.58 255.833 154.961 255.833ZM154.962 289.395C156.335 289.395 157.463 288.267 157.463 286.894C157.463 285.521 156.335 284.393 154.962 284.393C153.589 284.393 152.461 285.521 152.461 286.894C152.461 288.267 153.589 289.395 154.962 289.395ZM154.961 312.88C156.343 312.88 157.462 314 157.462 315.381C157.462 316.762 156.343 317.882 154.961 317.882C153.58 317.882 152.46 316.762 152.46 315.381C152.46 314 153.58 312.88 154.961 312.88ZM157.463 343.94C157.463 342.559 156.343 341.44 154.962 341.44C153.581 341.44 152.461 342.559 152.461 343.94C152.461 345.322 153.581 346.441 154.962 346.441C156.343 346.441 157.463 345.322 157.463 343.94ZM154.962 369.994C156.343 369.994 157.463 371.114 157.463 372.495C157.463 373.876 156.343 374.996 154.962 374.996C153.581 374.996 152.461 373.876 152.461 372.495C152.461 371.114 153.581 369.994 154.962 369.994Z" fill="#9AADFF" fill-opacity="0.51"/>
<path fill-rule="evenodd" clip-rule="evenodd" d="M5.41977 145.47C5.41977 144.089 4.30008 142.969 2.91887 142.969C1.53766 142.969 0.417967 144.089 0.417967 145.47C0.417967 146.851 1.53766 147.971 2.91887 147.971C4.30008 147.971 5.41977 146.851 5.41977 145.47ZM2.91887 114.415C4.30008 114.415 5.41977 115.534 5.41977 116.916C5.41977 118.297 4.30008 119.417 2.91887 119.417C1.53766 119.417 0.417966 118.297 0.417966 116.916C0.417966 115.534 1.53766 114.415 2.91887 114.415ZM2.91887 90.9243C4.29191 90.9243 5.41977 89.7965 5.41977 88.4234C5.41977 87.0504 4.29191 85.9225 2.91887 85.9225C1.54582 85.9225 0.417965 87.0504 0.417965 88.4234C0.417965 89.7965 1.54582 90.9243 2.91887 90.9243ZM2.91887 57.3606C4.30008 57.3606 5.41977 58.4803 5.41977 59.8615C5.41977 61.2427 4.30008 62.3624 2.91887 62.3624C1.53766 62.3624 0.417964 61.2427 0.417964 59.8615C0.417964 58.4803 1.53766 57.3606 2.91887 57.3606ZM5.41977 31.3101C5.41977 29.9289 4.30007 28.8092 2.91887 28.8092C1.53766 28.8092 0.417962 29.9289 0.417962 31.3101C0.417962 32.6913 1.53766 33.811 2.91887 33.811C4.30007 33.811 5.41977 32.6913 5.41977 31.3101ZM5.41977 2.82185C5.41977 1.44063 4.30007 0.320953 2.91886 0.320953C1.53766 0.320953 0.417961 1.44063 0.417961 2.82185C0.417961 4.20306 1.53766 5.32275 2.91886 5.32275C4.30007 5.32275 5.41977 4.20306 5.41977 2.82185ZM2.92668 171.528C4.30789 171.528 5.42759 172.648 5.42759 174.029C5.42759 175.41 4.30789 176.53 2.92668 176.53C1.54548 176.53 0.425781 175.41 0.425781 174.029C0.425781 172.648 1.54548 171.528 2.92668 171.528ZM30.8104 2.81477C30.8104 1.43355 29.6907 0.313872 28.3095 0.313872C26.9283 0.313872 25.8086 1.43355 25.8086 2.81477C25.8086 4.19598 26.9283 5.31567 28.3095 5.31567C29.6907 5.31567 30.8104 4.19598 30.8104 2.81477ZM28.3095 28.8014C29.6907 28.8014 30.8104 29.9211 30.8104 31.3023C30.8104 32.6835 29.6907 33.8032 28.3095 33.8032C26.9283 33.8032 25.8086 32.6835 25.8086 31.3023C25.8086 29.9211 26.9283 28.8014 28.3095 28.8014ZM30.8104 59.8614C30.8104 58.4802 29.6907 57.3605 28.3095 57.3605C26.9283 57.3605 25.8086 58.4802 25.8086 59.8614C25.8086 61.2426 26.9283 62.3623 28.3095 62.3623C29.6907 62.3623 30.8104 61.2426 30.8104 59.8614ZM30.8104 88.4156C30.8104 89.7886 29.6825 90.9165 28.3095 90.9165C26.9365 90.9165 25.8086 89.7886 25.8086 88.4156C25.8086 87.0425 26.9365 85.9147 28.3095 85.9147C29.6825 85.9147 30.8104 87.0425 30.8104 88.4156ZM30.8104 116.908C30.8104 115.527 29.6907 114.407 28.3095 114.407C26.9283 114.407 25.8086 115.527 25.8086 116.908C25.8086 118.289 26.9283 119.409 28.3095 119.409C29.6907 119.409 30.8104 118.289 30.8104 116.908ZM28.3095 142.961C29.6907 142.961 30.8104 144.08 30.8104 145.461C30.8104 146.843 29.6907 147.962 28.3095 147.962C26.9283 147.962 25.8086 146.843 25.8086 145.461C25.8086 144.08 26.9283 142.961 28.3095 142.961ZM30.8065 174.022C30.8065 172.641 29.6868 171.521 28.3056 171.521C26.9244 171.521 25.8047 172.641 25.8047 174.022C25.8047 175.403 26.9244 176.523 28.3056 176.523C29.6868 176.523 30.8065 175.403 30.8065 174.022ZM53.5282 0.317045C54.9094 0.317045 56.0291 1.43672 56.0291 2.81794C56.0291 4.19916 54.9094 5.31885 53.5282 5.31885C52.147 5.31885 51.0273 4.19916 51.0273 2.81795C51.0273 1.43672 52.147 0.317045 53.5282 0.317045ZM56.0291 31.3101C56.0291 29.9289 54.9094 28.8092 53.5282 28.8092C52.147 28.8092 51.0273 29.9289 51.0273 31.3101C51.0273 32.6913 52.147 33.811 53.5282 33.811C54.9094 33.811 56.0291 32.6913 56.0291 31.3101ZM53.5282 57.3678C54.9094 57.3678 56.0291 58.4875 56.0291 59.8687C56.0291 61.2499 54.9094 62.3696 53.5282 62.3696C52.147 62.3696 51.0273 61.2499 51.0273 59.8687C51.0273 58.4875 52.147 57.3678 53.5282 57.3678ZM53.5282 90.9243C54.9013 90.9243 56.0291 89.7965 56.0291 88.4234C56.0291 87.0504 54.9013 85.9225 53.5282 85.9225C52.1552 85.9225 51.0273 87.0504 51.0273 88.4234C51.0273 89.7965 52.1062 90.9243 53.5282 90.9243ZM53.5282 114.415C54.9095 114.415 56.0291 115.534 56.0291 116.916C56.0291 118.297 54.9095 119.417 53.5282 119.417C52.147 119.417 51.0273 118.297 51.0273 116.916C51.0273 115.534 52.147 114.415 53.5282 114.415ZM56.0292 145.471C56.0292 144.09 54.9095 142.97 53.5282 142.97C52.147 142.97 51.0273 144.09 51.0273 145.471C51.0273 146.852 52.147 147.972 53.5282 147.972C54.9095 147.972 56.0292 146.852 56.0292 145.471ZM53.5282 171.523C54.9095 171.523 56.0292 172.643 56.0292 174.024C56.0292 175.405 54.9095 176.525 53.5282 176.525C52.147 176.525 51.0273 175.405 51.0273 174.024C51.0273 172.643 52.147 171.523 53.5282 171.523ZM81.3531 2.81733C81.3531 1.43611 80.2334 0.316433 78.8522 0.316433C77.471 0.316433 76.3513 1.43611 76.3513 2.81733C76.3513 4.19854 77.471 5.31823 78.8522 5.31823C80.2334 5.31823 81.3531 4.19854 81.3531 2.81733ZM78.8525 28.8092C80.2337 28.8092 81.3534 29.9289 81.3534 31.3101C81.3534 32.6913 80.2337 33.811 78.8525 33.811C77.4713 33.811 76.3516 32.6913 76.3516 31.3101C76.3516 29.9289 77.4713 28.8092 78.8525 28.8092ZM81.3531 59.8641C81.3531 58.4829 80.2334 57.3632 78.8522 57.3632C77.471 57.3632 76.3513 58.4829 76.3513 59.8641C76.3513 61.2454 77.471 62.365 78.8522 62.365C80.2334 62.365 81.3531 61.2454 81.3531 59.8641ZM81.3531 88.4197C81.3531 89.7928 80.2253 90.9206 78.8522 90.9206C77.4792 90.9206 76.3513 89.7928 76.3513 88.4197C76.3513 87.0467 77.4792 85.9188 78.8522 85.9188C80.2253 85.9188 81.3531 87.0467 81.3531 88.4197ZM81.3534 116.916C81.3534 115.534 80.2337 114.415 78.8525 114.415C77.4713 114.415 76.3516 115.534 76.3516 116.916C76.3516 118.297 77.4713 119.417 78.8525 119.417C80.2337 119.417 81.3534 118.297 81.3534 116.916ZM78.8525 142.969C80.2337 142.969 81.3534 144.089 81.3534 145.47C81.3534 146.851 80.2337 147.971 78.8525 147.971C77.4713 147.971 76.3516 146.851 76.3516 145.47C76.3516 144.089 77.4713 142.969 78.8525 142.969ZM81.3531 174.024C81.3531 172.643 80.2334 171.523 78.8522 171.523C77.471 171.523 76.3513 172.643 76.3513 174.024C76.3513 175.405 77.471 176.525 78.8522 176.525C80.2334 176.525 81.3531 175.405 81.3531 174.024ZM104.235 0.320949C105.616 0.320949 106.736 1.44062 106.736 2.82185C106.736 4.20306 105.616 5.32275 104.235 5.32275C102.854 5.32275 101.734 4.20306 101.734 2.82185C101.734 1.44062 102.854 0.320949 104.235 0.320949ZM106.736 31.3101C106.736 29.9289 105.616 28.8092 104.235 28.8092C102.854 28.8092 101.734 29.9289 101.734 31.3101C101.734 32.6913 102.854 33.811 104.235 33.811C105.616 33.811 106.736 32.6913 106.736 31.3101ZM104.235 57.3678C105.616 57.3678 106.736 58.4875 106.736 59.8687C106.736 61.2499 105.616 62.3696 104.235 62.3696C102.854 62.3696 101.734 61.2499 101.734 59.8687C101.734 58.4875 102.854 57.3678 104.235 57.3678ZM104.235 90.9243C105.608 90.9243 106.736 89.7965 106.736 88.4234C106.736 87.0504 105.608 85.9225 104.235 85.9225C102.862 85.9225 101.734 87.0504 101.734 88.4234C101.734 89.7965 102.862 90.9243 104.235 90.9243ZM104.235 114.415C105.616 114.415 106.736 115.534 106.736 116.916C106.736 118.297 105.616 119.416 104.235 119.416C102.854 119.416 101.734 118.297 101.734 116.916C101.734 115.534 102.854 114.415 104.235 114.415ZM106.737 145.471C106.737 144.09 105.617 142.97 104.236 142.97C102.855 142.97 101.735 144.09 101.735 145.471C101.735 146.852 102.855 147.972 104.236 147.972C105.617 147.972 106.737 146.852 106.737 145.471ZM104.235 171.524C105.616 171.524 106.736 172.644 106.736 174.025C106.736 175.406 105.616 176.526 104.235 176.526C102.854 176.526 101.734 175.406 101.734 174.025C101.734 172.644 102.854 171.524 104.235 171.524ZM131.955 2.81794C131.955 1.43672 130.835 0.317041 129.454 0.317041C128.073 0.317042 126.953 1.43672 126.953 2.81794C126.953 4.19915 128.073 5.31884 129.454 5.31884C130.835 5.31884 131.955 4.19915 131.955 2.81794ZM129.454 28.8092C130.835 28.8092 131.955 29.9289 131.955 31.3101C131.955 32.6913 130.835 33.811 129.454 33.811C128.073 33.811 126.953 32.6913 126.953 31.3101C126.953 29.9289 128.073 28.8092 129.454 28.8092ZM131.955 59.8687C131.955 58.4875 130.835 57.3678 129.454 57.3678C128.073 57.3678 126.953 58.4875 126.953 59.8687C126.953 61.2499 128.073 62.3696 129.454 62.3696C130.835 62.3696 131.955 61.2499 131.955 59.8687ZM131.955 88.4234C131.955 89.7965 130.827 90.9243 129.454 90.9243C128.032 90.9243 126.953 89.7965 126.953 88.4234C126.953 87.0504 128.081 85.9225 129.454 85.9225C130.827 85.9225 131.955 87.0504 131.955 88.4234ZM131.955 116.916C131.955 115.534 130.835 114.415 129.454 114.415C128.073 114.415 126.953 115.534 126.953 116.916C126.953 118.297 128.073 119.416 129.454 119.416C130.835 119.416 131.955 118.297 131.955 116.916ZM129.454 142.97C130.835 142.97 131.955 144.09 131.955 145.471C131.955 146.852 130.835 147.972 129.454 147.972C128.073 147.972 126.953 146.852 126.953 145.471C126.953 144.09 128.073 142.97 129.454 142.97ZM131.955 174.024C131.955 172.643 130.835 171.523 129.454 171.523C128.073 171.523 126.953 172.643 126.953 174.024C126.953 175.405 128.073 176.525 129.454 176.525C130.835 176.525 131.955 175.405 131.955 174.024ZM154.961 0.31643C156.343 0.31643 157.462 1.4361 157.462 2.81733C157.462 4.19854 156.343 5.31823 154.961 5.31823C153.58 5.31823 152.46 4.19854 152.46 2.81733C152.46 1.4361 153.58 0.31643 154.961 0.31643ZM157.462 31.3067C157.462 29.9255 156.343 28.8058 154.961 28.8058C153.58 28.8058 152.46 29.9255 152.46 31.3067C152.46 32.6879 153.58 33.8076 154.961 33.8076C156.343 33.8076 157.462 32.6879 157.462 31.3067ZM154.961 57.3632C156.343 57.3632 157.462 58.4829 157.462 59.8641C157.462 61.2453 156.343 62.365 154.961 62.365C153.58 62.365 152.46 61.2453 152.46 59.8641C152.46 58.4829 153.58 57.3632 154.961 57.3632ZM154.962 90.9243C156.335 90.9243 157.463 89.7965 157.463 88.4234C157.463 87.0504 156.335 85.9225 154.962 85.9225C153.589 85.9225 152.461 87.0504 152.461 88.4234C152.461 89.7965 153.589 90.9243 154.962 90.9243ZM154.961 114.41C156.343 114.41 157.462 115.53 157.462 116.911C157.462 118.292 156.343 119.412 154.961 119.412C153.58 119.412 152.46 118.292 152.46 116.911C152.46 115.53 153.58 114.41 154.961 114.41ZM157.463 145.47C157.463 144.089 156.343 142.969 154.962 142.969C153.581 142.969 152.461 144.089 152.461 145.47C152.461 146.851 153.581 147.971 154.962 147.971C156.343 147.971 157.463 146.851 157.463 145.47ZM154.962 171.524C156.343 171.524 157.463 172.644 157.463 174.025C157.463 175.406 156.343 176.526 154.962 176.526C153.581 176.526 152.461 175.406 152.461 174.025C152.461 172.644 153.581 171.524 154.962 171.524Z" fill="#9AADFF" fill-opacity="0.51"/>
<path fill-rule="evenodd" clip-rule="evenodd" d="M183.459 343.627C183.459 342.246 182.339 341.126 180.958 341.126C179.577 341.126 178.457 342.246 178.457 343.627C178.457 345.008 179.577 346.128 180.958 346.128C182.339 346.128 183.459 345.008 183.459 343.627ZM180.958 312.568C182.339 312.568 183.459 313.687 183.459 315.068C183.459 316.45 182.339 317.569 180.958 317.569C179.577 317.569 178.457 316.45 178.457 315.068C178.457 313.687 179.577 312.568 180.958 312.568ZM180.958 289.081C182.331 289.081 183.459 287.953 183.459 286.58C183.459 285.207 182.331 284.079 180.958 284.079C179.585 284.079 178.457 285.207 178.457 286.58C178.457 287.953 179.585 289.081 180.958 289.081ZM180.958 255.517C182.339 255.517 183.459 256.637 183.459 258.018C183.459 259.4 182.339 260.519 180.958 260.519C179.577 260.519 178.457 259.4 178.457 258.018C178.457 256.637 179.577 255.517 180.958 255.517ZM183.459 229.467C183.459 228.086 182.339 226.966 180.958 226.966C179.577 226.966 178.457 228.086 178.457 229.467C178.457 230.848 179.577 231.968 180.958 231.968C182.339 231.968 183.459 230.848 183.459 229.467ZM183.459 200.975C183.459 199.593 182.339 198.474 180.958 198.474C179.577 198.474 178.457 199.593 178.457 200.975C178.457 202.356 179.577 203.476 180.958 203.476C182.339 203.476 183.459 202.356 183.459 200.975ZM180.965 369.685C182.347 369.685 183.466 370.804 183.466 372.186C183.466 373.567 182.347 374.687 180.965 374.687C179.584 374.687 178.464 373.567 178.464 372.186C178.464 370.804 179.584 369.685 180.965 369.685ZM208.849 200.971C208.849 199.59 207.73 198.47 206.349 198.47C204.967 198.47 203.848 199.59 203.848 200.971C203.848 202.352 204.967 203.472 206.349 203.472C207.73 203.472 208.849 202.352 208.849 200.971ZM206.349 226.958C207.73 226.958 208.849 228.078 208.849 229.459C208.849 230.84 207.73 231.96 206.349 231.96C204.967 231.96 203.848 230.84 203.848 229.459C203.848 228.078 204.967 226.958 206.349 226.958ZM208.849 258.018C208.849 256.637 207.73 255.517 206.349 255.517C204.967 255.517 203.848 256.637 203.848 258.018C203.848 259.4 204.967 260.519 206.349 260.519C207.73 260.519 208.849 259.4 208.849 258.018ZM208.849 286.572C208.849 287.945 207.722 289.073 206.349 289.073C204.976 289.073 203.848 287.945 203.848 286.572C203.848 285.199 204.976 284.071 206.349 284.071C207.722 284.071 208.849 285.199 208.849 286.572ZM208.849 315.065C208.849 313.683 207.73 312.564 206.349 312.564C204.967 312.564 203.848 313.683 203.848 315.065C203.848 316.446 204.967 317.565 206.349 317.565C207.73 317.565 208.849 316.446 208.849 315.065ZM206.349 341.117C207.73 341.117 208.849 342.237 208.849 343.618C208.849 344.999 207.73 346.119 206.349 346.119C204.967 346.119 203.848 344.999 203.848 343.618C203.848 342.237 204.967 341.117 206.349 341.117ZM208.846 372.178C208.846 370.797 207.726 369.677 206.345 369.677C204.963 369.677 203.844 370.797 203.844 372.178C203.844 373.56 204.963 374.679 206.345 374.679C207.726 374.679 208.846 373.56 208.846 372.178ZM231.567 198.474C232.949 198.474 234.068 199.593 234.068 200.975C234.068 202.356 232.949 203.476 231.567 203.476C230.186 203.476 229.066 202.356 229.066 200.975C229.066 199.593 230.186 198.474 231.567 198.474ZM234.068 229.467C234.068 228.086 232.949 226.966 231.567 226.966C230.186 226.966 229.066 228.086 229.066 229.467C229.066 230.848 230.186 231.968 231.567 231.968C232.949 231.968 234.068 230.848 234.068 229.467ZM231.567 255.521C232.949 255.521 234.068 256.64 234.068 258.022C234.068 259.403 232.949 260.522 231.567 260.522C230.186 260.522 229.066 259.403 229.066 258.022C229.066 256.64 230.186 255.521 231.567 255.521ZM231.567 289.081C232.94 289.081 234.068 287.953 234.068 286.58C234.068 285.207 232.94 284.079 231.567 284.079C230.194 284.079 229.066 285.207 229.066 286.58C229.066 287.953 230.145 289.081 231.567 289.081ZM231.567 312.568C232.949 312.568 234.068 313.687 234.068 315.068C234.068 316.45 232.949 317.569 231.567 317.569C230.186 317.569 229.066 316.45 229.066 315.068C229.066 313.687 230.186 312.568 231.567 312.568ZM234.068 343.627C234.068 342.246 232.949 341.127 231.567 341.127C230.186 341.127 229.066 342.246 229.066 343.627C229.066 345.009 230.186 346.128 231.567 346.128C232.949 346.128 234.068 345.009 234.068 343.627ZM231.567 369.681C232.949 369.681 234.068 370.801 234.068 372.182C234.068 373.563 232.949 374.683 231.567 374.683C230.186 374.683 229.066 373.563 229.066 372.182C229.066 370.801 230.186 369.681 231.567 369.681ZM259.392 200.975C259.392 199.593 258.273 198.474 256.892 198.474C255.51 198.474 254.391 199.593 254.391 200.975C254.391 202.356 255.51 203.476 256.892 203.476C258.273 203.476 259.392 202.356 259.392 200.975ZM256.892 226.966C258.273 226.966 259.392 228.086 259.392 229.467C259.392 230.848 258.273 231.968 256.892 231.968C255.51 231.968 254.391 230.848 254.391 229.467C254.391 228.086 255.51 226.966 256.892 226.966ZM259.392 258.022C259.392 256.64 258.273 255.521 256.892 255.521C255.51 255.521 254.391 256.64 254.391 258.022C254.391 259.403 255.51 260.522 256.892 260.522C258.273 260.522 259.392 259.403 259.392 258.022ZM259.392 286.576C259.392 287.949 258.264 289.077 256.891 289.077C255.518 289.077 254.39 287.949 254.39 286.576C254.39 285.203 255.518 284.075 256.891 284.075C258.264 284.075 259.392 285.203 259.392 286.576ZM259.392 315.068C259.392 313.687 258.273 312.568 256.892 312.568C255.51 312.568 254.391 313.687 254.391 315.068C254.391 316.45 255.51 317.569 256.892 317.569C258.273 317.569 259.392 316.45 259.392 315.068ZM256.892 341.126C258.273 341.126 259.392 342.246 259.392 343.627C259.392 345.008 258.273 346.128 256.892 346.128C255.51 346.128 254.391 345.008 254.391 343.627C254.391 342.246 255.51 341.126 256.892 341.126ZM259.392 372.182C259.392 370.801 258.273 369.681 256.892 369.681C255.51 369.681 254.391 370.801 254.391 372.182C254.391 373.563 255.51 374.683 256.892 374.683C258.273 374.683 259.392 373.563 259.392 372.182ZM282.274 198.474C283.656 198.474 284.775 199.593 284.775 200.975C284.775 202.356 283.656 203.476 282.274 203.476C280.893 203.476 279.773 202.356 279.773 200.975C279.773 199.593 280.893 198.474 282.274 198.474ZM284.775 229.467C284.775 228.086 283.656 226.966 282.274 226.966C280.893 226.966 279.773 228.086 279.773 229.467C279.773 230.848 280.893 231.968 282.274 231.968C283.656 231.968 284.775 230.848 284.775 229.467ZM282.274 255.521C283.656 255.521 284.775 256.64 284.775 258.022C284.775 259.403 283.656 260.522 282.274 260.522C280.893 260.522 279.773 259.403 279.773 258.022C279.773 256.64 280.893 255.521 282.274 255.521ZM282.274 289.081C283.647 289.081 284.775 287.953 284.775 286.58C284.775 285.207 283.647 284.079 282.274 284.079C280.901 284.079 279.773 285.207 279.773 286.58C279.773 287.953 280.901 289.081 282.274 289.081ZM282.274 312.568C283.656 312.568 284.775 313.687 284.775 315.068C284.775 316.45 283.656 317.569 282.274 317.569C280.893 317.569 279.773 316.45 279.773 315.068C279.773 313.687 280.893 312.568 282.274 312.568ZM284.776 343.627C284.776 342.246 283.656 341.127 282.275 341.127C280.894 341.127 279.774 342.246 279.774 343.627C279.774 345.009 280.894 346.128 282.275 346.128C283.656 346.128 284.776 345.009 284.776 343.627ZM282.274 369.681C283.656 369.681 284.775 370.801 284.775 372.182C284.775 373.563 283.656 374.683 282.274 374.683C280.893 374.683 279.773 373.563 279.773 372.182C279.773 370.801 280.893 369.681 282.274 369.681ZM309.994 200.975C309.994 199.593 308.874 198.474 307.493 198.474C306.112 198.474 304.992 199.593 304.992 200.975C304.992 202.356 306.112 203.476 307.493 203.476C308.874 203.476 309.994 202.356 309.994 200.975ZM307.493 226.966C308.874 226.966 309.994 228.086 309.994 229.467C309.994 230.848 308.874 231.968 307.493 231.968C306.112 231.968 304.992 230.848 304.992 229.467C304.992 228.086 306.112 226.966 307.493 226.966ZM309.994 258.022C309.994 256.64 308.874 255.521 307.493 255.521C306.112 255.521 304.992 256.64 304.992 258.022C304.992 259.403 306.112 260.522 307.493 260.522C308.874 260.522 309.994 259.403 309.994 258.022ZM309.994 286.58C309.994 287.953 308.866 289.081 307.493 289.081C306.071 289.081 304.992 287.953 304.992 286.58C304.992 285.207 306.12 284.079 307.493 284.079C308.866 284.079 309.994 285.207 309.994 286.58ZM309.994 315.068C309.994 313.687 308.874 312.568 307.493 312.568C306.112 312.568 304.992 313.687 304.992 315.068C304.992 316.45 306.112 317.569 307.493 317.569C308.874 317.569 309.994 316.45 309.994 315.068ZM307.493 341.127C308.874 341.127 309.994 342.246 309.994 343.627C309.994 345.009 308.874 346.128 307.493 346.128C306.112 346.128 304.992 345.009 304.992 343.627C304.992 342.246 306.112 341.127 307.493 341.127ZM309.994 372.182C309.994 370.801 308.874 369.681 307.493 369.681C306.112 369.681 304.992 370.801 304.992 372.182C304.992 373.563 306.112 374.683 307.493 374.683C308.874 374.683 309.994 373.563 309.994 372.182ZM333.001 198.474C334.382 198.474 335.502 199.593 335.502 200.975C335.502 202.356 334.382 203.476 333.001 203.476C331.62 203.476 330.5 202.356 330.5 200.975C330.5 199.593 331.62 198.474 333.001 198.474ZM335.501 229.463C335.501 228.082 334.382 226.962 333 226.962C331.619 226.962 330.5 228.082 330.5 229.463C330.5 230.844 331.619 231.964 333 231.964C334.382 231.964 335.501 230.844 335.501 229.463ZM333.001 255.521C334.382 255.521 335.502 256.64 335.502 258.022C335.502 259.403 334.382 260.522 333.001 260.522C331.62 260.522 330.5 259.403 330.5 258.022C330.5 256.64 331.62 255.521 333.001 255.521ZM333.001 289.081C334.374 289.081 335.502 287.953 335.502 286.58C335.502 285.207 334.374 284.079 333.001 284.079C331.628 284.079 330.5 285.207 330.5 286.58C330.5 287.953 331.628 289.081 333.001 289.081ZM333 312.567C334.382 312.567 335.501 313.687 335.501 315.068C335.501 316.449 334.382 317.569 333 317.569C331.619 317.569 330.5 316.449 330.5 315.068C330.5 313.687 331.619 312.567 333 312.567ZM335.502 343.627C335.502 342.246 334.382 341.126 333.001 341.126C331.62 341.126 330.5 342.246 330.5 343.627C330.5 345.008 331.62 346.128 333.001 346.128C334.382 346.128 335.502 345.008 335.502 343.627ZM333.001 369.681C334.382 369.681 335.502 370.801 335.502 372.182C335.502 373.563 334.382 374.683 333.001 374.683C331.62 374.683 330.5 373.563 330.5 372.182C330.5 370.801 331.62 369.681 333.001 369.681Z" fill="#9AADFF" fill-opacity="0.51"/>
<path fill-rule="evenodd" clip-rule="evenodd" d="M183.459 145.157C183.459 143.776 182.339 142.656 180.958 142.656C179.577 142.656 178.457 143.776 178.457 145.157C178.457 146.538 179.577 147.658 180.958 147.658C182.339 147.658 183.459 146.538 183.459 145.157ZM180.958 114.097C182.339 114.097 183.459 115.217 183.459 116.598C183.459 117.979 182.339 119.099 180.958 119.099C179.577 119.099 178.457 117.979 178.457 116.598C178.457 115.217 179.577 114.097 180.958 114.097ZM180.958 90.6108C182.331 90.6108 183.459 89.483 183.459 88.1099C183.459 86.7369 182.331 85.609 180.958 85.609C179.585 85.609 178.457 86.7369 178.457 88.1099C178.457 89.483 179.585 90.6108 180.958 90.6108ZM180.958 57.0472C182.339 57.0472 183.459 58.1669 183.459 59.5481C183.459 60.9294 182.339 62.049 180.958 62.049C179.577 62.049 178.457 60.9294 178.457 59.5481C178.457 58.1669 179.577 57.0472 180.958 57.0472ZM183.459 30.9967C183.459 29.6154 182.339 28.4958 180.958 28.4958C179.577 28.4958 178.457 29.6154 178.457 30.9967C178.457 32.3779 179.577 33.4976 180.958 33.4976C182.339 33.4976 183.459 32.3779 183.459 30.9967ZM183.459 2.50447C183.459 1.12325 182.339 0.00357039 180.958 0.00357045C179.577 0.00357051 178.457 1.12325 178.457 2.50447C178.457 3.88568 179.577 5.00537 180.958 5.00537C182.339 5.00537 183.459 3.88568 183.459 2.50447ZM180.965 171.215C182.347 171.215 183.466 172.334 183.466 173.715C183.466 175.097 182.347 176.216 180.965 176.216C179.584 176.216 178.464 175.097 178.464 173.715C178.464 172.334 179.584 171.215 180.965 171.215ZM208.849 2.50105C208.849 1.11983 207.73 0.000151308 206.349 0.000151369C204.967 0.000151429 203.848 1.11983 203.848 2.50105C203.848 3.88226 204.967 5.00195 206.349 5.00195C207.73 5.00195 208.849 3.88226 208.849 2.50105ZM206.349 28.4879C207.73 28.4879 208.849 29.6076 208.849 30.9888C208.849 32.3701 207.73 33.4897 206.349 33.4897C204.967 33.4897 203.848 32.3701 203.848 30.9888C203.848 29.6076 204.967 28.4879 206.349 28.4879ZM208.849 59.5482C208.849 58.167 207.73 57.0473 206.349 57.0473C204.967 57.0473 203.848 58.167 203.848 59.5482C203.848 60.9294 204.967 62.0491 206.349 62.0491C207.73 62.0491 208.849 60.9294 208.849 59.5482ZM208.849 88.1021C208.849 89.4752 207.722 90.603 206.349 90.603C204.976 90.603 203.848 89.4752 203.848 88.1021C203.848 86.7291 204.976 85.6012 206.349 85.6012C207.722 85.6012 208.849 86.7291 208.849 88.1021ZM208.849 116.594C208.849 115.213 207.73 114.093 206.349 114.093C204.967 114.093 203.848 115.213 203.848 116.594C203.848 117.976 204.967 119.095 206.349 119.095C207.73 119.095 208.849 117.976 208.849 116.594ZM206.349 142.647C207.73 142.647 208.849 143.767 208.849 145.148C208.849 146.529 207.73 147.649 206.349 147.649C204.967 147.649 203.848 146.529 203.848 145.148C203.848 143.767 204.967 142.647 206.349 142.647ZM208.846 173.708C208.846 172.327 207.726 171.207 206.345 171.207C204.963 171.207 203.844 172.327 203.844 173.708C203.844 175.089 204.963 176.209 206.345 176.209C207.726 176.209 208.846 175.089 208.846 173.708ZM231.567 0.00356824C232.949 0.00356817 234.068 1.12324 234.068 2.50447C234.068 3.88568 232.949 5.00537 231.567 5.00537C230.186 5.00537 229.066 3.88568 229.066 2.50447C229.066 1.12324 230.186 0.0035683 231.567 0.00356824ZM234.068 30.9967C234.068 29.6154 232.949 28.4958 231.567 28.4958C230.186 28.4958 229.066 29.6154 229.066 30.9967C229.066 32.3779 230.186 33.4976 231.567 33.4976C232.949 33.4976 234.068 32.3779 234.068 30.9967ZM231.567 57.0504C232.949 57.0504 234.068 58.1701 234.068 59.5513C234.068 60.9326 232.949 62.0522 231.567 62.0522C230.186 62.0522 229.066 60.9326 229.066 59.5513C229.066 58.1701 230.186 57.0504 231.567 57.0504ZM231.567 90.6108C232.94 90.6108 234.068 89.483 234.068 88.1099C234.068 86.7369 232.94 85.609 231.567 85.609C230.194 85.609 229.066 86.7369 229.066 88.1099C229.066 89.483 230.145 90.6108 231.567 90.6108ZM231.567 114.097C232.949 114.097 234.068 115.217 234.068 116.598C234.068 117.979 232.949 119.099 231.567 119.099C230.186 119.099 229.066 117.979 229.066 116.598C229.066 115.217 230.186 114.097 231.567 114.097ZM234.068 145.158C234.068 143.777 232.949 142.657 231.567 142.657C230.186 142.657 229.066 143.777 229.066 145.158C229.066 146.539 230.186 147.659 231.567 147.659C232.949 147.659 234.068 146.539 234.068 145.158ZM231.567 171.211C232.949 171.211 234.068 172.33 234.068 173.712C234.068 175.093 232.949 176.212 231.567 176.212C230.186 176.212 229.066 175.093 229.066 173.712C229.066 172.33 230.186 171.211 231.567 171.211ZM259.392 2.50447C259.392 1.12324 258.273 0.00356707 256.892 0.00356713C255.51 0.00356719 254.391 1.12324 254.391 2.50447C254.391 3.88568 255.51 5.00537 256.892 5.00537C258.273 5.00537 259.392 3.88568 259.392 2.50447ZM256.892 28.4958C258.273 28.4958 259.392 29.6154 259.392 30.9967C259.392 32.3779 258.273 33.4976 256.892 33.4976C255.51 33.4976 254.391 32.3779 254.391 30.9967C254.391 29.6154 255.51 28.4958 256.892 28.4958ZM259.392 59.5508C259.392 58.1695 258.272 57.0499 256.891 57.0499C255.51 57.0499 254.39 58.1695 254.39 59.5508C254.39 60.932 255.51 62.0517 256.891 62.0517C258.272 62.0517 259.392 60.932 259.392 59.5508ZM259.392 88.1058C259.392 89.4789 258.264 90.6067 256.891 90.6067C255.518 90.6067 254.39 89.4789 254.39 88.1058C254.39 86.7328 255.518 85.6049 256.891 85.6049C258.264 85.6049 259.392 86.7328 259.392 88.1058ZM259.392 116.598C259.392 115.217 258.273 114.097 256.892 114.097C255.51 114.097 254.391 115.217 254.391 116.598C254.391 117.979 255.51 119.099 256.892 119.099C258.273 119.099 259.392 117.979 259.392 116.598ZM256.892 142.656C258.273 142.656 259.392 143.776 259.392 145.157C259.392 146.538 258.273 147.658 256.892 147.658C255.51 147.658 254.391 146.538 254.391 145.157C254.391 143.776 255.51 142.656 256.892 142.656ZM259.392 173.712C259.392 172.33 258.273 171.211 256.892 171.211C255.51 171.211 254.391 172.33 254.391 173.712C254.391 175.093 255.51 176.212 256.892 176.212C258.273 176.212 259.392 175.093 259.392 173.712ZM282.274 0.00356602C283.656 0.00356596 284.775 1.12324 284.775 2.50447C284.775 3.88568 283.656 5.00537 282.274 5.00537C280.893 5.00537 279.773 3.88568 279.773 2.50447C279.773 1.12324 280.893 0.00356608 282.274 0.00356602ZM284.775 30.9967C284.775 29.6154 283.656 28.4958 282.274 28.4958C280.893 28.4958 279.773 29.6154 279.773 30.9967C279.773 32.3779 280.893 33.4976 282.274 33.4976C283.656 33.4976 284.775 32.3779 284.775 30.9967ZM282.274 57.0504C283.656 57.0504 284.775 58.1701 284.775 59.5513C284.775 60.9326 283.656 62.0522 282.274 62.0522C280.893 62.0522 279.773 60.9326 279.773 59.5513C279.773 58.1701 280.893 57.0504 282.274 57.0504ZM282.274 90.6108C283.647 90.6108 284.775 89.483 284.775 88.1099C284.775 86.7369 283.647 85.609 282.274 85.609C280.901 85.609 279.773 86.7369 279.773 88.1099C279.773 89.483 280.901 90.6108 282.274 90.6108ZM282.274 114.097C283.656 114.097 284.775 115.217 284.775 116.598C284.775 117.979 283.656 119.099 282.274 119.099C280.893 119.099 279.773 117.979 279.773 116.598C279.773 115.217 280.893 114.097 282.274 114.097ZM284.775 145.157C284.775 143.776 283.656 142.656 282.274 142.656C280.893 142.656 279.773 143.776 279.773 145.157C279.773 146.538 280.893 147.658 282.274 147.658C283.656 147.658 284.775 146.538 284.775 145.157ZM282.274 171.211C283.656 171.211 284.775 172.33 284.775 173.712C284.775 175.093 283.656 176.212 282.274 176.212C280.893 176.212 279.773 175.093 279.773 173.712C279.773 172.33 280.893 171.211 282.274 171.211ZM309.994 2.50447C309.994 1.12324 308.874 0.00356486 307.493 0.00356492C306.112 0.00356498 304.992 1.12324 304.992 2.50447C304.992 3.88568 306.112 5.00537 307.493 5.00537C308.874 5.00537 309.994 3.88568 309.994 2.50447ZM307.493 28.4958C308.874 28.4958 309.994 29.6154 309.994 30.9967C309.994 32.3779 308.874 33.4976 307.493 33.4976C306.112 33.4976 304.992 32.3779 304.992 30.9967C304.992 29.6154 306.112 28.4958 307.493 28.4958ZM309.994 59.5513C309.994 58.1701 308.874 57.0504 307.493 57.0504C306.112 57.0504 304.992 58.1701 304.992 59.5513C304.992 60.9326 306.112 62.0522 307.493 62.0522C308.874 62.0522 309.994 60.9326 309.994 59.5513ZM309.994 88.1099C309.994 89.483 308.866 90.6108 307.493 90.6108C306.071 90.6108 304.992 89.483 304.992 88.1099C304.992 86.7369 306.12 85.609 307.493 85.609C308.866 85.609 309.994 86.7369 309.994 88.1099ZM309.994 116.598C309.994 115.217 308.874 114.097 307.493 114.097C306.112 114.097 304.992 115.217 304.992 116.598C304.992 117.979 306.112 119.099 307.493 119.099C308.874 119.099 309.994 117.979 309.994 116.598ZM307.493 142.657C308.874 142.657 309.994 143.777 309.994 145.158C309.994 146.539 308.874 147.659 307.493 147.659C306.112 147.659 304.992 146.539 304.992 145.158C304.992 143.777 306.112 142.657 307.493 142.657ZM309.994 173.712C309.994 172.33 308.874 171.211 307.493 171.211C306.112 171.211 304.992 172.33 304.992 173.712C304.992 175.093 306.112 176.212 307.493 176.212C308.874 176.212 309.994 175.093 309.994 173.712ZM333.001 0.0035638C334.382 0.00356374 335.502 1.12324 335.502 2.50446C335.502 3.88567 334.382 5.00536 333.001 5.00536C331.62 5.00536 330.5 3.88567 330.5 2.50446C330.5 1.12324 331.62 0.00356386 333.001 0.0035638ZM335.501 30.9934C335.501 29.6121 334.382 28.4925 333 28.4925C331.619 28.4925 330.5 29.6121 330.5 30.9934C330.5 32.3746 331.619 33.4943 333 33.4943C334.382 33.4943 335.501 32.3746 335.501 30.9934ZM333 57.0499C334.382 57.0499 335.501 58.1695 335.501 59.5508C335.501 60.932 334.382 62.0517 333 62.0517C331.619 62.0517 330.5 60.932 330.5 59.5508C330.5 58.1695 331.619 57.0499 333 57.0499ZM333.001 90.6108C334.374 90.6108 335.502 89.483 335.502 88.1099C335.502 86.7369 334.374 85.609 333.001 85.609C331.628 85.609 330.5 86.7369 330.5 88.1099C330.5 89.483 331.628 90.6108 333.001 90.6108ZM333 114.097C334.382 114.097 335.501 115.216 335.501 116.598C335.501 117.979 334.382 119.098 333 119.098C331.619 119.098 330.5 117.979 330.5 116.598C330.5 115.216 331.619 114.097 333 114.097ZM335.502 145.157C335.502 143.776 334.382 142.656 333.001 142.656C331.62 142.656 330.5 143.776 330.5 145.157C330.5 146.538 331.62 147.658 333.001 147.658C334.382 147.658 335.502 146.538 335.502 145.157ZM333.001 171.211C334.382 171.211 335.502 172.33 335.502 173.712C335.502 175.093 334.382 176.212 333.001 176.212C331.62 176.212 330.5 175.093 330.5 173.712C330.5 172.33 331.62 171.211 333.001 171.211Z" fill="#9AADFF" fill-opacity="0.51"/>
</svg>
