<svg width="30" height="30" viewBox="0 0 30 30" fill="none" xmlns="http://www.w3.org/2000/svg">
<circle cx="15" cy="15" r="14" fill="#E0E5F5" stroke="white" stroke-width="2"/>
<path d="M6.42 18V17.16C6.42 16.6733 6.5 16.27 6.66 15.95C6.82 15.6233 7.05 15.3567 7.35 15.15C7.65667 14.9367 8.03 14.7633 8.47 14.63L9.14 14.42C9.38667 14.34 9.59333 14.2433 9.76 14.13C9.92667 14.01 10.0533 13.8667 10.14 13.7C10.2333 13.5333 10.28 13.3433 10.28 13.13V13.09C10.28 12.7567 10.1667 12.4933 9.94 12.3C9.71333 12.1 9.40333 12 9.01 12C8.62333 12 8.31 12.1067 8.07 12.32C7.83667 12.5267 7.72 12.8267 7.72 13.22V13.4H6.44V13.24C6.44 12.7333 6.55333 12.3033 6.78 11.95C7.00667 11.5967 7.31333 11.3267 7.7 11.14C8.09333 10.9533 8.53 10.86 9.01 10.86C9.49 10.86 9.92333 10.9533 10.31 11.14C10.6967 11.32 11 11.5767 11.22 11.91C11.4467 12.2367 11.56 12.6233 11.56 13.07V13.17C11.56 13.6167 11.4667 13.9967 11.28 14.31C11.1 14.6167 10.8533 14.87 10.54 15.07C10.2267 15.2633 9.87 15.4233 9.47 15.55L8.83 15.75C8.54333 15.8367 8.32 15.9333 8.16 16.04C8 16.14 7.88667 16.2533 7.82 16.38C7.76 16.5 7.73 16.6467 7.73 16.82V16.86H11.5V18H6.42ZM15.0575 18.14C14.5242 18.14 14.0608 18.04 13.6675 17.84C13.2742 17.64 12.9708 17.3633 12.7575 17.01C12.5442 16.6567 12.4375 16.25 12.4375 15.79V13.4C12.4375 12.8333 12.5508 12.3633 12.7775 11.99C13.0108 11.61 13.3275 11.3267 13.7275 11.14C14.1342 10.9533 14.5975 10.86 15.1175 10.86C15.6375 10.86 16.0875 10.9467 16.4675 11.12C16.8542 11.2933 17.1508 11.5433 17.3575 11.87C17.5708 12.1967 17.6775 12.5867 17.6775 13.04H16.3775C16.3775 12.76 16.2808 12.5167 16.0875 12.31C15.8942 12.1033 15.5708 12 15.1175 12C14.6708 12 14.3242 12.1167 14.0775 12.35C13.8375 12.5833 13.7175 12.9067 13.7175 13.32V14.04H13.8975C14.0108 13.9067 14.1842 13.78 14.4175 13.66C14.6508 13.54 14.9908 13.48 15.4375 13.48C15.8442 13.48 16.2175 13.5667 16.5575 13.74C16.9042 13.9133 17.1842 14.1667 17.3975 14.5C17.6108 14.8267 17.7175 15.2233 17.7175 15.69V15.81C17.7175 16.27 17.6075 16.6767 17.3875 17.03C17.1675 17.3767 16.8575 17.65 16.4575 17.85C16.0575 18.0433 15.5908 18.14 15.0575 18.14ZM15.0775 17C15.4975 17 15.8275 16.89 16.0675 16.67C16.3142 16.45 16.4375 16.1567 16.4375 15.79V15.71C16.4375 15.4633 16.3808 15.25 16.2675 15.07C16.1608 14.89 16.0042 14.75 15.7975 14.65C15.5975 14.55 15.3575 14.5 15.0775 14.5C14.8042 14.5 14.5642 14.55 14.3575 14.65C14.1508 14.75 13.9908 14.89 13.8775 15.07C13.7708 15.25 13.7175 15.4633 13.7175 15.71V15.79C13.7175 16.1567 13.8375 16.45 14.0775 16.67C14.3242 16.89 14.6575 17 15.0775 17ZM20.6291 16.59V15.07H19.1291V13.93H20.6291V12.41H21.8091V13.93H23.3091V15.07H21.8091V16.59H20.6291Z" fill="#1254FF"/>
</svg>
