<svg width="35" height="25" viewBox="0 0 35 25" fill="none" xmlns="http://www.w3.org/2000/svg">
<path d="M20.2174 3.02649C19.9777 1.99109 19.6428 0.978275 19.2166 0H15.7409C16.2738 0.960441 16.6924 1.97569 16.9888 3.02649C17.3376 4.25783 17.5139 5.52853 17.513 6.80483C17.513 13.4995 12.7681 19.1492 6.34665 20.7997V23.9178C14.5215 22.2031 20.6572 15.178 20.6572 6.80483C20.6468 5.53413 20.4994 4.26789 20.2174 3.02649Z" fill="#202020"/>
<path d="M35 9.56549C35 16.2142 31.1318 22.0102 25.4416 24.9725C25.4269 24.9837 25.4107 24.993 25.3934 25V21.4507C25.4075 21.4362 25.4237 21.4238 25.4416 21.414C29.3215 18.7913 31.8559 14.4516 31.8559 9.55619C31.8559 9.41679 31.8462 9.2811 31.8462 9.14355C31.8207 8.35849 31.7316 7.57653 31.5798 6.8048C31.5416 6.57571 31.4832 6.34615 31.4272 6.11707H34.6476C34.6959 6.34615 34.7331 6.57571 34.7712 6.8048C34.8981 7.57884 34.9713 8.36015 34.9904 9.14355C34.9904 9.2811 34.9904 9.41865 35 9.56549Z" fill="#202020"/>
<path d="M19.4998 12C19.395 12.3118 19.2902 12.6236 19.1662 12.9261C19.0899 13.119 19.0136 13.3206 18.9282 13.513C18.709 14.027 18.4802 14.5311 18.2229 15.0265H3V12H19.4998Z" fill="#202020"/>
<path d="M34.9904 9.14356H9.53714V6.11707H34.6476C34.6959 6.34615 34.7331 6.57571 34.7712 6.8048C34.8981 7.57884 34.9713 8.36015 34.9904 9.14356Z" fill="#202020"/>
<path d="M20.2174 3.02649H0V0H19.2166C19.6442 0.977787 19.9791 1.99073 20.2174 3.02649Z" fill="#202020"/>
</svg>
