<svg width="22" height="21" viewBox="0 0 22 21" fill="none" xmlns="http://www.w3.org/2000/svg">
<path d="M19.5556 0H2.44444C1.09389 0 0 1.04417 0 2.33333V18.6667C0 19.9558 1.09389 21 2.44444 21H19.5556C20.9061 21 22 19.9558 22 18.6667V2.33333C22 1.04417 20.9061 0 19.5556 0ZM5.79089 16.3333C4.939 16.3333 4.24844 15.6742 4.24844 14.861V9.63783C4.24967 8.82583 4.94022 8.16667 5.79089 8.16667C6.64278 8.16667 7.33333 8.82583 7.33333 9.639V14.8622C7.33333 15.6742 6.64278 16.3333 5.79089 16.3333ZM5.73711 6.66983C4.79478 6.66983 4.16533 6.07017 4.16533 5.26983C4.16533 4.4695 4.79356 3.86983 5.841 3.86983C6.78333 3.86983 7.41278 4.4695 7.41278 5.26983C7.41278 6.07017 6.78455 6.66983 5.73711 6.66983ZM16.841 16.3333C16.0172 16.3333 15.3487 15.6952 15.3487 14.9088V11.8697C15.3487 10.6353 14.553 10.5 14.2548 10.5C13.9566 10.5 12.9617 10.5408 12.9617 11.8697V14.9088C12.9617 15.6952 12.2931 16.3333 11.4693 16.3333H11.3703C10.5466 16.3333 9.878 15.6952 9.878 14.9088V9.639C9.878 8.82583 10.5686 8.16667 11.4204 8.16667C12.2723 8.16667 12.9629 8.82583 12.9629 9.639C12.9629 9.639 13.3076 8.16667 15.6493 8.16667C17.1392 8.16667 18.3333 9.3065 18.3333 11.8697V14.9088C18.3333 15.6952 17.6648 16.3333 16.841 16.3333Z" fill="#202020"/>
</svg>
