<svg width="22" height="22" viewBox="0 0 22 22" fill="none" xmlns="http://www.w3.org/2000/svg">
<path d="M17.1111 0H4.88889C2.189 0 0 2.189 0 4.88889V17.1111C0 19.811 2.189 22 4.88889 22H17.1111C19.811 22 22 19.811 22 17.1111V4.88889C22 2.189 19.811 0 17.1111 0ZM17.1722 7.96156C17.1722 8.06667 17.1722 8.17056 17.1722 8.38078C17.1722 12.3616 14.1338 16.9718 8.58122 16.9718C6.90556 16.9718 5.33378 16.4474 3.97222 15.6102C4.18122 15.6102 4.49656 15.6102 4.70556 15.6102C6.06711 15.6102 7.42989 15.0859 8.47733 14.3526C7.11578 14.3526 6.06833 13.4102 5.64911 12.2577C5.85811 12.2577 6.06833 12.3628 6.17344 12.3628C6.48756 12.3628 6.69778 12.3628 7.01189 12.2577C5.65033 11.9436 4.60289 10.791 4.60289 9.32433C5.02211 9.53333 5.44133 9.63844 5.96444 9.74356C5.126 9.01022 4.60289 8.17178 4.60289 7.12433C4.60289 6.6 4.708 6.07689 5.02211 5.65767C6.48878 7.43844 8.68878 8.69611 11.2029 8.8C11.2029 8.591 11.0978 8.38078 11.0978 8.06667C11.0978 6.391 12.4593 5.02822 14.1362 5.02822C14.9747 5.02822 15.8119 5.34233 16.3362 5.97056C17.0696 5.86544 17.6978 5.55133 18.2221 5.23722C18.0131 5.97056 17.4888 6.49489 16.8606 6.91289C17.4888 6.80778 18.0131 6.70389 18.6413 6.38856C18.2197 7.01922 17.6966 7.54233 17.1722 7.96156Z" fill="#202020"/>
</svg>
