<svg width="24" height="24" viewBox="0 0 24 24" fill="none" xmlns="http://www.w3.org/2000/svg">
<path d="M10.4911 0.0821535C5.04392 0.675618 0.662517 5.06725 0.0704359 10.4084C-0.521645 15.987 2.67559 20.9721 7.53065 22.8712C7.8859 22.9899 8.24115 22.7525 8.24115 22.2777V20.3786C8.24115 20.3786 7.76749 20.4973 7.17541 20.4973C5.51758 20.4973 4.80708 19.073 4.68867 18.2422C4.57025 17.7674 4.33342 17.4113 3.97817 17.0552C3.62292 16.9365 3.5045 16.9365 3.5045 16.8178C3.5045 16.5805 3.85975 16.5805 3.97817 16.5805C4.68867 16.5805 5.28075 17.4113 5.51758 17.7674C6.10966 18.7169 6.82016 18.9543 7.17541 18.9543C7.64907 18.9543 8.00432 18.8356 8.24115 18.7169C8.35957 17.8861 8.71482 17.0552 9.42531 16.5805C6.70174 15.987 4.68867 14.444 4.68867 11.8327C4.68867 10.5271 5.28075 9.2215 6.10966 8.27196C5.99124 8.03457 5.87283 7.44111 5.87283 6.61026C5.87283 6.13549 5.87283 5.42333 6.22808 4.71117C6.22808 4.71117 7.8859 4.71117 9.54373 6.25418C10.1358 6.01679 10.9647 5.8981 11.7936 5.8981C12.6226 5.8981 13.4515 6.01679 14.162 6.25418C15.7014 4.71117 17.4776 4.71117 17.4776 4.71117C17.7144 5.42333 17.7144 6.13549 17.7144 6.61026C17.7144 7.5598 17.596 8.03457 17.4776 8.27196C18.3065 9.2215 18.8986 10.4084 18.8986 11.8327C18.8986 14.444 16.8855 15.987 14.162 16.5805C14.8725 17.1739 15.3461 18.2421 15.3461 19.3104V22.3964C15.3461 22.7525 15.7014 23.1086 16.175 22.9899C20.5564 21.2095 23.6353 16.9365 23.6353 11.9514C23.6353 4.82987 17.596 -0.748696 10.4911 0.0821535Z" fill="#202020"/>
</svg>
